{"glyphs":{"0":{"ha":917,"x_min":88,"x_max":907,"o":"m 379 -121 q 163 -15 238 -121 q 88 257 88 92 q 152 590 88 415 q 335 882 217 764 q 606 1000 454 1000 q 825 899 743 1000 q 907 614 907 797 q 837 272 907 443 q 646 -10 767 100 q 379 -121 525 -121 m 399 -54 q 587 62 499 -54 q 728 348 675 178 q 781 668 781 518 q 738 869 781 794 q 606 943 696 943 q 404 824 490 943 q 272 538 318 706 q 226 233 226 369 q 272 24 226 101 q 399 -54 318 -54 z "},"1":{"ha":544,"x_min":-47,"x_max":489,"o":"m 100 -121 q 18 -101 53 -121 q -47 -43 -17 -82 q -14 -46 -33 -43 l 25 -47 q 169 -33 72 -47 q 240 203 207 53 q 308 557 272 354 q 353 783 339 721 q 249 720 282 736 q 197 704 217 704 q 157 761 157 704 q 297 853 203 783 q 471 999 392 924 q 489 944 489 982 q 483 899 489 924 q 475 869 476 875 q 458 794 461 815 q 376 342 418 535 q 260 -21 335 149 q 308 -18 293 -18 q 406 -40 368 -18 q 457 -117 444 -61 q 329 -108 389 -108 q 183 -115 299 -108 q 100 -121 114 -121 z "},"2":{"ha":832,"x_min":-8,"x_max":768,"o":"m 608 -121 q 497 -101 560 -121 q 336 -44 433 -82 q 267 -18 326 -40 q 101 -75 171 -75 q 22 -51 53 -75 q -8 10 -8 -28 q 108 83 -8 83 q 260 65 165 83 q 433 260 347 140 q 573 510 518 379 q 628 751 628 642 q 587 894 628 846 q 478 943 546 943 q 376 907 418 943 q 313 814 333 871 q 292 696 292 757 q 318 575 292 636 l 292 578 q 215 614 246 582 q 185 711 185 646 q 224 853 185 786 q 335 960 264 919 q 493 1000 406 1000 q 680 924 614 1000 q 746 726 746 847 q 691 490 746 617 q 546 246 636 363 q 353 46 456 129 q 639 0 560 0 q 697 9 672 0 q 768 43 721 18 q 708 -82 746 -43 q 608 -121 669 -121 m 99 -18 q 183 11 132 -18 q 96 28 132 28 q 64 21 74 28 q 54 6 54 14 q 69 -11 56 -4 q 99 -18 82 -18 z "},"3":{"ha":753,"x_min":26,"x_max":700,"o":"m 279 -121 q 135 -90 192 -121 q 53 -12 79 -60 q 26 86 26 36 q 59 193 26 146 q 150 240 92 240 q 199 235 169 240 q 157 176 174 214 q 140 100 140 138 q 160 25 140 61 q 213 -34 179 -11 q 290 -57 247 -57 q 395 -20 344 -57 q 478 82 446 17 q 510 228 510 147 q 466 388 510 317 q 322 485 422 458 q 453 574 396 517 q 541 697 510 631 q 572 821 572 763 q 536 913 572 883 q 447 943 500 943 q 340 907 386 943 q 293 811 293 871 q 321 715 293 767 q 292 682 313 697 q 253 667 272 667 q 206 705 224 667 q 188 789 188 743 q 227 901 188 853 q 330 974 267 949 q 464 1000 393 1000 q 579 977 525 1000 q 667 910 633 954 q 700 804 700 865 q 672 686 700 747 q 592 575 643 625 q 478 501 542 525 q 627 392 579 467 q 675 235 675 317 q 624 65 675 147 q 482 -69 572 -17 q 279 -121 392 -121 z "},"4":{"ha":706,"x_min":4,"x_max":706,"o":"m 474 -121 q 377 -97 411 -117 q 343 -46 343 -76 q 358 58 343 -31 q 404 319 374 147 q 307 325 354 325 q 139 317 257 325 q 4 300 21 310 q 21 356 4 332 q 74 413 38 379 q 629 1000 478 788 q 664 951 664 983 q 636 875 664 918 q 544 411 604 744 q 640 414 608 411 q 706 426 671 417 q 622 348 669 378 q 528 318 575 318 q 494 99 514 240 q 474 -121 474 -43 m 165 414 q 290 418 219 418 q 425 415 342 418 q 499 721 468 619 q 364 599 508 731 q 165 414 219 468 z "},"5":{"ha":713,"x_min":13,"x_max":710,"o":"m 271 -121 q 122 -90 179 -121 q 38 -12 64 -60 q 13 85 13 35 q 44 193 13 146 q 135 240 76 240 q 185 235 156 240 q 142 176 158 214 q 126 96 126 138 q 163 -12 126 33 q 269 -57 199 -57 q 391 -13 339 -57 q 471 99 443 31 q 499 238 499 167 q 451 389 499 329 q 310 449 404 449 q 164 431 258 449 q 203 610 175 506 q 278 882 231 715 l 310 993 q 469 974 389 974 q 575 981 524 974 q 700 1001 626 988 q 710 949 710 963 q 654 867 710 893 q 524 842 599 842 q 421 851 489 842 q 365 858 386 858 q 320 789 343 858 q 265 589 297 719 q 242 496 247 513 q 356 507 301 507 q 578 433 501 507 q 656 235 656 358 q 607 56 656 138 q 471 -74 558 -26 q 271 -121 383 -121 z "},"6":{"ha":822,"x_min":81,"x_max":779,"o":"m 392 -121 q 157 -24 233 -121 q 81 233 81 72 q 149 574 81 393 q 344 877 218 754 q 631 1000 469 1000 q 738 978 697 1000 q 779 911 779 956 q 761 865 779 885 q 696 833 743 846 q 699 879 699 861 q 683 931 699 913 q 626 949 668 949 q 472 877 544 949 q 346 693 400 806 q 261 454 292 581 q 369 510 308 490 q 492 529 429 529 q 690 459 611 529 q 769 251 769 389 q 722 63 769 147 q 589 -72 675 -22 q 392 -121 503 -121 m 399 -57 q 517 -11 465 -57 q 597 107 568 35 q 625 257 625 179 q 574 411 625 360 q 439 463 524 463 q 279 388 331 463 q 228 201 228 314 q 267 23 228 103 q 399 -57 306 -57 z "},"7":{"ha":610,"x_min":94,"x_max":750,"o":"m 174 -121 q 132 -102 150 -121 q 114 -49 114 -83 q 292 406 114 50 q 94 392 192 403 q 162 478 96 456 q 343 501 228 501 q 431 646 375 550 q 563 864 536 822 q 502 863 529 864 q 457 860 475 861 q 353 856 403 856 q 188 931 188 856 q 211 999 188 960 q 481 971 368 971 q 750 1007 638 971 q 581 765 651 879 q 438 496 510 650 q 546 490 486 490 q 636 500 600 490 q 569 429 601 453 q 500 406 536 406 l 396 406 q 310 191 343 285 q 276 33 276 97 q 299 -25 276 -10 q 238 -97 275 -74 q 174 -121 201 -121 z "},"8":{"ha":779,"x_min":60,"x_max":701,"o":"m 328 -121 q 173 -85 233 -121 q 86 6 113 -49 q 60 117 60 60 q 92 231 60 179 q 170 324 124 283 q 294 419 217 364 q 324 441 307 429 q 360 468 340 453 q 239 615 281 549 q 197 767 197 682 q 236 897 197 844 q 337 974 275 950 q 469 999 399 999 q 638 945 574 999 q 701 790 701 892 q 651 626 701 699 q 506 483 600 554 q 605 378 568 421 q 666 285 642 336 q 690 174 690 233 q 640 20 690 88 q 506 -84 589 -47 q 328 -121 422 -121 m 454 538 q 563 656 525 596 q 600 789 600 715 q 564 901 600 861 q 472 942 528 942 q 373 902 418 942 q 328 783 328 863 q 360 660 328 717 q 454 538 393 603 m 340 -47 q 441 -20 392 -47 q 522 56 490 7 q 553 167 553 106 q 517 289 553 233 q 413 415 482 344 q 283 319 332 360 q 200 227 233 278 q 167 118 167 176 q 192 31 167 68 q 256 -27 217 -7 q 340 -47 296 -47 z "},"9":{"ha":831,"x_min":133,"x_max":819,"o":"m 299 -121 q 188 -97 231 -121 q 146 -29 146 -74 q 226 50 146 26 q 241 -36 226 -3 q 301 -69 256 -69 q 453 2 383 -69 q 571 186 522 74 q 646 425 619 299 q 540 371 600 390 q 418 351 481 351 q 273 384 338 351 q 171 482 208 417 q 133 639 133 547 q 178 826 133 744 q 306 954 224 908 q 496 1000 388 1000 q 741 892 663 1000 q 819 613 819 783 q 755 278 819 450 q 572 -7 690 107 q 299 -121 453 -121 m 474 418 q 622 481 572 418 q 671 654 671 543 q 628 849 671 761 q 490 936 586 936 q 377 893 426 936 q 302 781 328 850 q 276 635 276 711 q 329 473 276 528 q 474 418 382 418 z "},"\u0000":{"ha":0,"x_min":0,"x_max":0,"o":""},"\r":{"ha":361,"x_min":0,"x_max":0,"o":""}," ":{"ha":361,"x_min":0,"x_max":0,"o":""},"A":{"ha":876,"x_min":0,"x_max":869,"o":"m 64 -121 q 0 -35 0 -87 q 56 128 0 18 q 204 382 111 239 q 0 388 121 388 q 161 478 33 478 q 264 469 189 478 q 554 849 419 694 q 733 1003 689 1003 q 828 949 769 1003 q 747 776 800 928 q 652 442 693 624 q 611 150 611 261 q 623 67 611 94 q 660 40 635 40 q 742 91 694 40 q 844 247 789 142 l 869 221 q 756 31 825 103 q 611 -40 686 -40 q 518 15 547 -40 q 489 175 489 71 q 507 347 489 243 q 308 374 436 358 q 64 -121 179 144 m 521 415 q 586 657 546 532 q 668 881 626 782 q 525 719 607 832 q 353 453 443 607 l 457 431 q 521 415 499 419 z "},"Á":{"ha":876,"x_min":0,"x_max":978,"o":"m 64 -121 q 0 -35 0 -87 q 56 128 0 18 q 204 382 111 239 q 0 388 121 388 q 161 478 33 478 q 264 469 189 478 q 554 849 419 694 q 733 1003 689 1003 q 828 949 769 1003 q 747 776 800 928 q 652 442 693 624 q 611 150 611 261 q 623 67 611 94 q 660 40 635 40 q 742 91 694 40 q 844 247 789 142 l 869 221 q 756 31 825 103 q 611 -40 686 -40 q 518 15 547 -40 q 489 175 489 71 q 507 347 489 243 q 308 374 436 358 q 64 -121 179 144 m 521 415 q 586 657 546 532 q 668 881 626 782 q 525 719 607 832 q 353 453 443 607 l 457 431 q 521 415 499 419 m 826 1039 q 802 1060 811 1046 q 793 1085 793 1075 q 818 1141 793 1101 q 876 1213 843 1181 q 936 1244 910 1244 q 978 1196 972 1244 q 956 1174 978 1196 q 883 1103 917 1138 q 826 1039 850 1069 z "},"Ă":{"ha":876,"x_min":0,"x_max":1010,"o":"m 64 -121 q 0 -35 0 -87 q 56 128 0 18 q 204 382 111 239 q 0 388 121 388 q 161 478 33 478 q 264 469 189 478 q 554 849 419 694 q 733 1003 689 1003 q 828 949 769 1003 q 747 776 800 928 q 652 442 693 624 q 611 150 611 261 q 623 67 611 94 q 660 40 635 40 q 742 91 694 40 q 844 247 789 142 l 869 221 q 756 31 825 103 q 611 -40 686 -40 q 518 15 547 -40 q 489 175 489 71 q 507 347 489 243 q 308 374 436 358 q 64 -121 179 144 m 521 415 q 586 657 546 532 q 668 881 626 782 q 525 719 607 832 q 353 453 443 607 l 457 431 q 521 415 499 419 m 861 1053 q 772 1074 807 1053 q 722 1125 738 1094 q 706 1185 706 1156 q 744 1253 706 1231 q 782 1174 753 1206 q 864 1142 811 1142 q 990 1210 946 1142 q 1010 1164 1010 1194 q 965 1085 1010 1117 q 861 1053 921 1053 z "},"Ắ":{"ha":876,"x_min":0,"x_max":1010,"o":"m 64 -121 q 0 -35 0 -87 q 56 128 0 18 q 204 382 111 239 q 0 388 121 388 q 161 478 33 478 q 264 469 189 478 q 554 849 419 694 q 733 1003 689 1003 q 828 949 769 1003 q 747 776 800 928 q 652 442 693 624 q 611 150 611 261 q 623 67 611 94 q 660 40 635 40 q 742 91 694 40 q 844 247 789 142 l 869 221 q 756 31 825 103 q 611 -40 686 -40 q 518 15 547 -40 q 489 175 489 71 q 507 347 489 243 q 308 374 436 358 q 64 -121 179 144 m 521 415 q 586 657 546 532 q 668 881 626 782 q 525 719 607 832 q 353 453 443 607 l 457 431 q 521 415 499 419 m 869 1197 q 836 1243 836 1211 q 858 1295 836 1261 q 909 1356 879 1329 q 964 1382 939 1382 q 1006 1333 1000 1382 q 938 1270 981 1313 q 869 1197 894 1228 m 861 1053 q 772 1074 807 1053 q 722 1125 738 1094 q 706 1185 706 1156 q 744 1253 706 1231 q 782 1174 753 1206 q 864 1142 811 1142 q 990 1210 946 1142 q 1010 1164 1010 1194 q 965 1085 1010 1117 q 861 1053 921 1053 z "},"Ặ":{"ha":876,"x_min":0,"x_max":1010,"o":"m 64 -121 q 0 -35 0 -87 q 56 128 0 18 q 204 382 111 239 q 0 388 121 388 q 161 478 33 478 q 264 469 189 478 q 554 849 419 694 q 733 1003 689 1003 q 828 949 769 1003 q 747 776 800 928 q 652 442 693 624 q 611 150 611 261 q 623 67 611 94 q 660 40 635 40 q 742 91 694 40 q 844 247 789 142 l 869 221 q 756 31 825 103 q 611 -40 686 -40 q 518 15 547 -40 q 489 175 489 71 q 507 347 489 243 q 308 374 436 358 q 64 -121 179 144 m 521 415 q 586 657 546 532 q 668 881 626 782 q 525 719 607 832 q 353 453 443 607 l 457 431 q 521 415 499 419 m 861 1053 q 772 1074 807 1053 q 722 1125 738 1094 q 706 1185 706 1156 q 744 1253 706 1231 q 782 1174 753 1206 q 864 1142 811 1142 q 990 1210 946 1142 q 1010 1164 1010 1194 q 965 1085 1010 1117 q 861 1053 921 1053 m 279 -268 q 234 -253 251 -268 q 217 -212 217 -239 q 247 -162 217 -183 q 313 -142 278 -142 q 354 -155 340 -142 q 368 -192 368 -168 q 340 -245 368 -222 q 279 -268 313 -268 z "},"Ằ":{"ha":876,"x_min":0,"x_max":1010,"o":"m 64 -121 q 0 -35 0 -87 q 56 128 0 18 q 204 382 111 239 q 0 388 121 388 q 161 478 33 478 q 264 469 189 478 q 554 849 419 694 q 733 1003 689 1003 q 828 949 769 1003 q 747 776 800 928 q 652 442 693 624 q 611 150 611 261 q 623 67 611 94 q 660 40 635 40 q 742 91 694 40 q 844 247 789 142 l 869 221 q 756 31 825 103 q 611 -40 686 -40 q 518 15 547 -40 q 489 175 489 71 q 507 347 489 243 q 308 374 436 358 q 64 -121 179 144 m 521 415 q 586 657 546 532 q 668 881 626 782 q 525 719 607 832 q 353 453 443 607 l 457 431 q 521 415 499 419 m 883 1200 q 815 1273 858 1231 q 747 1336 772 1315 q 789 1385 753 1385 q 844 1358 814 1385 q 895 1298 874 1332 q 917 1246 917 1264 q 883 1200 917 1214 m 861 1053 q 772 1074 807 1053 q 722 1125 738 1094 q 706 1185 706 1156 q 744 1253 706 1231 q 782 1174 753 1206 q 864 1142 811 1142 q 990 1210 946 1142 q 1010 1164 1010 1194 q 965 1085 1010 1117 q 861 1053 921 1053 z "},"Ẳ":{"ha":876,"x_min":0,"x_max":1010,"o":"m 64 -121 q 0 -35 0 -87 q 56 128 0 18 q 204 382 111 239 q 0 388 121 388 q 161 478 33 478 q 264 469 189 478 q 554 849 419 694 q 733 1003 689 1003 q 828 949 769 1003 q 747 776 800 928 q 652 442 693 624 q 611 150 611 261 q 623 67 611 94 q 660 40 635 40 q 742 91 694 40 q 844 247 789 142 l 869 221 q 756 31 825 103 q 611 -40 686 -40 q 518 15 547 -40 q 489 175 489 71 q 507 347 489 243 q 308 374 436 358 q 64 -121 179 144 m 521 415 q 586 657 546 532 q 668 881 626 782 q 525 719 607 832 q 353 453 443 607 l 457 431 q 521 415 499 419 m 861 1053 q 772 1074 807 1053 q 722 1125 738 1094 q 706 1185 706 1156 q 744 1253 706 1231 q 782 1174 753 1206 q 864 1142 811 1142 q 990 1210 946 1142 q 1010 1164 1010 1194 q 965 1085 1010 1117 q 861 1053 921 1053 m 876 1196 q 828 1211 849 1196 q 919 1276 919 1226 q 889 1315 919 1303 q 792 1328 858 1328 q 812 1381 792 1360 q 871 1401 832 1401 q 949 1371 918 1401 q 979 1294 979 1340 q 951 1223 979 1250 q 876 1196 922 1196 z "},"Ẵ":{"ha":876,"x_min":0,"x_max":1115,"o":"m 64 -121 q 0 -35 0 -87 q 56 128 0 18 q 204 382 111 239 q 0 388 121 388 q 161 478 33 478 q 264 469 189 478 q 554 849 419 694 q 733 1003 689 1003 q 828 949 769 1003 q 747 776 800 928 q 652 442 693 624 q 611 150 611 261 q 623 67 611 94 q 660 40 635 40 q 742 91 694 40 q 844 247 789 142 l 869 221 q 756 31 825 103 q 611 -40 686 -40 q 518 15 547 -40 q 489 175 489 71 q 507 347 489 243 q 308 374 436 358 q 64 -121 179 144 m 521 415 q 586 657 546 532 q 668 881 626 782 q 525 719 607 832 q 353 453 443 607 l 457 431 q 521 415 499 419 m 861 1053 q 772 1074 807 1053 q 722 1125 738 1094 q 706 1185 706 1156 q 744 1253 706 1231 q 782 1174 753 1206 q 864 1142 811 1142 q 990 1210 946 1142 q 1010 1164 1010 1194 q 965 1085 1010 1117 q 861 1053 921 1053 m 999 1238 q 942 1247 971 1238 q 874 1272 914 1256 q 842 1285 867 1275 q 796 1299 817 1294 q 758 1304 775 1304 q 668 1286 710 1304 q 793 1368 701 1368 q 847 1360 819 1368 q 914 1335 875 1351 q 983 1310 957 1318 q 1033 1301 1008 1301 q 1115 1315 1075 1301 q 1067 1257 1094 1276 q 999 1238 1040 1238 z "},"Â":{"ha":876,"x_min":0,"x_max":985,"o":"m 64 -121 q 0 -35 0 -87 q 56 128 0 18 q 204 382 111 239 q 0 388 121 388 q 161 478 33 478 q 264 469 189 478 q 554 849 419 694 q 733 1003 689 1003 q 828 949 769 1003 q 747 776 800 928 q 652 442 693 624 q 611 150 611 261 q 623 67 611 94 q 660 40 635 40 q 742 91 694 40 q 844 247 789 142 l 869 221 q 756 31 825 103 q 611 -40 686 -40 q 518 15 547 -40 q 489 175 489 71 q 507 347 489 243 q 308 374 436 358 q 64 -121 179 144 m 521 415 q 586 657 546 532 q 668 881 626 782 q 525 719 607 832 q 353 453 443 607 l 457 431 q 521 415 499 419 m 950 1033 q 908 1093 931 1068 q 850 1149 885 1118 q 708 1076 786 1128 q 694 1094 699 1082 q 690 1115 690 1106 q 721 1168 690 1140 q 791 1215 751 1196 q 851 1235 831 1235 q 906 1210 874 1235 q 961 1150 938 1185 q 985 1088 985 1115 q 976 1057 985 1072 q 950 1033 968 1042 z "},"Ấ":{"ha":876,"x_min":0,"x_max":1154,"o":"m 64 -121 q 0 -35 0 -87 q 56 128 0 18 q 204 382 111 239 q 0 388 121 388 q 161 478 33 478 q 264 469 189 478 q 554 849 419 694 q 733 1003 689 1003 q 828 949 769 1003 q 747 776 800 928 q 652 442 693 624 q 611 150 611 261 q 623 67 611 94 q 660 40 635 40 q 742 91 694 40 q 844 247 789 142 l 869 221 q 756 31 825 103 q 611 -40 686 -40 q 518 15 547 -40 q 489 175 489 71 q 507 347 489 243 q 308 374 436 358 q 64 -121 179 144 m 521 415 q 586 657 546 532 q 668 881 626 782 q 525 719 607 832 q 353 453 443 607 l 457 431 q 521 415 499 419 m 1018 1169 q 985 1215 985 1183 q 1006 1267 985 1233 q 1058 1328 1028 1301 q 1113 1354 1088 1354 q 1154 1306 1149 1354 q 1086 1242 1129 1285 q 1018 1169 1043 1200 m 950 1033 q 908 1093 931 1068 q 850 1149 885 1118 q 708 1076 786 1128 q 694 1094 699 1082 q 690 1115 690 1106 q 721 1168 690 1140 q 791 1215 751 1196 q 851 1235 831 1235 q 906 1210 874 1235 q 961 1150 938 1185 q 985 1088 985 1115 q 976 1057 985 1072 q 950 1033 968 1042 z "},"Ậ":{"ha":876,"x_min":0,"x_max":985,"o":"m 64 -121 q 0 -35 0 -87 q 56 128 0 18 q 204 382 111 239 q 0 388 121 388 q 161 478 33 478 q 264 469 189 478 q 554 849 419 694 q 733 1003 689 1003 q 828 949 769 1003 q 747 776 800 928 q 652 442 693 624 q 611 150 611 261 q 623 67 611 94 q 660 40 635 40 q 742 91 694 40 q 844 247 789 142 l 869 221 q 756 31 825 103 q 611 -40 686 -40 q 518 15 547 -40 q 489 175 489 71 q 507 347 489 243 q 308 374 436 358 q 64 -121 179 144 m 521 415 q 586 657 546 532 q 668 881 626 782 q 525 719 607 832 q 353 453 443 607 l 457 431 q 521 415 499 419 m 950 1033 q 908 1093 931 1068 q 850 1149 885 1118 q 708 1076 786 1128 q 694 1094 699 1082 q 690 1115 690 1106 q 721 1168 690 1140 q 791 1215 751 1196 q 851 1235 831 1235 q 906 1210 874 1235 q 961 1150 938 1185 q 985 1088 985 1115 q 976 1057 985 1072 q 950 1033 968 1042 m 279 -268 q 234 -253 251 -268 q 217 -212 217 -239 q 247 -162 217 -183 q 313 -142 278 -142 q 354 -155 340 -142 q 368 -192 368 -168 q 340 -245 368 -222 q 279 -268 313 -268 z "},"Ầ":{"ha":876,"x_min":0,"x_max":1061,"o":"m 64 -121 q 0 -35 0 -87 q 56 128 0 18 q 204 382 111 239 q 0 388 121 388 q 161 478 33 478 q 264 469 189 478 q 554 849 419 694 q 733 1003 689 1003 q 828 949 769 1003 q 747 776 800 928 q 652 442 693 624 q 611 150 611 261 q 623 67 611 94 q 660 40 635 40 q 742 91 694 40 q 844 247 789 142 l 869 221 q 756 31 825 103 q 611 -40 686 -40 q 518 15 547 -40 q 489 175 489 71 q 507 347 489 243 q 308 374 436 358 q 64 -121 179 144 m 521 415 q 586 657 546 532 q 668 881 626 782 q 525 719 607 832 q 353 453 443 607 l 457 431 q 521 415 499 419 m 1029 1165 q 971 1244 1008 1197 q 910 1317 933 1292 q 951 1356 919 1356 q 1001 1327 976 1356 q 1044 1261 1026 1299 q 1061 1206 1061 1224 q 1029 1165 1061 1176 m 950 1033 q 908 1093 931 1068 q 850 1149 885 1118 q 708 1076 786 1128 q 694 1094 699 1082 q 690 1115 690 1106 q 721 1168 690 1140 q 791 1215 751 1196 q 851 1235 831 1235 q 906 1210 874 1235 q 961 1150 938 1185 q 985 1088 985 1115 q 976 1057 985 1072 q 950 1033 968 1042 z "},"Ẩ":{"ha":876,"x_min":0,"x_max":1128,"o":"m 64 -121 q 0 -35 0 -87 q 56 128 0 18 q 204 382 111 239 q 0 388 121 388 q 161 478 33 478 q 264 469 189 478 q 554 849 419 694 q 733 1003 689 1003 q 828 949 769 1003 q 747 776 800 928 q 652 442 693 624 q 611 150 611 261 q 623 67 611 94 q 660 40 635 40 q 742 91 694 40 q 844 247 789 142 l 869 221 q 756 31 825 103 q 611 -40 686 -40 q 518 15 547 -40 q 489 175 489 71 q 507 347 489 243 q 308 374 436 358 q 64 -121 179 144 m 521 415 q 586 657 546 532 q 668 881 626 782 q 525 719 607 832 q 353 453 443 607 l 457 431 q 521 415 499 419 m 1047 1158 q 1001 1169 1024 1158 q 1068 1226 1068 1185 q 940 1286 1068 1286 q 960 1339 940 1318 q 1019 1360 981 1360 q 1097 1327 1067 1360 q 1128 1246 1128 1294 q 1106 1183 1128 1207 q 1047 1158 1083 1158 m 950 1033 q 908 1093 931 1068 q 850 1149 885 1118 q 708 1076 786 1128 q 694 1094 699 1082 q 690 1115 690 1106 q 721 1168 690 1140 q 791 1215 751 1196 q 851 1235 831 1235 q 906 1210 874 1235 q 961 1150 938 1185 q 985 1088 985 1115 q 976 1057 985 1072 q 950 1033 968 1042 z "},"Ẫ":{"ha":876,"x_min":0,"x_max":1115,"o":"m 64 -121 q 0 -35 0 -87 q 56 128 0 18 q 204 382 111 239 q 0 388 121 388 q 161 478 33 478 q 264 469 189 478 q 554 849 419 694 q 733 1003 689 1003 q 828 949 769 1003 q 747 776 800 928 q 652 442 693 624 q 611 150 611 261 q 623 67 611 94 q 660 40 635 40 q 742 91 694 40 q 844 247 789 142 l 869 221 q 756 31 825 103 q 611 -40 686 -40 q 518 15 547 -40 q 489 175 489 71 q 507 347 489 243 q 308 374 436 358 q 64 -121 179 144 m 521 415 q 586 657 546 532 q 668 881 626 782 q 525 719 607 832 q 353 453 443 607 l 457 431 q 521 415 499 419 m 861 1053 q 772 1074 807 1053 q 722 1125 738 1094 q 706 1185 706 1156 q 744 1253 706 1231 q 782 1174 753 1206 q 864 1142 811 1142 q 990 1210 946 1142 q 1010 1164 1010 1194 q 965 1085 1010 1117 q 861 1053 921 1053 m 999 1238 q 942 1247 971 1238 q 874 1272 914 1256 q 842 1285 867 1275 q 796 1299 817 1294 q 758 1304 775 1304 q 668 1286 710 1304 q 793 1368 701 1368 q 847 1360 819 1368 q 914 1335 875 1351 q 983 1310 957 1318 q 1033 1301 1008 1301 q 1115 1315 1075 1301 q 1067 1257 1094 1276 q 999 1238 1040 1238 z "},"Ȁ":{"ha":876,"x_min":0,"x_max":903,"o":"m 64 -121 q 0 -35 0 -87 q 56 128 0 18 q 204 382 111 239 q 0 388 121 388 q 161 478 33 478 q 264 469 189 478 q 554 849 419 694 q 733 1003 689 1003 q 828 949 769 1003 q 747 776 800 928 q 652 442 693 624 q 611 150 611 261 q 623 67 611 94 q 660 40 635 40 q 742 91 694 40 q 844 247 789 142 l 869 221 q 756 31 825 103 q 611 -40 686 -40 q 518 15 547 -40 q 489 175 489 71 q 507 347 489 243 q 308 374 436 358 q 64 -121 179 144 m 521 415 q 586 657 546 532 q 668 881 626 782 q 525 719 607 832 q 353 453 443 607 l 457 431 q 521 415 499 419 m 768 1046 q 625 1219 701 1135 q 651 1239 639 1232 q 678 1246 663 1246 q 727 1215 700 1246 q 774 1144 754 1183 q 793 1088 793 1104 q 787 1063 793 1075 q 768 1046 781 1051 m 868 1047 q 765 1206 819 1138 q 813 1242 782 1242 q 858 1215 838 1242 q 890 1153 878 1189 q 903 1096 903 1118 q 893 1062 903 1074 q 868 1047 883 1050 z "},"Ä":{"ha":876,"x_min":0,"x_max":1013,"o":"m 64 -121 q 0 -35 0 -87 q 56 128 0 18 q 204 382 111 239 q 0 388 121 388 q 161 478 33 478 q 264 469 189 478 q 554 849 419 694 q 733 1003 689 1003 q 828 949 769 1003 q 747 776 800 928 q 652 442 693 624 q 611 150 611 261 q 623 67 611 94 q 660 40 635 40 q 742 91 694 40 q 844 247 789 142 l 869 221 q 756 31 825 103 q 611 -40 686 -40 q 518 15 547 -40 q 489 175 489 71 q 507 347 489 243 q 308 374 436 358 q 64 -121 179 144 m 521 415 q 586 657 546 532 q 668 881 626 782 q 525 719 607 832 q 353 453 443 607 l 457 431 q 521 415 499 419 m 726 1074 q 684 1085 701 1074 q 667 1121 667 1097 q 697 1167 667 1146 q 760 1188 728 1188 q 810 1143 810 1188 q 783 1096 810 1118 q 726 1074 757 1074 m 926 1046 q 885 1058 903 1046 q 868 1093 868 1071 q 898 1140 868 1119 q 961 1160 928 1160 q 1013 1114 1013 1160 q 985 1068 1013 1090 q 926 1046 958 1046 z "},"Ạ":{"ha":876,"x_min":0,"x_max":869,"o":"m 64 -121 q 0 -35 0 -87 q 56 128 0 18 q 204 382 111 239 q 0 388 121 388 q 161 478 33 478 q 264 469 189 478 q 554 849 419 694 q 733 1003 689 1003 q 828 949 769 1003 q 747 776 800 928 q 652 442 693 624 q 611 150 611 261 q 623 67 611 94 q 660 40 635 40 q 742 91 694 40 q 844 247 789 142 l 869 221 q 756 31 825 103 q 611 -40 686 -40 q 518 15 547 -40 q 489 175 489 71 q 507 347 489 243 q 308 374 436 358 q 64 -121 179 144 m 521 415 q 586 657 546 532 q 668 881 626 782 q 525 719 607 832 q 353 453 443 607 l 457 431 q 521 415 499 419 m 279 -268 q 234 -253 251 -268 q 217 -212 217 -239 q 247 -162 217 -183 q 313 -142 278 -142 q 354 -155 340 -142 q 368 -192 368 -168 q 340 -245 368 -222 q 279 -268 313 -268 z "},"À":{"ha":876,"x_min":0,"x_max":869,"o":"m 64 -121 q 0 -35 0 -87 q 56 128 0 18 q 204 382 111 239 q 0 388 121 388 q 161 478 33 478 q 264 469 189 478 q 554 849 419 694 q 733 1003 689 1003 q 828 949 769 1003 q 747 776 800 928 q 652 442 693 624 q 611 150 611 261 q 623 67 611 94 q 660 40 635 40 q 742 91 694 40 q 844 247 789 142 l 869 221 q 756 31 825 103 q 611 -40 686 -40 q 518 15 547 -40 q 489 175 489 71 q 507 347 489 243 q 308 374 436 358 q 64 -121 179 144 m 521 415 q 586 657 546 532 q 668 881 626 782 q 525 719 607 832 q 353 453 443 607 l 457 431 q 521 415 499 419 m 815 1039 q 653 1192 747 1119 q 667 1232 654 1218 q 697 1246 681 1246 q 760 1215 724 1246 q 823 1146 796 1185 q 850 1089 850 1107 q 840 1061 850 1076 q 815 1039 831 1046 z "},"Ả":{"ha":876,"x_min":0,"x_max":932,"o":"m 64 -121 q 0 -35 0 -87 q 56 128 0 18 q 204 382 111 239 q 0 388 121 388 q 161 478 33 478 q 264 469 189 478 q 554 849 419 694 q 733 1003 689 1003 q 828 949 769 1003 q 747 776 800 928 q 652 442 693 624 q 611 150 611 261 q 623 67 611 94 q 660 40 635 40 q 742 91 694 40 q 844 247 789 142 l 869 221 q 756 31 825 103 q 611 -40 686 -40 q 518 15 547 -40 q 489 175 489 71 q 507 347 489 243 q 308 374 436 358 q 64 -121 179 144 m 521 415 q 586 657 546 532 q 668 881 626 782 q 525 719 607 832 q 353 453 443 607 l 457 431 q 521 415 499 419 m 829 1050 q 781 1065 801 1050 q 872 1131 872 1081 q 842 1169 872 1157 q 744 1182 811 1182 q 765 1235 744 1214 q 824 1256 785 1256 q 901 1225 871 1256 q 932 1149 932 1194 q 903 1077 932 1104 q 829 1050 875 1050 z "},"Ȃ":{"ha":876,"x_min":0,"x_max":985,"o":"m 64 -121 q 0 -35 0 -87 q 56 128 0 18 q 204 382 111 239 q 0 388 121 388 q 161 478 33 478 q 264 469 189 478 q 554 849 419 694 q 733 1003 689 1003 q 828 949 769 1003 q 747 776 800 928 q 652 442 693 624 q 611 150 611 261 q 623 67 611 94 q 660 40 635 40 q 742 91 694 40 q 844 247 789 142 l 869 221 q 756 31 825 103 q 611 -40 686 -40 q 518 15 547 -40 q 489 175 489 71 q 507 347 489 243 q 308 374 436 358 q 64 -121 179 144 m 521 415 q 586 657 546 532 q 668 881 626 782 q 525 719 607 832 q 353 453 443 607 l 457 431 q 521 415 499 419 m 946 1019 q 908 1099 938 1067 q 826 1131 879 1131 q 700 1063 744 1131 q 681 1108 681 1078 q 725 1188 681 1156 q 829 1219 769 1219 q 918 1199 883 1219 q 969 1147 953 1178 q 985 1088 985 1117 q 946 1019 985 1042 z "},"Ā":{"ha":876,"x_min":0,"x_max":1003,"o":"m 64 -121 q 0 -35 0 -87 q 56 128 0 18 q 204 382 111 239 q 0 388 121 388 q 161 478 33 478 q 264 469 189 478 q 554 849 419 694 q 733 1003 689 1003 q 828 949 769 1003 q 747 776 800 928 q 652 442 693 624 q 611 150 611 261 q 623 67 611 94 q 660 40 635 40 q 742 91 694 40 q 844 247 789 142 l 869 221 q 756 31 825 103 q 611 -40 686 -40 q 518 15 547 -40 q 489 175 489 71 q 507 347 489 243 q 308 374 436 358 q 64 -121 179 144 m 521 415 q 586 657 546 532 q 668 881 626 782 q 525 719 607 832 q 353 453 443 607 l 457 431 q 521 415 499 419 m 946 1053 q 856 1063 910 1053 q 714 1092 803 1072 q 596 1115 617 1113 q 665 1157 611 1157 q 828 1137 735 1157 q 1003 1088 921 1117 q 946 1053 986 1053 z "},"Ą":{"ha":876,"x_min":0,"x_max":869,"o":"m 679 -79 q 694 -121 679 -104 q 738 -137 710 -137 q 818 -108 779 -137 q 789 -185 817 -157 q 715 -212 761 -212 q 640 -184 669 -212 q 611 -110 611 -156 q 640 -37 611 -67 q 611 -40 621 -40 q 518 15 547 -40 q 489 175 489 71 q 507 347 489 243 q 308 374 436 358 q 64 -121 179 144 q 0 -35 0 -87 q 56 128 0 18 q 204 382 111 239 q 0 388 121 388 q 161 478 33 478 q 264 469 189 478 q 554 849 419 694 q 733 1003 689 1003 q 828 949 769 1003 q 747 776 800 928 q 652 442 693 624 q 611 150 611 261 q 623 67 611 94 q 660 40 635 40 q 742 91 694 40 q 844 247 789 142 l 869 221 q 801 88 842 146 q 715 -4 761 29 q 679 -79 679 -33 m 521 415 q 586 657 546 532 q 668 881 626 782 q 525 719 607 832 q 353 453 443 607 l 457 431 q 521 415 499 419 z "},"Å":{"ha":876,"x_min":0,"x_max":990,"o":"m 64 -121 q 0 -35 0 -87 q 56 128 0 18 q 204 382 111 239 q 0 388 121 388 q 161 478 33 478 q 264 469 189 478 q 554 849 419 694 q 733 1003 689 1003 q 828 949 769 1003 q 747 776 800 928 q 652 442 693 624 q 611 150 611 261 q 623 67 611 94 q 660 40 635 40 q 742 91 694 40 q 844 247 789 142 l 869 221 q 756 31 825 103 q 611 -40 686 -40 q 518 15 547 -40 q 489 175 489 71 q 507 347 489 243 q 308 374 436 358 q 64 -121 179 144 m 521 415 q 586 657 546 532 q 668 881 626 782 q 525 719 607 832 q 353 453 443 607 l 457 431 q 521 415 499 419 m 813 1047 q 731 1069 758 1047 q 704 1126 704 1092 q 727 1194 704 1158 q 790 1254 750 1231 q 876 1278 829 1278 q 962 1256 933 1278 q 990 1199 990 1233 q 966 1130 990 1165 q 901 1071 942 1094 q 813 1047 860 1047 m 824 1096 q 889 1127 858 1096 q 919 1189 919 1158 q 908 1215 919 1204 q 871 1225 896 1225 q 806 1195 836 1225 q 776 1135 776 1165 q 790 1108 778 1119 q 824 1096 801 1096 z "},"Ǻ":{"ha":876,"x_min":0,"x_max":1104,"o":"m 64 -121 q 0 -35 0 -87 q 56 128 0 18 q 204 382 111 239 q 0 388 121 388 q 161 478 33 478 q 264 469 189 478 q 554 849 419 694 q 733 1003 689 1003 q 828 949 769 1003 q 747 776 800 928 q 652 442 693 624 q 611 150 611 261 q 623 67 611 94 q 660 40 635 40 q 742 91 694 40 q 844 247 789 142 l 869 221 q 756 31 825 103 q 611 -40 686 -40 q 518 15 547 -40 q 489 175 489 71 q 507 347 489 243 q 308 374 436 358 q 64 -121 179 144 m 521 415 q 586 657 546 532 q 668 881 626 782 q 525 719 607 832 q 353 453 443 607 l 457 431 q 521 415 499 419 m 813 1047 q 731 1069 758 1047 q 704 1126 704 1092 q 727 1194 704 1158 q 790 1254 750 1231 q 876 1278 829 1278 q 962 1256 933 1278 q 990 1199 990 1233 q 966 1130 990 1165 q 901 1071 942 1094 q 813 1047 860 1047 m 824 1096 q 889 1127 858 1096 q 919 1189 919 1158 q 908 1215 919 1204 q 871 1225 896 1225 q 806 1195 836 1225 q 776 1135 776 1165 q 790 1108 778 1119 q 824 1096 801 1096 m 953 1317 q 928 1338 938 1324 q 919 1363 919 1353 q 944 1419 919 1379 q 1003 1490 969 1458 q 1063 1522 1036 1522 q 1104 1474 1099 1522 q 1082 1451 1104 1474 q 1010 1381 1043 1415 q 953 1317 976 1347 z "},"Ã":{"ha":876,"x_min":0,"x_max":1043,"o":"m 64 -121 q 0 -35 0 -87 q 56 128 0 18 q 204 382 111 239 q 0 388 121 388 q 161 478 33 478 q 264 469 189 478 q 554 849 419 694 q 733 1003 689 1003 q 828 949 769 1003 q 747 776 800 928 q 652 442 693 624 q 611 150 611 261 q 623 67 611 94 q 660 40 635 40 q 742 91 694 40 q 844 247 789 142 l 869 221 q 756 31 825 103 q 611 -40 686 -40 q 518 15 547 -40 q 489 175 489 71 q 507 347 489 243 q 308 374 436 358 q 64 -121 179 144 m 521 415 q 586 657 546 532 q 668 881 626 782 q 525 719 607 832 q 353 453 443 607 l 457 431 q 521 415 499 419 m 926 1049 q 870 1058 899 1049 q 801 1083 842 1067 q 769 1096 794 1086 q 724 1110 744 1106 q 686 1115 703 1115 q 596 1097 638 1115 q 721 1179 629 1179 q 775 1171 747 1179 q 842 1146 803 1163 q 910 1121 885 1129 q 961 1113 936 1113 q 1043 1126 1003 1113 q 995 1068 1022 1088 q 926 1049 968 1049 z "},"Æ":{"ha":1097,"x_min":-1,"x_max":1196,"o":"m 63 -121 q -1 -36 -1 -87 q 54 128 -1 18 q 203 382 110 239 q 64 388 119 388 l -1 388 q 161 478 32 478 q 263 469 188 478 q 551 847 417 692 q 733 1003 686 1003 q 975 992 838 1003 q 1196 971 1113 982 q 1113 917 1182 932 q 938 903 1044 903 q 793 906 885 903 q 740 772 769 858 q 685 588 710 686 q 801 579 743 586 q 907 565 860 572 l 988 554 q 904 501 972 515 q 729 486 836 486 q 658 488 679 486 q 610 139 610 269 q 614 93 610 131 q 717 81 656 86 q 800 75 779 76 q 1014 50 965 61 q 932 -2 1000 13 q 757 -17 864 -17 q 538 -11 596 -17 q 486 175 486 35 q 506 347 486 240 q 307 374 435 358 q 63 -121 178 144 m 519 415 q 585 657 544 532 q 667 881 625 782 q 524 719 606 832 q 351 453 442 607 q 444 432 372 449 q 519 415 486 422 z "},"Ǽ":{"ha":1097,"x_min":-1,"x_max":1196,"o":"m 63 -121 q -1 -36 -1 -87 q 54 128 -1 18 q 203 382 110 239 q 64 388 119 388 l -1 388 q 161 478 32 478 q 263 469 188 478 q 551 847 417 692 q 733 1003 686 1003 q 975 992 838 1003 q 1196 971 1113 982 q 1113 917 1182 932 q 938 903 1044 903 q 793 906 885 903 q 740 772 769 858 q 685 588 710 686 q 801 579 743 586 q 907 565 860 572 l 988 554 q 904 501 972 515 q 729 486 836 486 q 658 488 679 486 q 610 139 610 269 q 614 93 610 131 q 717 81 656 86 q 800 75 779 76 q 1014 50 965 61 q 932 -2 1000 13 q 757 -17 864 -17 q 538 -11 596 -17 q 486 175 486 35 q 506 347 486 240 q 307 374 435 358 q 63 -121 178 144 m 519 415 q 585 657 544 532 q 667 881 625 782 q 524 719 606 832 q 351 453 442 607 q 444 432 372 449 q 519 415 486 422 m 874 1039 q 849 1060 858 1046 q 840 1085 840 1075 q 865 1141 840 1101 q 924 1213 890 1181 q 983 1244 957 1244 q 1025 1196 1019 1244 q 1003 1174 1025 1196 q 931 1103 964 1138 q 874 1039 897 1069 z "},"B":{"ha":903,"x_min":57,"x_max":857,"o":"m 229 -121 q 101 -92 143 -121 q 57 -1 58 -64 q 72 13 57 13 q 110 6 81 13 q 208 0 140 0 q 495 44 367 0 q 697 158 624 88 q 771 308 771 229 q 669 440 771 406 q 411 474 568 474 l 308 472 q 272 342 288 401 q 243 238 256 282 q 188 33 203 86 q 115 56 146 33 q 85 110 85 78 q 99 174 85 135 l 104 190 l 122 246 q 386 939 276 726 q 243 883 317 924 q 224 874 236 881 q 206 868 211 868 q 171 888 192 868 q 150 922 150 908 q 322 981 246 961 q 500 1000 397 1000 q 743 953 638 1000 q 849 774 849 906 q 765 603 849 667 q 558 511 681 540 q 786 426 715 490 q 857 288 857 363 q 752 68 857 161 q 499 -73 647 -25 q 229 -121 351 -121 m 322 525 q 623 594 503 532 q 743 785 743 656 q 482 951 743 951 q 322 525 404 801 z "},"C":{"ha":792,"x_min":44,"x_max":801,"o":"m 347 -121 q 178 -72 246 -121 q 77 54 110 -24 q 44 222 44 132 q 133 583 44 401 q 358 881 221 764 q 635 999 496 999 q 740 968 700 999 q 779 872 779 938 q 753 744 779 817 q 688 622 728 672 q 608 571 649 571 q 551 614 574 571 q 653 753 604 672 q 703 883 703 833 q 640 938 703 938 q 434 819 543 938 q 252 529 325 701 q 179 210 179 357 q 229 22 179 99 q 381 -54 279 -54 q 528 -13 453 -54 q 665 96 603 28 q 765 243 728 164 l 801 219 q 605 -26 722 69 q 347 -121 488 -121 z "},"Ć":{"ha":792,"x_min":44,"x_max":888,"o":"m 347 -121 q 178 -72 246 -121 q 77 54 110 -24 q 44 222 44 132 q 133 583 44 401 q 358 881 221 764 q 635 999 496 999 q 740 968 700 999 q 779 872 779 938 q 753 744 779 817 q 688 622 728 672 q 608 571 649 571 q 551 614 574 571 q 653 753 604 672 q 703 883 703 833 q 640 938 703 938 q 434 819 543 938 q 252 529 325 701 q 179 210 179 357 q 229 22 179 99 q 381 -54 279 -54 q 528 -13 453 -54 q 665 96 603 28 q 765 243 728 164 l 801 219 q 605 -26 722 69 q 347 -121 488 -121 m 736 1038 q 712 1059 721 1044 q 703 1083 703 1074 q 728 1140 703 1100 q 786 1211 753 1179 q 846 1243 819 1243 q 888 1194 882 1243 q 865 1172 888 1194 q 793 1102 826 1136 q 736 1038 760 1068 z "},"Č":{"ha":792,"x_min":44,"x_max":872,"o":"m 347 -121 q 178 -72 246 -121 q 77 54 110 -24 q 44 222 44 132 q 133 583 44 401 q 358 881 221 764 q 635 999 496 999 q 740 968 700 999 q 779 872 779 938 q 753 744 779 817 q 688 622 728 672 q 608 571 649 571 q 551 614 574 571 q 653 753 604 672 q 703 883 703 833 q 640 938 703 938 q 434 819 543 938 q 252 529 325 701 q 179 210 179 357 q 229 22 179 99 q 381 -54 279 -54 q 528 -13 453 -54 q 665 96 603 28 q 765 243 728 164 l 801 219 q 605 -26 722 69 q 347 -121 488 -121 m 707 1046 q 649 1074 682 1046 q 591 1142 615 1103 q 567 1213 567 1182 q 600 1263 567 1247 q 707 1126 642 1185 q 849 1210 785 1158 q 865 1192 858 1203 q 872 1169 872 1181 q 841 1115 872 1143 q 769 1066 810 1086 q 707 1046 728 1046 z "},"Ç":{"ha":792,"x_min":44,"x_max":801,"o":"m 646 -87 q 700 -106 679 -87 q 721 -157 721 -124 q 695 -233 721 -194 q 627 -298 669 -272 q 538 -324 585 -324 q 472 -306 499 -324 q 446 -267 446 -287 q 457 -238 446 -254 q 490 -207 468 -222 q 546 -269 508 -269 q 594 -249 568 -269 q 640 -202 621 -229 q 658 -154 658 -175 q 636 -132 658 -132 q 606 -141 624 -132 q 572 -161 589 -150 q 553 -173 569 -162 q 526 -183 536 -183 q 506 -172 515 -183 q 497 -149 497 -160 q 519 -114 497 -144 q 565 -54 542 -83 q 347 -121 461 -121 q 178 -72 246 -121 q 77 54 110 -24 q 44 222 44 132 q 133 583 44 401 q 358 881 221 764 q 635 999 496 999 q 740 968 700 999 q 779 872 779 938 q 753 744 779 817 q 688 622 728 672 q 608 571 649 571 q 551 614 574 571 q 653 753 604 672 q 703 883 703 833 q 640 938 703 938 q 434 819 543 938 q 252 529 325 701 q 179 210 179 357 q 229 22 179 99 q 381 -54 279 -54 q 528 -13 453 -54 q 665 96 603 28 q 765 243 728 164 l 801 219 q 636 0 735 90 l 571 -104 q 646 -87 617 -87 z "},"Ĉ":{"ha":792,"x_min":44,"x_max":894,"o":"m 347 -121 q 178 -72 246 -121 q 77 54 110 -24 q 44 222 44 132 q 133 583 44 401 q 358 881 221 764 q 635 999 496 999 q 740 968 700 999 q 779 872 779 938 q 753 744 779 817 q 688 622 728 672 q 608 571 649 571 q 551 614 574 571 q 653 753 604 672 q 703 883 703 833 q 640 938 703 938 q 434 819 543 938 q 252 529 325 701 q 179 210 179 357 q 229 22 179 99 q 381 -54 279 -54 q 528 -13 453 -54 q 665 96 603 28 q 765 243 728 164 l 801 219 q 605 -26 722 69 q 347 -121 488 -121 m 860 1032 q 817 1092 840 1067 q 760 1147 794 1117 q 618 1075 696 1126 q 604 1092 608 1081 q 600 1114 600 1104 q 631 1167 600 1139 q 701 1214 661 1194 q 761 1233 740 1233 q 815 1208 783 1233 q 871 1149 847 1183 q 894 1086 894 1114 q 886 1056 894 1071 q 860 1032 878 1040 z "},"Ċ":{"ha":792,"x_min":44,"x_max":808,"o":"m 347 -121 q 178 -72 246 -121 q 77 54 110 -24 q 44 222 44 132 q 133 583 44 401 q 358 881 221 764 q 635 999 496 999 q 740 968 700 999 q 779 872 779 938 q 753 744 779 817 q 688 622 728 672 q 608 571 649 571 q 551 614 574 571 q 653 753 604 672 q 703 883 703 833 q 640 938 703 938 q 434 819 543 938 q 252 529 325 701 q 179 210 179 357 q 229 22 179 99 q 381 -54 279 -54 q 528 -13 453 -54 q 665 96 603 28 q 765 243 728 164 l 801 219 q 605 -26 722 69 q 347 -121 488 -121 m 719 1063 q 674 1077 692 1063 q 657 1118 657 1092 q 688 1168 657 1147 q 753 1189 718 1189 q 794 1176 781 1189 q 808 1139 808 1163 q 781 1086 808 1110 q 719 1063 753 1063 z "},"D":{"ha":954,"x_min":97,"x_max":953,"o":"m 265 -121 q 169 -106 210 -121 q 97 -51 128 -92 q 152 175 104 10 q 256 514 200 340 q 335 746 313 688 q 381 835 351 790 q 453 881 411 881 q 506 861 476 881 q 338 407 422 671 q 210 -61 254 143 q 279 -69 233 -69 q 549 41 422 -69 q 753 315 676 151 q 829 625 829 478 q 749 865 829 786 q 533 943 668 943 q 371 910 443 943 q 258 821 299 878 q 217 693 217 764 q 229 626 217 656 q 145 651 172 626 q 118 715 118 675 q 181 847 118 781 q 349 957 243 914 q 579 1000 456 1000 q 862 893 771 1000 q 953 611 953 786 q 853 249 953 418 q 593 -20 753 81 q 265 -121 433 -121 z "},"Ǆ":{"ha":1876,"x_min":97,"x_max":1928,"o":"m 265 -121 q 169 -106 210 -121 q 97 -51 128 -92 q 152 175 104 10 q 256 514 200 340 q 335 746 313 688 q 381 835 351 790 q 453 881 411 881 q 506 861 476 881 q 338 407 422 671 q 210 -61 254 143 q 279 -69 233 -69 q 549 41 422 -69 q 753 315 676 151 q 829 625 829 478 q 749 865 829 786 q 533 943 668 943 q 371 910 443 943 q 258 821 299 878 q 217 693 217 764 q 229 626 217 656 q 145 651 172 626 q 118 715 118 675 q 181 847 118 781 q 349 957 243 914 q 579 1000 456 1000 q 862 893 771 1000 q 953 611 953 786 q 853 249 953 418 q 593 -20 753 81 q 265 -121 433 -121 m 1613 -121 q 1473 -94 1546 -121 q 1297 -21 1400 -68 l 1250 0 q 1065 -75 1146 -75 q 990 -57 1022 -75 q 939 -10 957 -39 q 921 46 921 18 q 949 103 921 81 q 1039 125 976 125 q 1235 90 1106 125 q 1496 436 1353 208 q 1267 413 1407 432 q 1328 504 1269 478 q 1486 531 1388 531 q 1550 528 1508 531 q 1706 833 1657 710 q 1594 871 1658 847 q 1422 926 1488 910 q 1314 942 1357 942 q 1201 899 1242 942 q 1161 756 1161 857 q 1166 726 1163 749 q 1174 696 1169 704 q 1071 806 1071 714 q 1144 950 1071 900 q 1356 1000 1217 1000 q 1494 988 1429 1000 q 1644 951 1558 975 q 1763 922 1714 932 q 1858 913 1811 913 q 1928 918 1904 913 q 1840 850 1879 869 q 1668 518 1774 694 q 1724 513 1706 515 q 1826 507 1799 507 q 1781 462 1803 475 q 1727 444 1760 449 q 1621 439 1694 440 q 1328 65 1471 203 q 1519 13 1438 32 q 1660 -6 1601 -6 q 1785 25 1722 -6 q 1715 -88 1754 -56 q 1613 -121 1675 -121 m 1054 -29 q 1102 -15 1076 -29 q 1169 32 1128 0 q 1082 63 1115 53 q 1022 74 1049 74 q 981 63 994 74 q 967 38 967 53 q 992 -8 967 14 q 1054 -29 1018 -29 m 1585 1047 q 1526 1076 1560 1047 q 1469 1144 1493 1104 q 1444 1214 1444 1183 q 1478 1264 1444 1249 q 1585 1128 1519 1186 q 1726 1211 1663 1160 q 1743 1193 1736 1204 q 1750 1171 1750 1182 q 1719 1116 1750 1144 q 1647 1067 1688 1088 q 1585 1047 1606 1047 z "},"Ð":{"ha":956,"x_min":39,"x_max":953,"o":"m 267 -121 q 169 -106 211 -121 q 97 -51 128 -92 q 214 386 132 121 q 39 368 160 385 q 110 432 61 413 q 236 456 160 451 q 335 746 296 647 q 381 835 351 790 q 453 881 411 881 q 506 861 476 881 q 354 458 426 683 q 608 444 438 458 q 432 388 525 388 l 332 388 q 210 -61 253 140 q 263 -65 242 -65 q 538 36 407 -65 q 749 297 669 138 q 829 619 829 456 q 749 862 829 781 q 532 943 669 943 q 371 910 443 943 q 258 820 299 878 q 217 693 217 763 q 229 626 217 656 q 145 651 172 626 q 118 715 118 675 q 181 847 118 781 q 349 957 243 914 q 576 1000 454 1000 q 861 890 769 1000 q 953 604 953 781 q 853 244 953 411 q 594 -22 753 76 q 267 -121 435 -121 z "},"Ď":{"ha":954,"x_min":97,"x_max":953,"o":"m 265 -121 q 169 -106 210 -121 q 97 -51 128 -92 q 152 175 104 10 q 256 514 200 340 q 335 746 313 688 q 381 835 351 790 q 453 881 411 881 q 506 861 476 881 q 338 407 422 671 q 210 -61 254 143 q 279 -69 233 -69 q 549 41 422 -69 q 753 315 676 151 q 829 625 829 478 q 749 865 829 786 q 533 943 668 943 q 371 910 443 943 q 258 821 299 878 q 217 693 217 764 q 229 626 217 656 q 145 651 172 626 q 118 715 118 675 q 181 847 118 781 q 349 957 243 914 q 579 1000 456 1000 q 862 893 771 1000 q 953 611 953 786 q 853 249 953 418 q 593 -20 753 81 q 265 -121 433 -121 m 726 1047 q 668 1076 701 1047 q 610 1144 635 1104 q 586 1214 586 1183 q 619 1264 586 1249 q 726 1128 661 1186 q 868 1211 804 1160 q 885 1193 878 1204 q 892 1171 892 1182 q 860 1116 892 1144 q 788 1067 829 1088 q 726 1047 747 1047 z "},"Đ":{"ha":956,"x_min":39,"x_max":953,"o":"m 267 -121 q 169 -106 211 -121 q 97 -51 128 -92 q 214 386 132 121 q 39 368 160 385 q 110 432 61 413 q 236 456 160 451 q 335 746 296 647 q 381 835 351 790 q 453 881 411 881 q 506 861 476 881 q 354 458 426 683 q 608 444 438 458 q 432 388 525 388 l 332 388 q 210 -61 253 140 q 263 -65 242 -65 q 538 36 407 -65 q 749 297 669 138 q 829 619 829 456 q 749 862 829 781 q 532 943 669 943 q 371 910 443 943 q 258 820 299 878 q 217 693 217 763 q 229 626 217 656 q 145 651 172 626 q 118 715 118 675 q 181 847 118 781 q 349 957 243 914 q 576 1000 454 1000 q 861 890 769 1000 q 953 604 953 781 q 853 244 953 411 q 594 -22 753 76 q 267 -121 435 -121 z "},"ǅ":{"ha":1386,"x_min":97,"x_max":1438,"o":"m 265 -121 q 169 -106 210 -121 q 97 -51 128 -92 q 152 175 104 10 q 256 514 200 340 q 335 746 313 688 q 381 835 351 790 q 453 881 411 881 q 506 861 476 881 q 338 407 422 671 q 210 -61 254 143 q 279 -69 233 -69 q 549 41 422 -69 q 753 315 676 151 q 829 625 829 478 q 749 865 829 786 q 533 943 668 943 q 371 910 443 943 q 258 821 299 878 q 217 693 217 764 q 229 626 217 656 q 145 651 172 626 q 118 715 118 675 q 181 847 118 781 q 349 957 243 914 q 579 1000 456 1000 q 862 893 771 1000 q 953 611 953 786 q 853 249 953 418 q 593 -20 753 81 q 265 -121 433 -121 m 938 -389 q 832 -308 832 -389 q 861 -226 832 -264 q 934 -158 890 -189 q 1060 -81 978 -128 q 1179 -8 1132 -39 q 1150 78 1176 38 q 1063 163 1124 118 q 1152 208 1114 176 q 1210 281 1190 240 q 1231 357 1231 321 q 1217 403 1231 385 q 1174 422 1204 422 q 1069 357 1117 422 q 964 171 1021 292 l 938 193 q 1048 414 990 338 q 1194 490 1106 490 q 1293 458 1254 490 q 1332 365 1332 425 q 1288 243 1332 301 q 1175 150 1243 185 q 1265 36 1235 103 q 1419 231 1378 122 l 1438 208 q 1376 94 1417 147 q 1279 0 1335 42 q 1285 -46 1285 -25 q 1236 -206 1285 -126 q 1107 -337 1188 -286 q 938 -389 1026 -389 m 918 -336 q 1012 -301 954 -336 q 1117 -204 1069 -267 q 1176 -64 1165 -142 l 1079 -121 q 927 -220 974 -183 q 881 -299 881 -257 q 891 -327 881 -318 q 918 -336 901 -336 m 1267 590 q 1208 619 1242 590 q 1151 687 1175 647 q 1126 757 1126 726 q 1160 807 1126 792 q 1267 671 1201 729 q 1408 754 1344 703 q 1425 736 1418 747 q 1432 714 1432 725 q 1401 659 1432 688 q 1328 610 1369 631 q 1267 590 1288 590 z "},"E":{"ha":740,"x_min":-6,"x_max":750,"o":"m 290 -121 q 136 -86 204 -121 q 31 8 68 -51 q -6 140 -6 68 q 41 299 -6 222 q 168 431 88 376 q 349 499 249 485 q 274 596 300 542 q 249 708 249 650 q 287 849 249 782 q 394 958 325 917 q 550 999 463 999 q 681 958 635 999 q 726 839 726 917 q 708 738 726 788 q 660 656 689 688 q 607 625 632 625 q 540 682 572 625 q 663 868 663 782 q 635 931 663 908 q 563 953 608 953 q 460 916 503 953 q 394 820 417 879 q 372 696 372 761 q 397 572 372 631 q 475 471 421 513 q 303 403 378 456 q 188 280 229 351 q 147 138 147 208 q 166 46 147 90 q 225 -28 185 1 q 328 -58 265 -58 q 476 -17 401 -58 q 613 94 550 25 q 713 243 675 164 l 750 219 q 550 -28 668 65 q 290 -121 432 -121 z "},"É":{"ha":740,"x_min":-6,"x_max":788,"o":"m 290 -121 q 136 -86 204 -121 q 31 8 68 -51 q -6 140 -6 68 q 41 299 -6 222 q 168 431 88 376 q 349 499 249 485 q 274 596 300 542 q 249 708 249 650 q 287 849 249 782 q 394 958 325 917 q 550 999 463 999 q 681 958 635 999 q 726 839 726 917 q 708 738 726 788 q 660 656 689 688 q 607 625 632 625 q 540 682 572 625 q 663 868 663 782 q 635 931 663 908 q 563 953 608 953 q 460 916 503 953 q 394 820 417 879 q 372 696 372 761 q 397 572 372 631 q 475 471 421 513 q 303 403 378 456 q 188 280 229 351 q 147 138 147 208 q 166 46 147 90 q 225 -28 185 1 q 328 -58 265 -58 q 476 -17 401 -58 q 613 94 550 25 q 713 243 675 164 l 750 219 q 550 -28 668 65 q 290 -121 432 -121 m 636 1039 q 612 1060 621 1046 q 603 1085 603 1075 q 628 1141 603 1101 q 686 1213 653 1181 q 746 1244 719 1244 q 788 1196 782 1244 q 765 1174 788 1196 q 693 1103 726 1138 q 636 1039 660 1069 z "},"Ĕ":{"ha":740,"x_min":-6,"x_max":819,"o":"m 290 -121 q 136 -86 204 -121 q 31 8 68 -51 q -6 140 -6 68 q 41 299 -6 222 q 168 431 88 376 q 349 499 249 485 q 274 596 300 542 q 249 708 249 650 q 287 849 249 782 q 394 958 325 917 q 550 999 463 999 q 681 958 635 999 q 726 839 726 917 q 708 738 726 788 q 660 656 689 688 q 607 625 632 625 q 540 682 572 625 q 663 868 663 782 q 635 931 663 908 q 563 953 608 953 q 460 916 503 953 q 394 820 417 879 q 372 696 372 761 q 397 572 372 631 q 475 471 421 513 q 303 403 378 456 q 188 280 229 351 q 147 138 147 208 q 166 46 147 90 q 225 -28 185 1 q 328 -58 265 -58 q 476 -17 401 -58 q 613 94 550 25 q 713 243 675 164 l 750 219 q 550 -28 668 65 q 290 -121 432 -121 m 671 1053 q 582 1074 617 1053 q 531 1125 547 1094 q 515 1185 515 1156 q 554 1253 515 1231 q 592 1174 563 1206 q 674 1142 621 1142 q 800 1210 756 1142 q 819 1164 819 1194 q 775 1085 819 1117 q 671 1053 731 1053 z "},"Ě":{"ha":740,"x_min":-6,"x_max":772,"o":"m 290 -121 q 136 -86 204 -121 q 31 8 68 -51 q -6 140 -6 68 q 41 299 -6 222 q 168 431 88 376 q 349 499 249 485 q 274 596 300 542 q 249 708 249 650 q 287 849 249 782 q 394 958 325 917 q 550 999 463 999 q 681 958 635 999 q 726 839 726 917 q 708 738 726 788 q 660 656 689 688 q 607 625 632 625 q 540 682 572 625 q 663 868 663 782 q 635 931 663 908 q 563 953 608 953 q 460 916 503 953 q 394 820 417 879 q 372 696 372 761 q 397 572 372 631 q 475 471 421 513 q 303 403 378 456 q 188 280 229 351 q 147 138 147 208 q 166 46 147 90 q 225 -28 185 1 q 328 -58 265 -58 q 476 -17 401 -58 q 613 94 550 25 q 713 243 675 164 l 750 219 q 550 -28 668 65 q 290 -121 432 -121 m 607 1047 q 549 1076 582 1047 q 491 1144 515 1104 q 467 1214 467 1183 q 500 1264 467 1249 q 607 1128 542 1186 q 749 1211 685 1160 q 765 1193 758 1204 q 772 1171 772 1182 q 741 1116 772 1144 q 669 1067 710 1088 q 607 1047 628 1047 z "},"Ê":{"ha":740,"x_min":-6,"x_max":794,"o":"m 290 -121 q 136 -86 204 -121 q 31 8 68 -51 q -6 140 -6 68 q 41 299 -6 222 q 168 431 88 376 q 349 499 249 485 q 274 596 300 542 q 249 708 249 650 q 287 849 249 782 q 394 958 325 917 q 550 999 463 999 q 681 958 635 999 q 726 839 726 917 q 708 738 726 788 q 660 656 689 688 q 607 625 632 625 q 540 682 572 625 q 663 868 663 782 q 635 931 663 908 q 563 953 608 953 q 460 916 503 953 q 394 820 417 879 q 372 696 372 761 q 397 572 372 631 q 475 471 421 513 q 303 403 378 456 q 188 280 229 351 q 147 138 147 208 q 166 46 147 90 q 225 -28 185 1 q 328 -58 265 -58 q 476 -17 401 -58 q 613 94 550 25 q 713 243 675 164 l 750 219 q 550 -28 668 65 q 290 -121 432 -121 m 760 1033 q 717 1093 740 1068 q 660 1149 694 1118 q 518 1076 596 1128 q 504 1094 508 1082 q 500 1115 500 1106 q 531 1168 500 1140 q 601 1215 561 1196 q 661 1235 640 1235 q 715 1210 683 1235 q 771 1150 747 1185 q 794 1088 794 1115 q 786 1057 794 1072 q 760 1033 778 1042 z "},"Ế":{"ha":740,"x_min":-6,"x_max":964,"o":"m 290 -121 q 136 -86 204 -121 q 31 8 68 -51 q -6 140 -6 68 q 41 299 -6 222 q 168 431 88 376 q 349 499 249 485 q 274 596 300 542 q 249 708 249 650 q 287 849 249 782 q 394 958 325 917 q 550 999 463 999 q 681 958 635 999 q 726 839 726 917 q 708 738 726 788 q 660 656 689 688 q 607 625 632 625 q 540 682 572 625 q 663 868 663 782 q 635 931 663 908 q 563 953 608 953 q 460 916 503 953 q 394 820 417 879 q 372 696 372 761 q 397 572 372 631 q 475 471 421 513 q 303 403 378 456 q 188 280 229 351 q 147 138 147 208 q 166 46 147 90 q 225 -28 185 1 q 328 -58 265 -58 q 476 -17 401 -58 q 613 94 550 25 q 713 243 675 164 l 750 219 q 550 -28 668 65 q 290 -121 432 -121 m 828 1169 q 794 1215 794 1183 q 816 1267 794 1233 q 867 1328 838 1301 q 922 1354 897 1354 q 964 1306 958 1354 q 896 1242 939 1285 q 828 1169 853 1200 m 760 1033 q 717 1093 740 1068 q 660 1149 694 1118 q 518 1076 596 1128 q 504 1094 508 1082 q 500 1115 500 1106 q 531 1168 500 1140 q 601 1215 561 1196 q 661 1235 640 1235 q 715 1210 683 1235 q 771 1150 747 1185 q 794 1088 794 1115 q 786 1057 794 1072 q 760 1033 778 1042 z "},"Ệ":{"ha":740,"x_min":-6,"x_max":794,"o":"m 290 -121 q 136 -86 204 -121 q 31 8 68 -51 q -6 140 -6 68 q 41 299 -6 222 q 168 431 88 376 q 349 499 249 485 q 274 596 300 542 q 249 708 249 650 q 287 849 249 782 q 394 958 325 917 q 550 999 463 999 q 681 958 635 999 q 726 839 726 917 q 708 738 726 788 q 660 656 689 688 q 607 625 632 625 q 540 682 572 625 q 663 868 663 782 q 635 931 663 908 q 563 953 608 953 q 460 916 503 953 q 394 820 417 879 q 372 696 372 761 q 397 572 372 631 q 475 471 421 513 q 303 403 378 456 q 188 280 229 351 q 147 138 147 208 q 166 46 147 90 q 225 -28 185 1 q 328 -58 265 -58 q 476 -17 401 -58 q 613 94 550 25 q 713 243 675 164 l 750 219 q 550 -28 668 65 q 290 -121 432 -121 m 760 1033 q 717 1093 740 1068 q 660 1149 694 1118 q 518 1076 596 1128 q 504 1094 508 1082 q 500 1115 500 1106 q 531 1168 500 1140 q 601 1215 561 1196 q 661 1235 640 1235 q 715 1210 683 1235 q 771 1150 747 1185 q 794 1088 794 1115 q 786 1057 794 1072 q 760 1033 778 1042 m 233 -349 q 188 -334 206 -349 q 171 -293 171 -319 q 201 -243 171 -264 q 267 -222 232 -222 q 308 -235 294 -222 q 322 -272 322 -249 q 294 -326 322 -303 q 233 -349 267 -349 z "},"Ề":{"ha":740,"x_min":-6,"x_max":871,"o":"m 290 -121 q 136 -86 204 -121 q 31 8 68 -51 q -6 140 -6 68 q 41 299 -6 222 q 168 431 88 376 q 349 499 249 485 q 274 596 300 542 q 249 708 249 650 q 287 849 249 782 q 394 958 325 917 q 550 999 463 999 q 681 958 635 999 q 726 839 726 917 q 708 738 726 788 q 660 656 689 688 q 607 625 632 625 q 540 682 572 625 q 663 868 663 782 q 635 931 663 908 q 563 953 608 953 q 460 916 503 953 q 394 820 417 879 q 372 696 372 761 q 397 572 372 631 q 475 471 421 513 q 303 403 378 456 q 188 280 229 351 q 147 138 147 208 q 166 46 147 90 q 225 -28 185 1 q 328 -58 265 -58 q 476 -17 401 -58 q 613 94 550 25 q 713 243 675 164 l 750 219 q 550 -28 668 65 q 290 -121 432 -121 m 839 1165 q 781 1244 818 1197 q 719 1317 743 1292 q 761 1356 729 1356 q 811 1327 786 1356 q 853 1261 836 1299 q 871 1206 871 1224 q 839 1165 871 1176 m 760 1033 q 717 1093 740 1068 q 660 1149 694 1118 q 518 1076 596 1128 q 504 1094 508 1082 q 500 1115 500 1106 q 531 1168 500 1140 q 601 1215 561 1196 q 661 1235 640 1235 q 715 1210 683 1235 q 771 1150 747 1185 q 794 1088 794 1115 q 786 1057 794 1072 q 760 1033 778 1042 z "},"Ể":{"ha":740,"x_min":-6,"x_max":938,"o":"m 290 -121 q 136 -86 204 -121 q 31 8 68 -51 q -6 140 -6 68 q 41 299 -6 222 q 168 431 88 376 q 349 499 249 485 q 274 596 300 542 q 249 708 249 650 q 287 849 249 782 q 394 958 325 917 q 550 999 463 999 q 681 958 635 999 q 726 839 726 917 q 708 738 726 788 q 660 656 689 688 q 607 625 632 625 q 540 682 572 625 q 663 868 663 782 q 635 931 663 908 q 563 953 608 953 q 460 916 503 953 q 394 820 417 879 q 372 696 372 761 q 397 572 372 631 q 475 471 421 513 q 303 403 378 456 q 188 280 229 351 q 147 138 147 208 q 166 46 147 90 q 225 -28 185 1 q 328 -58 265 -58 q 476 -17 401 -58 q 613 94 550 25 q 713 243 675 164 l 750 219 q 550 -28 668 65 q 290 -121 432 -121 m 857 1158 q 811 1169 833 1158 q 878 1226 878 1185 q 750 1286 878 1286 q 770 1339 750 1318 q 829 1360 790 1360 q 907 1327 876 1360 q 938 1246 938 1294 q 915 1183 938 1207 q 857 1158 893 1158 m 760 1033 q 717 1093 740 1068 q 660 1149 694 1118 q 518 1076 596 1128 q 504 1094 508 1082 q 500 1115 500 1106 q 531 1168 500 1140 q 601 1215 561 1196 q 661 1235 640 1235 q 715 1210 683 1235 q 771 1150 747 1185 q 794 1088 794 1115 q 786 1057 794 1072 q 760 1033 778 1042 z "},"Ễ":{"ha":740,"x_min":-6,"x_max":925,"o":"m 290 -121 q 136 -86 204 -121 q 31 8 68 -51 q -6 140 -6 68 q 41 299 -6 222 q 168 431 88 376 q 349 499 249 485 q 274 596 300 542 q 249 708 249 650 q 287 849 249 782 q 394 958 325 917 q 550 999 463 999 q 681 958 635 999 q 726 839 726 917 q 708 738 726 788 q 660 656 689 688 q 607 625 632 625 q 540 682 572 625 q 663 868 663 782 q 635 931 663 908 q 563 953 608 953 q 460 916 503 953 q 394 820 417 879 q 372 696 372 761 q 397 572 372 631 q 475 471 421 513 q 303 403 378 456 q 188 280 229 351 q 147 138 147 208 q 166 46 147 90 q 225 -28 185 1 q 328 -58 265 -58 q 476 -17 401 -58 q 613 94 550 25 q 713 243 675 164 l 750 219 q 550 -28 668 65 q 290 -121 432 -121 m 671 1053 q 582 1074 617 1053 q 531 1125 547 1094 q 515 1185 515 1156 q 554 1253 515 1231 q 592 1174 563 1206 q 674 1142 621 1142 q 800 1210 756 1142 q 819 1164 819 1194 q 775 1085 819 1117 q 671 1053 731 1053 m 808 1238 q 752 1247 781 1238 q 683 1272 724 1256 q 651 1285 676 1275 q 606 1299 626 1294 q 568 1304 585 1304 q 478 1286 519 1304 q 603 1368 511 1368 q 657 1360 629 1368 q 724 1335 685 1351 q 792 1310 767 1318 q 843 1301 818 1301 q 925 1315 885 1301 q 877 1257 904 1276 q 808 1238 850 1238 z "},"Ȅ":{"ha":740,"x_min":-6,"x_max":750,"o":"m 290 -121 q 136 -86 204 -121 q 31 8 68 -51 q -6 140 -6 68 q 41 299 -6 222 q 168 431 88 376 q 349 499 249 485 q 274 596 300 542 q 249 708 249 650 q 287 849 249 782 q 394 958 325 917 q 550 999 463 999 q 681 958 635 999 q 726 839 726 917 q 708 738 726 788 q 660 656 689 688 q 607 625 632 625 q 540 682 572 625 q 663 868 663 782 q 635 931 663 908 q 563 953 608 953 q 460 916 503 953 q 394 820 417 879 q 372 696 372 761 q 397 572 372 631 q 475 471 421 513 q 303 403 378 456 q 188 280 229 351 q 147 138 147 208 q 166 46 147 90 q 225 -28 185 1 q 328 -58 265 -58 q 476 -17 401 -58 q 613 94 550 25 q 713 243 675 164 l 750 219 q 550 -28 668 65 q 290 -121 432 -121 m 578 1046 q 435 1219 511 1135 q 460 1239 449 1232 q 488 1246 472 1246 q 537 1215 510 1246 q 583 1144 564 1183 q 603 1088 603 1104 q 597 1063 603 1075 q 578 1046 590 1051 m 678 1047 q 575 1206 629 1138 q 622 1242 592 1242 q 667 1215 647 1242 q 700 1153 688 1189 q 713 1096 713 1118 q 703 1062 713 1074 q 678 1047 693 1050 z "},"Ë":{"ha":740,"x_min":-6,"x_max":822,"o":"m 290 -121 q 136 -86 204 -121 q 31 8 68 -51 q -6 140 -6 68 q 41 299 -6 222 q 168 431 88 376 q 349 499 249 485 q 274 596 300 542 q 249 708 249 650 q 287 849 249 782 q 394 958 325 917 q 550 999 463 999 q 681 958 635 999 q 726 839 726 917 q 708 738 726 788 q 660 656 689 688 q 607 625 632 625 q 540 682 572 625 q 663 868 663 782 q 635 931 663 908 q 563 953 608 953 q 460 916 503 953 q 394 820 417 879 q 372 696 372 761 q 397 572 372 631 q 475 471 421 513 q 303 403 378 456 q 188 280 229 351 q 147 138 147 208 q 166 46 147 90 q 225 -28 185 1 q 328 -58 265 -58 q 476 -17 401 -58 q 613 94 550 25 q 713 243 675 164 l 750 219 q 550 -28 668 65 q 290 -121 432 -121 m 536 1074 q 494 1085 511 1074 q 476 1121 476 1097 q 507 1167 476 1146 q 569 1188 538 1188 q 619 1143 619 1188 q 593 1096 619 1118 q 536 1074 567 1074 m 736 1046 q 695 1058 713 1046 q 678 1093 678 1071 q 708 1140 678 1119 q 771 1160 738 1160 q 822 1114 822 1160 q 795 1068 822 1090 q 736 1046 768 1046 z "},"Ė":{"ha":740,"x_min":-6,"x_max":750,"o":"m 290 -121 q 136 -86 204 -121 q 31 8 68 -51 q -6 140 -6 68 q 41 299 -6 222 q 168 431 88 376 q 349 499 249 485 q 274 596 300 542 q 249 708 249 650 q 287 849 249 782 q 394 958 325 917 q 550 999 463 999 q 681 958 635 999 q 726 839 726 917 q 708 738 726 788 q 660 656 689 688 q 607 625 632 625 q 540 682 572 625 q 663 868 663 782 q 635 931 663 908 q 563 953 608 953 q 460 916 503 953 q 394 820 417 879 q 372 696 372 761 q 397 572 372 631 q 475 471 421 513 q 303 403 378 456 q 188 280 229 351 q 147 138 147 208 q 166 46 147 90 q 225 -28 185 1 q 328 -58 265 -58 q 476 -17 401 -58 q 613 94 550 25 q 713 243 675 164 l 750 219 q 550 -28 668 65 q 290 -121 432 -121 m 619 1064 q 574 1078 592 1064 q 557 1119 557 1093 q 588 1169 557 1149 q 653 1190 618 1190 q 694 1177 681 1190 q 708 1140 708 1164 q 681 1088 708 1111 q 619 1064 653 1064 z "},"Ẹ":{"ha":740,"x_min":-6,"x_max":750,"o":"m 290 -121 q 136 -86 204 -121 q 31 8 68 -51 q -6 140 -6 68 q 41 299 -6 222 q 168 431 88 376 q 349 499 249 485 q 274 596 300 542 q 249 708 249 650 q 287 849 249 782 q 394 958 325 917 q 550 999 463 999 q 681 958 635 999 q 726 839 726 917 q 708 738 726 788 q 660 656 689 688 q 607 625 632 625 q 540 682 572 625 q 663 868 663 782 q 635 931 663 908 q 563 953 608 953 q 460 916 503 953 q 394 820 417 879 q 372 696 372 761 q 397 572 372 631 q 475 471 421 513 q 303 403 378 456 q 188 280 229 351 q 147 138 147 208 q 166 46 147 90 q 225 -28 185 1 q 328 -58 265 -58 q 476 -17 401 -58 q 613 94 550 25 q 713 243 675 164 l 750 219 q 550 -28 668 65 q 290 -121 432 -121 m 233 -349 q 188 -334 206 -349 q 171 -293 171 -319 q 201 -243 171 -264 q 267 -222 232 -222 q 308 -235 294 -222 q 322 -272 322 -249 q 294 -326 322 -303 q 233 -349 267 -349 z "},"È":{"ha":740,"x_min":-6,"x_max":750,"o":"m 290 -121 q 136 -86 204 -121 q 31 8 68 -51 q -6 140 -6 68 q 41 299 -6 222 q 168 431 88 376 q 349 499 249 485 q 274 596 300 542 q 249 708 249 650 q 287 849 249 782 q 394 958 325 917 q 550 999 463 999 q 681 958 635 999 q 726 839 726 917 q 708 738 726 788 q 660 656 689 688 q 607 625 632 625 q 540 682 572 625 q 663 868 663 782 q 635 931 663 908 q 563 953 608 953 q 460 916 503 953 q 394 820 417 879 q 372 696 372 761 q 397 572 372 631 q 475 471 421 513 q 303 403 378 456 q 188 280 229 351 q 147 138 147 208 q 166 46 147 90 q 225 -28 185 1 q 328 -58 265 -58 q 476 -17 401 -58 q 613 94 550 25 q 713 243 675 164 l 750 219 q 550 -28 668 65 q 290 -121 432 -121 m 625 1039 q 463 1192 557 1119 q 477 1232 464 1218 q 507 1246 490 1246 q 569 1215 533 1246 q 633 1146 606 1185 q 660 1089 660 1107 q 650 1061 660 1076 q 625 1039 640 1046 z "},"Ẻ":{"ha":740,"x_min":-6,"x_max":750,"o":"m 290 -121 q 136 -86 204 -121 q 31 8 68 -51 q -6 140 -6 68 q 41 299 -6 222 q 168 431 88 376 q 349 499 249 485 q 274 596 300 542 q 249 708 249 650 q 287 849 249 782 q 394 958 325 917 q 550 999 463 999 q 681 958 635 999 q 726 839 726 917 q 708 738 726 788 q 660 656 689 688 q 607 625 632 625 q 540 682 572 625 q 663 868 663 782 q 635 931 663 908 q 563 953 608 953 q 460 916 503 953 q 394 820 417 879 q 372 696 372 761 q 397 572 372 631 q 475 471 421 513 q 303 403 378 456 q 188 280 229 351 q 147 138 147 208 q 166 46 147 90 q 225 -28 185 1 q 328 -58 265 -58 q 476 -17 401 -58 q 613 94 550 25 q 713 243 675 164 l 750 219 q 550 -28 668 65 q 290 -121 432 -121 m 639 1050 q 590 1065 611 1050 q 682 1131 682 1081 q 651 1169 682 1157 q 554 1182 621 1182 q 574 1235 554 1214 q 633 1256 594 1256 q 711 1225 681 1256 q 742 1149 742 1194 q 713 1077 742 1104 q 639 1050 685 1050 z "},"Ȇ":{"ha":740,"x_min":-6,"x_max":794,"o":"m 290 -121 q 136 -86 204 -121 q 31 8 68 -51 q -6 140 -6 68 q 41 299 -6 222 q 168 431 88 376 q 349 499 249 485 q 274 596 300 542 q 249 708 249 650 q 287 849 249 782 q 394 958 325 917 q 550 999 463 999 q 681 958 635 999 q 726 839 726 917 q 708 738 726 788 q 660 656 689 688 q 607 625 632 625 q 540 682 572 625 q 663 868 663 782 q 635 931 663 908 q 563 953 608 953 q 460 916 503 953 q 394 820 417 879 q 372 696 372 761 q 397 572 372 631 q 475 471 421 513 q 303 403 378 456 q 188 280 229 351 q 147 138 147 208 q 166 46 147 90 q 225 -28 185 1 q 328 -58 265 -58 q 476 -17 401 -58 q 613 94 550 25 q 713 243 675 164 l 750 219 q 550 -28 668 65 q 290 -121 432 -121 m 756 1019 q 718 1099 747 1067 q 636 1131 689 1131 q 510 1063 554 1131 q 490 1108 490 1078 q 535 1188 490 1156 q 639 1219 579 1219 q 728 1199 693 1219 q 778 1147 763 1178 q 794 1088 794 1117 q 756 1019 794 1042 z "},"Ē":{"ha":740,"x_min":-6,"x_max":813,"o":"m 290 -121 q 136 -86 204 -121 q 31 8 68 -51 q -6 140 -6 68 q 41 299 -6 222 q 168 431 88 376 q 349 499 249 485 q 274 596 300 542 q 249 708 249 650 q 287 849 249 782 q 394 958 325 917 q 550 999 463 999 q 681 958 635 999 q 726 839 726 917 q 708 738 726 788 q 660 656 689 688 q 607 625 632 625 q 540 682 572 625 q 663 868 663 782 q 635 931 663 908 q 563 953 608 953 q 460 916 503 953 q 394 820 417 879 q 372 696 372 761 q 397 572 372 631 q 475 471 421 513 q 303 403 378 456 q 188 280 229 351 q 147 138 147 208 q 166 46 147 90 q 225 -28 185 1 q 328 -58 265 -58 q 476 -17 401 -58 q 613 94 550 25 q 713 243 675 164 l 750 219 q 550 -28 668 65 q 290 -121 432 -121 m 756 1053 q 666 1063 719 1053 q 524 1092 613 1072 q 406 1115 426 1113 q 475 1157 421 1157 q 638 1137 544 1157 q 813 1088 731 1117 q 756 1053 796 1053 z "},"Ę":{"ha":740,"x_min":-6,"x_max":750,"o":"m 494 -118 q 510 -160 494 -143 q 553 -176 525 -176 q 633 -147 594 -176 q 604 -224 632 -196 q 531 -251 576 -251 q 456 -223 485 -251 q 426 -149 426 -194 q 444 -90 426 -115 q 290 -121 368 -121 q 136 -86 204 -121 q 31 8 68 -51 q -6 140 -6 68 q 41 299 -6 222 q 168 431 88 376 q 349 499 249 485 q 274 596 300 542 q 249 708 249 650 q 287 849 249 782 q 394 958 325 917 q 550 999 463 999 q 681 958 635 999 q 726 839 726 917 q 708 738 726 788 q 660 656 689 688 q 607 625 632 625 q 540 682 572 625 q 663 868 663 782 q 635 931 663 908 q 563 953 608 953 q 460 916 503 953 q 394 820 417 879 q 372 696 372 761 q 397 572 372 631 q 475 471 421 513 q 303 403 378 456 q 188 280 229 351 q 147 138 147 208 q 166 46 147 90 q 225 -28 185 1 q 328 -58 265 -58 q 476 -17 401 -58 q 613 94 550 25 q 713 243 675 164 l 750 219 q 532 -40 657 47 q 494 -118 494 -71 z "},"Ẽ":{"ha":740,"x_min":-6,"x_max":853,"o":"m 290 -121 q 136 -86 204 -121 q 31 8 68 -51 q -6 140 -6 68 q 41 299 -6 222 q 168 431 88 376 q 349 499 249 485 q 274 596 300 542 q 249 708 249 650 q 287 849 249 782 q 394 958 325 917 q 550 999 463 999 q 681 958 635 999 q 726 839 726 917 q 708 738 726 788 q 660 656 689 688 q 607 625 632 625 q 540 682 572 625 q 663 868 663 782 q 635 931 663 908 q 563 953 608 953 q 460 916 503 953 q 394 820 417 879 q 372 696 372 761 q 397 572 372 631 q 475 471 421 513 q 303 403 378 456 q 188 280 229 351 q 147 138 147 208 q 166 46 147 90 q 225 -28 185 1 q 328 -58 265 -58 q 476 -17 401 -58 q 613 94 550 25 q 713 243 675 164 l 750 219 q 550 -28 668 65 q 290 -121 432 -121 m 736 1049 q 680 1058 708 1049 q 611 1083 651 1067 q 579 1096 604 1086 q 533 1110 554 1106 q 496 1115 513 1115 q 406 1097 447 1115 q 531 1179 439 1179 q 585 1171 557 1179 q 651 1146 613 1163 q 720 1121 694 1129 q 771 1113 746 1113 q 853 1126 813 1113 q 805 1068 832 1088 q 736 1049 778 1049 z "},"F":{"ha":725,"x_min":101,"x_max":929,"o":"m 261 -121 q 167 -88 192 -117 q 142 -8 142 -60 q 178 181 142 64 q 271 432 214 297 q 101 414 136 419 q 306 529 111 524 q 457 899 390 763 q 407 901 435 901 q 240 865 286 901 q 194 750 194 828 q 201 689 194 717 q 222 625 207 661 q 101 746 101 644 q 154 873 101 817 q 299 961 207 929 q 504 993 392 993 q 594 989 546 993 q 657 983 643 985 q 789 974 739 974 q 929 994 853 974 q 823 897 865 924 q 738 871 781 871 q 650 881 711 871 q 538 893 565 892 q 478 733 513 833 q 413 528 444 632 q 472 522 446 525 q 519 518 499 519 q 672 506 617 507 q 625 463 650 475 q 551 446 600 450 q 386 439 503 442 q 329 243 363 354 q 276 29 292 114 q 261 -121 261 -56 z "},"G":{"ha":813,"x_min":44,"x_max":796,"o":"m 678 -129 q 602 -90 621 -122 q 583 -12 583 -58 q 585 15 583 6 q 331 -121 472 -121 q 186 -79 251 -121 q 83 42 121 -37 q 44 228 44 121 q 133 583 44 403 q 358 881 221 764 q 631 999 494 999 q 756 952 715 999 q 796 835 796 906 q 778 736 796 785 q 730 656 760 688 q 665 625 700 625 q 633 635 647 625 q 607 671 619 646 q 654 721 628 685 q 699 799 681 757 q 718 872 718 840 q 699 919 718 901 q 643 938 681 938 q 433 819 542 938 q 251 528 324 700 q 178 213 178 357 q 203 70 178 131 q 270 -22 228 10 q 364 -54 313 -54 q 497 6 436 -54 q 594 158 557 67 q 640 342 632 250 q 492 356 572 356 q 400 353 467 356 q 440 424 413 401 q 511 447 467 447 q 579 438 544 447 q 667 411 614 429 q 767 381 725 389 q 690 128 706 192 q 674 1 674 65 l 675 -64 q 678 -129 678 -103 z "},"Ğ":{"ha":813,"x_min":44,"x_max":928,"o":"m 678 -129 q 602 -90 621 -122 q 583 -12 583 -58 q 585 15 583 6 q 331 -121 472 -121 q 186 -79 251 -121 q 83 42 121 -37 q 44 228 44 121 q 133 583 44 403 q 358 881 221 764 q 631 999 494 999 q 756 952 715 999 q 796 835 796 906 q 778 736 796 785 q 730 656 760 688 q 665 625 700 625 q 633 635 647 625 q 607 671 619 646 q 654 721 628 685 q 699 799 681 757 q 718 872 718 840 q 699 919 718 901 q 643 938 681 938 q 433 819 542 938 q 251 528 324 700 q 178 213 178 357 q 203 70 178 131 q 270 -22 228 10 q 364 -54 313 -54 q 497 6 436 -54 q 594 158 557 67 q 640 342 632 250 q 492 356 572 356 q 400 353 467 356 q 440 424 413 401 q 511 447 467 447 q 579 438 544 447 q 667 411 614 429 q 767 381 725 389 q 690 128 706 192 q 674 1 674 65 l 675 -64 q 678 -129 678 -103 m 779 1053 q 690 1074 725 1053 q 640 1125 656 1094 q 624 1185 624 1156 q 663 1253 624 1231 q 700 1174 671 1206 q 782 1142 729 1142 q 908 1210 864 1142 q 928 1164 928 1194 q 883 1085 928 1117 q 779 1053 839 1053 z "},"Ǧ":{"ha":813,"x_min":44,"x_max":881,"o":"m 678 -129 q 602 -90 621 -122 q 583 -12 583 -58 q 585 15 583 6 q 331 -121 472 -121 q 186 -79 251 -121 q 83 42 121 -37 q 44 228 44 121 q 133 583 44 403 q 358 881 221 764 q 631 999 494 999 q 756 952 715 999 q 796 835 796 906 q 778 736 796 785 q 730 656 760 688 q 665 625 700 625 q 633 635 647 625 q 607 671 619 646 q 654 721 628 685 q 699 799 681 757 q 718 872 718 840 q 699 919 718 901 q 643 938 681 938 q 433 819 542 938 q 251 528 324 700 q 178 213 178 357 q 203 70 178 131 q 270 -22 228 10 q 364 -54 313 -54 q 497 6 436 -54 q 594 158 557 67 q 640 342 632 250 q 492 356 572 356 q 400 353 467 356 q 440 424 413 401 q 511 447 467 447 q 579 438 544 447 q 667 411 614 429 q 767 381 725 389 q 690 128 706 192 q 674 1 674 65 l 675 -64 q 678 -129 678 -103 m 715 1047 q 657 1076 690 1047 q 599 1144 624 1104 q 575 1214 575 1183 q 608 1264 575 1249 q 715 1128 650 1186 q 857 1211 793 1160 q 874 1193 867 1204 q 881 1171 881 1182 q 849 1116 881 1144 q 777 1067 818 1088 q 715 1047 736 1047 z "},"Ĝ":{"ha":813,"x_min":44,"x_max":903,"o":"m 678 -129 q 602 -90 621 -122 q 583 -12 583 -58 q 585 15 583 6 q 331 -121 472 -121 q 186 -79 251 -121 q 83 42 121 -37 q 44 228 44 121 q 133 583 44 403 q 358 881 221 764 q 631 999 494 999 q 756 952 715 999 q 796 835 796 906 q 778 736 796 785 q 730 656 760 688 q 665 625 700 625 q 633 635 647 625 q 607 671 619 646 q 654 721 628 685 q 699 799 681 757 q 718 872 718 840 q 699 919 718 901 q 643 938 681 938 q 433 819 542 938 q 251 528 324 700 q 178 213 178 357 q 203 70 178 131 q 270 -22 228 10 q 364 -54 313 -54 q 497 6 436 -54 q 594 158 557 67 q 640 342 632 250 q 492 356 572 356 q 400 353 467 356 q 440 424 413 401 q 511 447 467 447 q 579 438 544 447 q 667 411 614 429 q 767 381 725 389 q 690 128 706 192 q 674 1 674 65 l 675 -64 q 678 -129 678 -103 m 868 1033 q 826 1093 849 1068 q 768 1149 803 1118 q 626 1076 704 1128 q 613 1094 617 1082 q 608 1115 608 1106 q 639 1168 608 1140 q 709 1215 669 1196 q 769 1235 749 1235 q 824 1210 792 1235 q 879 1150 856 1185 q 903 1088 903 1115 q 894 1057 903 1072 q 868 1033 886 1042 z "},"Ģ":{"ha":813,"x_min":44,"x_max":796,"o":"m 678 -129 q 602 -90 621 -122 q 583 -12 583 -58 q 585 15 583 6 q 331 -121 472 -121 q 186 -79 251 -121 q 83 42 121 -37 q 44 228 44 121 q 133 583 44 403 q 358 881 221 764 q 631 999 494 999 q 756 952 715 999 q 796 835 796 906 q 778 736 796 785 q 730 656 760 688 q 665 625 700 625 q 633 635 647 625 q 607 671 619 646 q 654 721 628 685 q 699 799 681 757 q 718 872 718 840 q 699 919 718 901 q 643 938 681 938 q 433 819 542 938 q 251 528 324 700 q 178 213 178 357 q 203 70 178 131 q 270 -22 228 10 q 364 -54 313 -54 q 497 6 436 -54 q 594 158 557 67 q 640 342 632 250 q 492 356 572 356 q 400 353 467 356 q 440 424 413 401 q 511 447 467 447 q 579 438 544 447 q 667 411 614 429 q 767 381 725 389 q 690 128 706 192 q 674 1 674 65 l 675 -64 q 678 -129 678 -103 m 279 -390 q 242 -329 242 -368 q 254 -267 242 -301 q 287 -210 267 -233 q 329 -186 307 -186 q 360 -200 347 -186 q 374 -232 374 -214 q 331 -289 347 -261 q 300 -347 315 -317 q 279 -390 285 -378 z "},"Ġ":{"ha":813,"x_min":44,"x_max":817,"o":"m 678 -129 q 602 -90 621 -122 q 583 -12 583 -58 q 585 15 583 6 q 331 -121 472 -121 q 186 -79 251 -121 q 83 42 121 -37 q 44 228 44 121 q 133 583 44 403 q 358 881 221 764 q 631 999 494 999 q 756 952 715 999 q 796 835 796 906 q 778 736 796 785 q 730 656 760 688 q 665 625 700 625 q 633 635 647 625 q 607 671 619 646 q 654 721 628 685 q 699 799 681 757 q 718 872 718 840 q 699 919 718 901 q 643 938 681 938 q 433 819 542 938 q 251 528 324 700 q 178 213 178 357 q 203 70 178 131 q 270 -22 228 10 q 364 -54 313 -54 q 497 6 436 -54 q 594 158 557 67 q 640 342 632 250 q 492 356 572 356 q 400 353 467 356 q 440 424 413 401 q 511 447 467 447 q 579 438 544 447 q 667 411 614 429 q 767 381 725 389 q 690 128 706 192 q 674 1 674 65 l 675 -64 q 678 -129 678 -103 m 728 1064 q 683 1078 700 1064 q 665 1119 665 1093 q 696 1169 665 1149 q 761 1190 726 1190 q 803 1177 789 1190 q 817 1140 817 1164 q 789 1088 817 1111 q 728 1064 761 1064 z "},"H":{"ha":921,"x_min":100,"x_max":939,"o":"m 100 -121 q 147 103 117 -15 q 244 425 178 221 q 154 417 168 418 q 185 483 154 458 q 275 519 217 507 q 293 571 282 543 l 390 856 q 399 880 392 858 q 407 922 407 901 q 403 938 407 933 q 389 942 399 942 q 316 901 353 942 q 254 802 279 860 q 229 701 229 744 q 243 639 229 679 q 160 663 188 639 q 133 731 133 688 q 181 853 133 790 q 299 958 229 917 q 425 1000 368 1000 q 485 978 467 1000 q 503 924 503 957 q 492 864 503 900 l 390 531 q 460 532 413 532 q 703 521 585 532 q 839 924 786 801 q 874 978 853 954 q 939 1001 896 1001 q 867 783 910 922 q 793 514 825 643 l 842 513 q 914 510 889 510 q 843 458 875 471 q 776 446 811 446 q 716 149 736 275 q 696 -47 696 22 q 703 -121 696 -83 q 606 -87 632 -114 q 581 8 581 -60 q 602 169 581 71 q 681 444 624 267 q 495 442 571 444 q 360 435 419 440 q 333 347 357 426 q 217 -26 310 268 q 167 -97 203 -72 q 100 -121 132 -121 z "},"Ħ":{"ha":922,"x_min":100,"x_max":963,"o":"m 963 678 q 923 635 957 650 q 821 614 889 621 q 785 478 799 533 q 914 475 868 475 q 854 431 888 446 q 768 408 821 415 q 696 -47 696 97 q 703 -121 696 -83 q 606 -87 632 -114 q 581 8 581 -60 q 665 401 581 103 q 490 399 618 399 q 347 396 442 399 l 217 -26 q 167 -97 203 -72 q 100 -121 132 -121 q 150 113 119 -1 q 233 389 181 228 q 154 382 196 388 q 263 479 154 456 l 303 600 q 203 585 239 593 q 238 634 204 613 q 326 669 271 656 l 390 856 q 399 880 392 858 q 407 922 407 901 q 403 938 407 933 q 389 942 399 942 q 320 919 354 942 q 265 860 286 897 q 243 782 243 824 q 244 743 243 756 q 172 764 197 746 q 147 813 147 782 q 185 905 147 861 q 279 974 222 949 q 389 1000 336 1000 q 476 978 450 1000 q 503 924 503 957 q 492 864 503 900 l 438 686 q 508 689 482 689 q 754 686 601 689 q 839 924 801 833 q 874 978 853 954 q 939 1001 896 1001 q 839 683 889 860 q 963 678 919 681 m 689 482 q 701 521 694 503 q 711 554 707 539 l 728 608 q 547 607 678 607 q 413 606 451 607 q 376 490 404 581 q 429 492 394 492 q 618 485 504 492 q 689 482 642 485 z "},"Ĥ":{"ha":921,"x_min":100,"x_max":939,"o":"m 100 -121 q 147 103 117 -15 q 244 425 178 221 q 154 417 168 418 q 185 483 154 458 q 275 519 217 507 q 293 571 282 543 l 390 856 q 399 880 392 858 q 407 922 407 901 q 403 938 407 933 q 389 942 399 942 q 316 901 353 942 q 254 802 279 860 q 229 701 229 744 q 243 639 229 679 q 160 663 188 639 q 133 731 133 688 q 181 853 133 790 q 299 958 229 917 q 425 1000 368 1000 q 485 978 467 1000 q 503 924 503 957 q 492 864 503 900 l 390 531 q 460 532 413 532 q 703 521 585 532 q 839 924 786 801 q 874 978 853 954 q 939 1001 896 1001 q 867 783 910 922 q 793 514 825 643 l 842 513 q 914 510 889 510 q 843 458 875 471 q 776 446 811 446 q 716 149 736 275 q 696 -47 696 22 q 703 -121 696 -83 q 606 -87 632 -114 q 581 8 581 -60 q 602 169 581 71 q 681 444 624 267 q 495 442 571 444 q 360 435 419 440 q 333 347 357 426 q 217 -26 310 268 q 167 -97 203 -72 q 100 -121 132 -121 m 811 1033 q 769 1093 792 1068 q 711 1149 746 1118 q 569 1076 647 1128 q 556 1094 560 1082 q 551 1115 551 1106 q 582 1168 551 1140 q 652 1215 613 1196 q 713 1235 692 1235 q 767 1210 735 1235 q 822 1150 799 1185 q 846 1088 846 1115 q 838 1057 846 1072 q 811 1033 829 1042 z "},"I":{"ha":699,"x_min":-25,"x_max":835,"o":"m -25 -122 q 42 -17 -18 -42 q 214 8 103 8 q 289 226 254 94 q 375 588 324 358 q 406 726 381 611 q 453 901 432 842 q 280 892 353 900 q 124 868 207 883 q 210 968 138 938 q 432 999 283 999 q 835 968 599 999 q 753 915 793 928 q 674 903 714 903 q 524 901 568 903 l 515 860 l 481 667 q 435 419 460 547 q 394 228 411 292 q 294 6 353 61 q 400 -4 364 0 q 608 -19 528 -18 q 421 -97 526 -97 q 152 -101 228 -97 q -25 -122 76 -106 z "},"Ĳ":{"ha":1310,"x_min":-25,"x_max":1465,"o":"m -25 -122 q 42 -17 -18 -42 q 214 8 103 8 q 289 226 254 94 q 375 588 324 358 q 406 726 381 611 q 453 901 432 842 q 280 892 353 900 q 124 868 207 883 q 210 968 138 938 q 432 999 283 999 q 835 968 599 999 q 753 915 793 928 q 674 903 714 903 q 524 901 568 903 l 515 860 l 481 667 q 435 419 460 547 q 394 228 411 292 q 294 6 353 61 q 400 -4 364 0 q 608 -19 528 -18 q 421 -97 526 -97 q 152 -101 228 -97 q -25 -122 76 -106 m 843 -119 q 723 -80 772 -119 q 674 68 674 -40 q 704 233 674 160 q 788 307 735 307 q 842 292 807 307 q 789 68 789 164 q 812 -19 789 13 q 875 -51 835 -51 q 938 -21 910 -51 q 993 85 965 10 q 1101 478 1040 219 q 1193 908 1163 736 q 1030 899 1096 907 q 896 876 964 892 q 965 969 906 942 q 1146 997 1024 997 q 1311 988 1222 997 q 1465 967 1400 978 q 1410 922 1444 933 q 1339 910 1375 910 l 1258 908 q 1276 854 1276 885 q 1248 671 1275 817 q 1178 361 1221 525 q 1085 88 1135 197 q 974 -73 1033 -26 q 843 -119 914 -119 z "},"Í":{"ha":699,"x_min":-25,"x_max":835,"o":"m -25 -122 q 42 -17 -18 -42 q 214 8 103 8 q 289 226 254 94 q 375 588 324 358 q 406 726 381 611 q 453 901 432 842 q 280 892 353 900 q 124 868 207 883 q 210 968 138 938 q 432 999 283 999 q 835 968 599 999 q 753 915 793 928 q 674 903 714 903 q 524 901 568 903 l 515 860 l 481 667 q 435 419 460 547 q 394 228 411 292 q 294 6 353 61 q 400 -4 364 0 q 608 -19 528 -18 q 421 -97 526 -97 q 152 -101 228 -97 q -25 -122 76 -106 m 526 1038 q 502 1059 511 1044 q 493 1083 493 1074 q 518 1140 493 1100 q 576 1211 543 1179 q 636 1243 610 1243 q 678 1194 672 1243 q 656 1172 678 1194 q 583 1102 617 1136 q 526 1038 550 1068 z "},"Ĭ":{"ha":699,"x_min":-25,"x_max":835,"o":"m -25 -122 q 42 -17 -18 -42 q 214 8 103 8 q 289 226 254 94 q 375 588 324 358 q 406 726 381 611 q 453 901 432 842 q 280 892 353 900 q 124 868 207 883 q 210 968 138 938 q 432 999 283 999 q 835 968 599 999 q 753 915 793 928 q 674 903 714 903 q 524 901 568 903 l 515 860 l 481 667 q 435 419 460 547 q 394 228 411 292 q 294 6 353 61 q 400 -4 364 0 q 608 -19 528 -18 q 421 -97 526 -97 q 152 -101 228 -97 q -25 -122 76 -106 m 561 1051 q 472 1072 507 1051 q 422 1124 438 1093 q 406 1183 406 1154 q 444 1251 406 1229 q 482 1172 453 1204 q 564 1140 511 1140 q 690 1208 646 1140 q 710 1163 710 1193 q 665 1083 710 1115 q 561 1051 621 1051 z "},"Î":{"ha":699,"x_min":-25,"x_max":835,"o":"m -25 -122 q 42 -17 -18 -42 q 214 8 103 8 q 289 226 254 94 q 375 588 324 358 q 406 726 381 611 q 453 901 432 842 q 280 892 353 900 q 124 868 207 883 q 210 968 138 938 q 432 999 283 999 q 835 968 599 999 q 753 915 793 928 q 674 903 714 903 q 524 901 568 903 l 515 860 l 481 667 q 435 419 460 547 q 394 228 411 292 q 294 6 353 61 q 400 -4 364 0 q 608 -19 528 -18 q 421 -97 526 -97 q 152 -101 228 -97 q -25 -122 76 -106 m 650 1032 q 608 1092 631 1067 q 550 1147 585 1117 q 408 1075 486 1126 q 394 1092 399 1081 q 390 1114 390 1104 q 421 1167 390 1139 q 491 1214 451 1194 q 551 1233 531 1233 q 606 1208 574 1233 q 661 1149 638 1183 q 685 1086 685 1114 q 676 1056 685 1071 q 650 1032 668 1040 z "},"Ȉ":{"ha":699,"x_min":-25,"x_max":835,"o":"m -25 -122 q 42 -17 -18 -42 q 214 8 103 8 q 289 226 254 94 q 375 588 324 358 q 406 726 381 611 q 453 901 432 842 q 280 892 353 900 q 124 868 207 883 q 210 968 138 938 q 432 999 283 999 q 835 968 599 999 q 753 915 793 928 q 674 903 714 903 q 524 901 568 903 l 515 860 l 481 667 q 435 419 460 547 q 394 228 411 292 q 294 6 353 61 q 400 -4 364 0 q 608 -19 528 -18 q 421 -97 526 -97 q 152 -101 228 -97 q -25 -122 76 -106 m 468 1044 q 325 1218 401 1133 q 351 1238 339 1231 q 378 1244 363 1244 q 427 1213 400 1244 q 474 1142 454 1182 q 493 1086 493 1103 q 487 1062 493 1074 q 468 1044 481 1050 m 568 1046 q 465 1204 519 1136 q 513 1240 482 1240 q 558 1214 538 1240 q 590 1152 578 1188 q 603 1094 603 1117 q 593 1060 603 1072 q 568 1046 583 1049 z "},"Ï":{"ha":699,"x_min":-25,"x_max":835,"o":"m -25 -122 q 42 -17 -18 -42 q 214 8 103 8 q 289 226 254 94 q 375 588 324 358 q 406 726 381 611 q 453 901 432 842 q 280 892 353 900 q 124 868 207 883 q 210 968 138 938 q 432 999 283 999 q 835 968 599 999 q 753 915 793 928 q 674 903 714 903 q 524 901 568 903 l 515 860 l 481 667 q 435 419 460 547 q 394 228 411 292 q 294 6 353 61 q 400 -4 364 0 q 608 -19 528 -18 q 421 -97 526 -97 q 152 -101 228 -97 q -25 -122 76 -106 m 426 1072 q 384 1084 401 1072 q 367 1119 367 1096 q 397 1165 367 1144 q 460 1186 428 1186 q 510 1142 510 1186 q 483 1094 510 1117 q 426 1072 457 1072 m 626 1044 q 585 1057 603 1044 q 568 1092 568 1069 q 598 1138 568 1118 q 661 1158 628 1158 q 713 1113 713 1158 q 685 1067 713 1089 q 626 1044 658 1044 z "},"İ":{"ha":699,"x_min":-25,"x_max":835,"o":"m -25 -122 q 42 -17 -18 -42 q 214 8 103 8 q 289 226 254 94 q 375 588 324 358 q 406 726 381 611 q 453 901 432 842 q 280 892 353 900 q 124 868 207 883 q 210 968 138 938 q 432 999 283 999 q 835 968 599 999 q 753 915 793 928 q 674 903 714 903 q 524 901 568 903 l 515 860 l 481 667 q 435 419 460 547 q 394 228 411 292 q 294 6 353 61 q 400 -4 364 0 q 608 -19 528 -18 q 421 -97 526 -97 q 152 -101 228 -97 q -25 -122 76 -106 m 510 1063 q 465 1077 482 1063 q 447 1118 447 1092 q 478 1168 447 1147 q 543 1189 508 1189 q 585 1176 571 1189 q 599 1139 599 1163 q 571 1086 599 1110 q 510 1063 543 1063 z "},"Ị":{"ha":699,"x_min":-25,"x_max":835,"o":"m -25 -122 q 42 -17 -18 -42 q 214 8 103 8 q 289 226 254 94 q 375 588 324 358 q 406 726 381 611 q 453 901 432 842 q 280 892 353 900 q 124 868 207 883 q 210 968 138 938 q 432 999 283 999 q 835 968 599 999 q 753 915 793 928 q 674 903 714 903 q 524 901 568 903 l 515 860 l 481 667 q 435 419 460 547 q 394 228 411 292 q 294 6 353 61 q 400 -4 364 0 q 608 -19 528 -18 q 421 -97 526 -97 q 152 -101 228 -97 q -25 -122 76 -106 m 179 -318 q 134 -303 151 -318 q 117 -262 117 -289 q 147 -212 117 -233 q 213 -192 178 -192 q 254 -205 240 -192 q 268 -242 268 -218 q 240 -295 268 -272 q 179 -318 213 -318 z "},"Ì":{"ha":699,"x_min":-25,"x_max":835,"o":"m -25 -122 q 42 -17 -18 -42 q 214 8 103 8 q 289 226 254 94 q 375 588 324 358 q 406 726 381 611 q 453 901 432 842 q 280 892 353 900 q 124 868 207 883 q 210 968 138 938 q 432 999 283 999 q 835 968 599 999 q 753 915 793 928 q 674 903 714 903 q 524 901 568 903 l 515 860 l 481 667 q 435 419 460 547 q 394 228 411 292 q 294 6 353 61 q 400 -4 364 0 q 608 -19 528 -18 q 421 -97 526 -97 q 152 -101 228 -97 q -25 -122 76 -106 m 515 1038 q 353 1190 447 1118 q 367 1231 354 1217 q 397 1244 381 1244 q 460 1214 424 1244 q 523 1144 496 1183 q 550 1088 550 1106 q 540 1060 550 1075 q 515 1038 531 1044 z "},"Ỉ":{"ha":699,"x_min":-25,"x_max":835,"o":"m -25 -122 q 42 -17 -18 -42 q 214 8 103 8 q 289 226 254 94 q 375 588 324 358 q 406 726 381 611 q 453 901 432 842 q 280 892 353 900 q 124 868 207 883 q 210 968 138 938 q 432 999 283 999 q 835 968 599 999 q 753 915 793 928 q 674 903 714 903 q 524 901 568 903 l 515 860 l 481 667 q 435 419 460 547 q 394 228 411 292 q 294 6 353 61 q 400 -4 364 0 q 608 -19 528 -18 q 421 -97 526 -97 q 152 -101 228 -97 q -25 -122 76 -106 m 529 1049 q 481 1064 501 1049 q 572 1129 572 1079 q 542 1168 572 1156 q 444 1181 511 1181 q 465 1233 444 1213 q 524 1254 485 1254 q 601 1224 571 1254 q 632 1147 632 1193 q 603 1076 632 1103 q 529 1049 575 1049 z "},"Ȋ":{"ha":699,"x_min":-25,"x_max":835,"o":"m -25 -122 q 42 -17 -18 -42 q 214 8 103 8 q 289 226 254 94 q 375 588 324 358 q 406 726 381 611 q 453 901 432 842 q 280 892 353 900 q 124 868 207 883 q 210 968 138 938 q 432 999 283 999 q 835 968 599 999 q 753 915 793 928 q 674 903 714 903 q 524 901 568 903 l 515 860 l 481 667 q 435 419 460 547 q 394 228 411 292 q 294 6 353 61 q 400 -4 364 0 q 608 -19 528 -18 q 421 -97 526 -97 q 152 -101 228 -97 q -25 -122 76 -106 m 646 1018 q 608 1097 638 1065 q 526 1129 579 1129 q 400 1061 444 1129 q 381 1107 381 1076 q 425 1186 381 1154 q 529 1218 469 1218 q 618 1197 583 1218 q 669 1146 653 1176 q 685 1086 685 1115 q 646 1018 685 1040 z "},"Ī":{"ha":699,"x_min":-25,"x_max":835,"o":"m -25 -122 q 42 -17 -18 -42 q 214 8 103 8 q 289 226 254 94 q 375 588 324 358 q 406 726 381 611 q 453 901 432 842 q 280 892 353 900 q 124 868 207 883 q 210 968 138 938 q 432 999 283 999 q 835 968 599 999 q 753 915 793 928 q 674 903 714 903 q 524 901 568 903 l 515 860 l 481 667 q 435 419 460 547 q 394 228 411 292 q 294 6 353 61 q 400 -4 364 0 q 608 -19 528 -18 q 421 -97 526 -97 q 152 -101 228 -97 q -25 -122 76 -106 m 646 1051 q 556 1061 610 1051 q 414 1090 503 1071 q 296 1114 317 1111 q 365 1156 311 1156 q 528 1135 435 1156 q 703 1086 621 1115 q 646 1051 686 1051 z "},"Į":{"ha":699,"x_min":-25,"x_max":835,"o":"m 394 228 q 294 6 353 61 q 400 -4 364 0 q 608 -19 528 -18 q 421 -97 526 -97 l 260 -97 q 243 -153 243 -122 q 258 -194 243 -178 q 301 -211 274 -211 q 382 -182 343 -211 q 353 -258 381 -231 q 279 -286 325 -286 q 204 -258 233 -286 q 175 -183 175 -229 q 218 -99 175 -131 q 94 -106 146 -100 q -25 -122 43 -111 q 42 -17 -18 -42 q 214 8 103 8 q 289 226 254 94 q 375 588 324 358 q 406 726 381 611 q 453 901 432 842 q 280 892 353 900 q 124 868 207 883 q 210 968 138 938 q 432 999 283 999 q 835 968 599 999 q 753 915 793 928 q 674 903 714 903 q 524 901 568 903 l 515 860 l 481 667 q 435 419 460 547 q 394 228 411 292 z "},"Ĩ":{"ha":699,"x_min":-25,"x_max":835,"o":"m -25 -122 q 42 -17 -18 -42 q 214 8 103 8 q 289 226 254 94 q 375 588 324 358 q 406 726 381 611 q 453 901 432 842 q 280 892 353 900 q 124 868 207 883 q 210 968 138 938 q 432 999 283 999 q 835 968 599 999 q 753 915 793 928 q 674 903 714 903 q 524 901 568 903 l 515 860 l 481 667 q 435 419 460 547 q 394 228 411 292 q 294 6 353 61 q 400 -4 364 0 q 608 -19 528 -18 q 421 -97 526 -97 q 152 -101 228 -97 q -25 -122 76 -106 m 626 1047 q 570 1056 599 1047 q 501 1082 542 1065 q 469 1094 494 1085 q 424 1109 444 1104 q 386 1114 403 1114 q 296 1096 338 1114 q 421 1178 329 1178 q 475 1169 447 1178 q 542 1144 503 1161 q 610 1119 585 1128 q 661 1111 636 1111 q 743 1125 703 1111 q 695 1067 722 1086 q 626 1047 668 1047 z "},"J":{"ha":611,"x_min":-25,"x_max":767,"o":"m 144 -119 q 24 -80 74 -119 q -25 68 -25 -40 q 6 233 -25 160 q 89 307 36 307 q 143 292 108 307 q 90 68 90 164 q 113 -19 90 13 q 176 -51 136 -51 q 239 -21 211 -51 q 294 85 267 10 q 403 478 342 219 q 494 908 464 736 q 331 899 397 907 q 197 876 265 892 q 266 969 207 942 q 447 997 325 997 q 613 988 524 997 q 767 967 701 978 q 711 922 746 933 q 640 910 676 910 l 560 908 q 578 854 578 885 q 549 671 576 817 q 479 361 522 525 q 386 88 436 197 q 275 -73 335 -26 q 144 -119 215 -119 z "},"Ĵ":{"ha":611,"x_min":-25,"x_max":767,"o":"m 144 -119 q 24 -80 74 -119 q -25 68 -25 -40 q 6 233 -25 160 q 89 307 36 307 q 143 292 108 307 q 90 68 90 164 q 113 -19 90 13 q 176 -51 136 -51 q 239 -21 211 -51 q 294 85 267 10 q 403 478 342 219 q 494 908 464 736 q 331 899 397 907 q 197 876 265 892 q 266 969 207 942 q 447 997 325 997 q 613 988 524 997 q 767 967 701 978 q 711 922 746 933 q 640 910 676 910 l 560 908 q 578 854 578 885 q 549 671 576 817 q 479 361 522 525 q 386 88 436 197 q 275 -73 335 -26 q 144 -119 215 -119 m 693 1033 q 651 1093 674 1068 q 593 1149 628 1118 q 451 1076 529 1128 q 438 1094 442 1082 q 433 1115 433 1106 q 464 1168 433 1140 q 534 1215 494 1196 q 594 1235 574 1235 q 649 1210 617 1235 q 704 1150 681 1185 q 728 1088 728 1115 q 719 1057 728 1072 q 693 1033 711 1042 z "},"K":{"ha":885,"x_min":60,"x_max":896,"o":"m 753 -121 q 624 -39 701 -121 q 469 160 547 43 q 336 382 390 278 l 210 -26 q 157 -83 196 -71 q 60 -96 118 -96 q 109 24 85 -42 q 182 233 133 89 q 400 856 314 619 q 409 879 401 860 q 417 915 417 899 q 389 942 417 942 q 310 901 349 942 q 247 802 271 860 q 224 703 224 744 q 238 639 224 671 q 153 663 181 639 q 126 729 126 688 q 175 852 126 789 q 293 958 224 915 q 419 1000 363 1000 q 496 919 496 1000 q 486 864 496 893 l 383 531 q 479 601 400 540 q 699 798 597 693 q 868 1004 801 903 q 890 969 883 990 q 896 929 896 947 q 740 703 896 835 q 383 444 583 572 q 509 260 457 331 q 640 109 561 189 q 839 -62 719 29 q 801 -103 826 -86 q 753 -121 776 -121 z "},"Ķ":{"ha":885,"x_min":60,"x_max":896,"o":"m 753 -121 q 624 -39 701 -121 q 469 160 547 43 q 336 382 390 278 l 210 -26 q 157 -83 196 -71 q 60 -96 118 -96 q 109 24 85 -42 q 182 233 133 89 q 400 856 314 619 q 409 879 401 860 q 417 915 417 899 q 389 942 417 942 q 310 901 349 942 q 247 802 271 860 q 224 703 224 744 q 238 639 224 671 q 153 663 181 639 q 126 729 126 688 q 175 852 126 789 q 293 958 224 915 q 419 1000 363 1000 q 496 919 496 1000 q 486 864 496 893 l 383 531 q 479 601 400 540 q 699 798 597 693 q 868 1004 801 903 q 890 969 883 990 q 896 929 896 947 q 740 703 896 835 q 383 444 583 572 q 509 260 457 331 q 640 109 561 189 q 839 -62 719 29 q 801 -103 826 -86 q 753 -121 776 -121 m 350 -360 q 313 -299 313 -337 q 325 -237 313 -271 q 358 -179 338 -203 q 400 -156 378 -156 q 431 -169 418 -156 q 444 -201 444 -183 q 402 -258 418 -231 q 371 -317 386 -286 q 350 -360 356 -347 z "},"L":{"ha":847,"x_min":-89,"x_max":843,"o":"m 607 -121 q 478 -96 550 -121 q 296 -24 407 -71 l 229 6 q 68 -74 154 -74 q -14 -53 22 -74 q -69 -2 -50 -32 q -89 56 -89 28 q -62 106 -89 86 q 25 125 -35 125 q 200 97 93 125 q 262 236 232 156 q 331 440 292 317 l 365 547 q 259 611 297 569 q 221 699 221 653 q 253 781 221 743 q 338 818 286 818 q 310 724 310 782 q 330 648 310 681 q 382 596 350 615 q 515 892 444 785 q 689 1000 586 1000 q 795 965 747 1000 q 843 850 843 929 q 803 705 843 779 q 681 579 764 631 q 474 528 597 528 q 379 265 424 376 q 283 75 335 154 q 497 16 408 38 q 651 -6 585 -6 q 712 1 683 -6 q 774 25 740 8 q 706 -86 746 -51 q 607 -121 665 -121 m 489 574 q 622 633 564 579 q 713 758 681 686 q 746 883 746 829 q 700 946 746 946 q 597 852 644 946 q 489 574 550 758 m 54 -22 q 108 -9 86 -22 q 157 33 129 4 q 11 69 58 69 q -26 60 -14 69 q -39 36 -39 51 q -11 -5 -39 13 q 54 -22 17 -22 z "},"Ǉ":{"ha":1458,"x_min":-89,"x_max":1614,"o":"m 607 -121 q 478 -96 550 -121 q 296 -24 407 -71 l 229 6 q 68 -74 154 -74 q -14 -53 22 -74 q -69 -2 -50 -32 q -89 56 -89 28 q -62 106 -89 86 q 25 125 -35 125 q 200 97 93 125 q 262 236 232 156 q 331 440 292 317 l 365 547 q 259 611 297 569 q 221 699 221 653 q 253 781 221 743 q 338 818 286 818 q 310 724 310 782 q 330 648 310 681 q 382 596 350 615 q 515 892 444 785 q 689 1000 586 1000 q 795 965 747 1000 q 843 850 843 929 q 803 705 843 779 q 681 579 764 631 q 474 528 597 528 q 379 265 424 376 q 283 75 335 154 q 497 16 408 38 q 651 -6 585 -6 q 712 1 683 -6 q 774 25 740 8 q 706 -86 746 -51 q 607 -121 665 -121 m 489 574 q 622 633 564 579 q 713 758 681 686 q 746 883 746 829 q 700 946 746 946 q 597 852 644 946 q 489 574 550 758 m 54 -22 q 108 -9 86 -22 q 157 33 129 4 q 11 69 58 69 q -26 60 -14 69 q -39 36 -39 51 q -11 -5 -39 13 q 54 -22 17 -22 m 992 -119 q 872 -80 921 -119 q 822 68 822 -40 q 853 233 822 160 q 936 307 883 307 q 990 292 956 307 q 938 68 938 164 q 960 -19 938 13 q 1024 -51 983 -51 q 1086 -21 1058 -51 q 1142 85 1114 10 q 1250 478 1189 219 q 1342 908 1311 736 q 1178 899 1244 907 q 1044 876 1113 892 q 1113 969 1054 942 q 1294 997 1172 997 q 1460 988 1371 997 q 1614 967 1549 978 q 1558 922 1593 933 q 1488 910 1524 910 l 1407 908 q 1425 854 1425 885 q 1397 671 1424 817 q 1326 361 1369 525 q 1233 88 1283 197 q 1122 -73 1182 -26 q 992 -119 1063 -119 z "},"Ĺ":{"ha":847,"x_min":-89,"x_max":914,"o":"m 607 -121 q 478 -96 550 -121 q 296 -24 407 -71 l 229 6 q 68 -74 154 -74 q -14 -53 22 -74 q -69 -2 -50 -32 q -89 56 -89 28 q -62 106 -89 86 q 25 125 -35 125 q 200 97 93 125 q 262 236 232 156 q 331 440 292 317 l 365 547 q 259 611 297 569 q 221 699 221 653 q 253 781 221 743 q 338 818 286 818 q 310 724 310 782 q 330 648 310 681 q 382 596 350 615 q 515 892 444 785 q 689 1000 586 1000 q 795 965 747 1000 q 843 850 843 929 q 803 705 843 779 q 681 579 764 631 q 474 528 597 528 q 379 265 424 376 q 283 75 335 154 q 497 16 408 38 q 651 -6 585 -6 q 712 1 683 -6 q 774 25 740 8 q 706 -86 746 -51 q 607 -121 665 -121 m 489 574 q 622 633 564 579 q 713 758 681 686 q 746 883 746 829 q 700 946 746 946 q 597 852 644 946 q 489 574 550 758 m 54 -22 q 108 -9 86 -22 q 157 33 129 4 q 11 69 58 69 q -26 60 -14 69 q -39 36 -39 51 q -11 -5 -39 13 q 54 -22 17 -22 m 763 1039 q 738 1060 747 1046 q 729 1085 729 1075 q 754 1141 729 1101 q 813 1213 779 1181 q 872 1244 846 1244 q 914 1196 908 1244 q 892 1174 914 1196 q 819 1103 853 1138 q 763 1039 786 1069 z "},"Ľ":{"ha":847,"x_min":-89,"x_max":1043,"o":"m 607 -121 q 478 -96 550 -121 q 296 -24 407 -71 l 229 6 q 68 -74 154 -74 q -14 -53 22 -74 q -69 -2 -50 -32 q -89 56 -89 28 q -62 106 -89 86 q 25 125 -35 125 q 200 97 93 125 q 262 236 232 156 q 331 440 292 317 l 365 547 q 259 611 297 569 q 221 699 221 653 q 253 781 221 743 q 338 818 286 818 q 310 724 310 782 q 330 648 310 681 q 382 596 350 615 q 515 892 444 785 q 689 1000 586 1000 q 795 965 747 1000 q 843 850 843 929 q 803 705 843 779 q 681 579 764 631 q 474 528 597 528 q 379 265 424 376 q 283 75 335 154 q 497 16 408 38 q 651 -6 585 -6 q 712 1 683 -6 q 774 25 740 8 q 706 -86 746 -51 q 607 -121 665 -121 m 489 574 q 622 633 564 579 q 713 758 681 686 q 746 883 746 829 q 700 946 746 946 q 597 852 644 946 q 489 574 550 758 m 54 -22 q 108 -9 86 -22 q 157 33 129 4 q 11 69 58 69 q -26 60 -14 69 q -39 36 -39 51 q -11 -5 -39 13 q 54 -22 17 -22 m 928 771 q 899 783 911 771 q 886 817 886 796 q 907 876 886 843 q 958 933 928 910 q 1014 957 989 957 q 1043 946 1029 957 q 954 779 994 875 q 928 771 943 771 z "},"Ļ":{"ha":847,"x_min":-89,"x_max":843,"o":"m 607 -121 q 478 -96 550 -121 q 296 -24 407 -71 l 229 6 q 68 -74 154 -74 q -14 -53 22 -74 q -69 -2 -50 -32 q -89 56 -89 28 q -62 106 -89 86 q 25 125 -35 125 q 200 97 93 125 q 262 236 232 156 q 331 440 292 317 l 365 547 q 259 611 297 569 q 221 699 221 653 q 253 781 221 743 q 338 818 286 818 q 310 724 310 782 q 330 648 310 681 q 382 596 350 615 q 515 892 444 785 q 689 1000 586 1000 q 795 965 747 1000 q 843 850 843 929 q 803 705 843 779 q 681 579 764 631 q 474 528 597 528 q 379 265 424 376 q 283 75 335 154 q 497 16 408 38 q 651 -6 585 -6 q 712 1 683 -6 q 774 25 740 8 q 706 -86 746 -51 q 607 -121 665 -121 m 489 574 q 622 633 564 579 q 713 758 681 686 q 746 883 746 829 q 700 946 746 946 q 597 852 644 946 q 489 574 550 758 m 54 -22 q 108 -9 86 -22 q 157 33 129 4 q 11 69 58 69 q -26 60 -14 69 q -39 36 -39 51 q -11 -5 -39 13 q 54 -22 17 -22 m 233 -342 q 196 -281 196 -319 q 208 -219 196 -253 q 241 -161 221 -185 q 283 -137 261 -137 q 315 -151 301 -137 q 328 -183 328 -165 q 285 -240 301 -212 q 254 -299 269 -268 q 233 -342 239 -329 z "},"Ŀ":{"ha":847,"x_min":-89,"x_max":843,"o":"m 607 -121 q 478 -96 550 -121 q 296 -24 407 -71 l 229 6 q 68 -74 154 -74 q -14 -53 22 -74 q -69 -2 -50 -32 q -89 56 -89 28 q -62 106 -89 86 q 25 125 -35 125 q 200 97 93 125 q 262 236 232 156 q 331 440 292 317 l 365 547 q 259 611 297 569 q 221 699 221 653 q 253 781 221 743 q 338 818 286 818 q 310 724 310 782 q 330 648 310 681 q 382 596 350 615 q 515 892 444 785 q 689 1000 586 1000 q 795 965 747 1000 q 843 850 843 929 q 803 705 843 779 q 681 579 764 631 q 474 528 597 528 q 379 265 424 376 q 283 75 335 154 q 497 16 408 38 q 651 -6 585 -6 q 712 1 683 -6 q 774 25 740 8 q 706 -86 746 -51 q 607 -121 665 -121 m 489 574 q 622 633 564 579 q 713 758 681 686 q 746 883 746 829 q 700 946 746 946 q 597 852 644 946 q 489 574 550 758 m 54 -22 q 108 -9 86 -22 q 157 33 129 4 q 11 69 58 69 q -26 60 -14 69 q -39 36 -39 51 q -11 -5 -39 13 q 54 -22 17 -22 m 689 319 q 645 334 658 319 q 632 371 632 349 q 662 416 632 393 q 721 439 692 439 q 767 399 767 439 q 756 367 767 386 q 728 334 746 349 q 689 319 711 319 z "},"ǈ":{"ha":1163,"x_min":-89,"x_max":1219,"o":"m 607 -121 q 478 -96 550 -121 q 296 -24 407 -71 l 229 6 q 68 -74 154 -74 q -14 -53 22 -74 q -69 -2 -50 -32 q -89 56 -89 28 q -62 106 -89 86 q 25 125 -35 125 q 200 97 93 125 q 262 236 232 156 q 331 440 292 317 l 365 547 q 259 611 297 569 q 221 699 221 653 q 253 781 221 743 q 338 818 286 818 q 310 724 310 782 q 330 648 310 681 q 382 596 350 615 q 515 892 444 785 q 689 1000 586 1000 q 795 965 747 1000 q 843 850 843 929 q 803 705 843 779 q 681 579 764 631 q 474 528 597 528 q 379 265 424 376 q 283 75 335 154 q 497 16 408 38 q 651 -6 585 -6 q 712 1 683 -6 q 774 25 740 8 q 706 -86 746 -51 q 607 -121 665 -121 m 489 574 q 622 633 564 579 q 713 758 681 686 q 746 883 746 829 q 700 946 746 946 q 597 852 644 946 q 489 574 550 758 m 54 -22 q 108 -9 86 -22 q 157 33 129 4 q 11 69 58 69 q -26 60 -14 69 q -39 36 -39 51 q -11 -5 -39 13 q 54 -22 17 -22 m 1040 589 q 992 603 1013 589 q 971 642 971 617 q 1008 700 971 675 q 1085 725 1044 725 q 1126 713 1110 725 q 1142 676 1142 700 q 1111 615 1142 642 q 1040 589 1081 589 m 661 -389 q 597 -367 621 -389 q 574 -307 574 -344 q 651 -166 574 -239 q 847 -46 729 -93 q 926 236 897 78 q 904 201 907 206 l 878 157 l 854 194 q 892 274 874 231 q 914 331 910 318 q 967 449 944 411 q 1019 486 989 486 q 1050 472 1038 486 q 1063 435 1063 457 q 1034 267 1063 397 q 963 8 1006 136 q 1090 96 1038 50 q 1194 231 1142 142 l 1219 214 q 1147 99 1185 144 q 1072 27 1108 53 q 985 -28 1036 1 l 940 -54 q 815 -294 886 -199 q 661 -389 743 -389 m 646 -322 q 721 -268 674 -322 q 815 -118 768 -214 q 677 -212 725 -164 q 629 -299 629 -260 q 646 -322 629 -322 z "},"Ł":{"ha":849,"x_min":-89,"x_max":774,"o":"m 651 -6 q 712 1 683 -6 q 774 25 740 8 q 706 -86 746 -51 q 607 -121 665 -121 q 478 -96 550 -121 q 296 -24 407 -71 l 229 6 q 68 -74 154 -74 q -14 -53 22 -74 q -69 -2 -50 -32 q -89 56 -89 28 q -62 106 -89 86 q 25 125 -35 125 q 200 97 93 125 q 267 249 233 154 q 344 483 301 344 q 182 456 301 478 q 369 564 197 535 q 482 838 426 742 q 590 967 538 933 q 704 1000 643 1000 q 589 835 638 936 q 489 578 540 733 q 642 583 551 583 q 747 579 685 583 q 730 536 747 550 q 674 517 713 522 q 536 503 636 511 l 463 497 q 369 240 411 344 q 283 75 326 136 q 497 16 408 38 q 651 -6 585 -6 m 54 -22 q 108 -9 86 -22 q 157 33 129 4 q 11 69 58 69 q -26 60 -14 69 q -39 36 -39 51 q -11 -5 -39 13 q 54 -22 17 -22 z "},"M":{"ha":1119,"x_min":-7,"x_max":1100,"o":"m -7 -121 q 154 233 10 -71 q 439 853 367 694 q 451 899 451 881 q 411 929 451 929 q 319 895 357 929 q 263 810 282 861 q 244 706 244 758 q 250 639 244 676 q 178 678 204 639 q 151 765 151 718 q 194 877 151 822 q 305 966 238 932 q 438 1000 372 1000 q 527 970 492 1000 q 581 865 563 940 q 600 656 600 790 q 585 354 600 558 q 574 163 574 204 q 692 442 615 288 q 844 727 768 596 q 963 922 919 858 q 1000 970 985 957 q 1039 983 1015 983 q 1100 968 1058 983 q 1028 725 1072 908 q 951 340 983 542 q 918 14 918 138 q 922 -50 918 -29 q 934 -91 926 -71 q 946 -121 942 -111 q 856 -103 886 -121 q 814 -48 825 -86 q 803 60 803 -10 q 833 354 803 199 q 921 735 863 510 q 729 381 833 610 q 575 4 625 151 l 565 1 q 546 -3 556 -3 q 485 50 500 -3 q 471 218 471 103 q 476 456 471 289 q 482 711 482 631 l 481 793 l 338 457 q 184 102 235 213 q 88 -65 133 -8 q -7 -121 43 -121 z "},"N":{"ha":936,"x_min":78,"x_max":982,"o":"m 110 -19 q 372 856 232 371 q 382 910 382 894 q 378 925 382 921 q 364 929 375 929 q 292 891 326 929 q 235 799 257 853 q 214 704 214 746 q 228 639 214 671 q 143 663 169 639 q 117 729 117 688 q 165 853 117 789 q 283 958 214 917 q 404 1000 351 1000 q 500 943 464 1000 q 555 800 536 886 q 596 565 574 714 q 633 309 621 389 q 660 158 646 229 l 713 379 q 801 742 767 614 q 869 928 836 871 q 982 1001 911 1001 q 867 643 932 872 q 756 198 801 414 q 710 -121 710 -18 q 624 -95 656 -121 q 576 -1 592 -69 q 461 615 560 69 q 443 714 450 676 q 433 771 436 751 q 265 180 318 351 q 172 -56 213 8 q 78 -121 132 -121 l 110 -19 z "},"Ǌ":{"ha":1547,"x_min":78,"x_max":1703,"o":"m 110 -19 q 372 856 232 371 q 382 910 382 894 q 378 925 382 921 q 364 929 375 929 q 292 891 326 929 q 235 799 257 853 q 214 704 214 746 q 228 639 214 671 q 143 663 169 639 q 117 729 117 688 q 165 853 117 789 q 283 958 214 917 q 404 1000 351 1000 q 500 943 464 1000 q 555 800 536 886 q 596 565 574 714 q 633 309 621 389 q 660 158 646 229 l 713 379 q 801 742 767 614 q 869 928 836 871 q 982 1001 911 1001 q 867 643 932 872 q 756 198 801 414 q 710 -121 710 -18 q 624 -95 656 -121 q 576 -1 592 -69 q 461 615 560 69 q 443 714 450 676 q 433 771 436 751 q 265 180 318 351 q 172 -56 213 8 q 78 -121 132 -121 l 110 -19 m 1081 -119 q 960 -80 1010 -119 q 911 68 911 -40 q 942 233 911 160 q 1025 307 972 307 q 1079 292 1044 307 q 1026 68 1026 164 q 1049 -19 1026 13 q 1113 -51 1072 -51 q 1175 -21 1147 -51 q 1231 85 1203 10 q 1339 478 1278 219 q 1431 908 1400 736 q 1267 899 1333 907 q 1133 876 1201 892 q 1202 969 1143 942 q 1383 997 1261 997 q 1549 988 1460 997 q 1703 967 1638 978 q 1647 922 1682 933 q 1576 910 1613 910 l 1496 908 q 1514 854 1514 885 q 1485 671 1513 817 q 1415 361 1458 525 q 1322 88 1372 197 q 1211 -73 1271 -26 q 1081 -119 1151 -119 z "},"Ń":{"ha":936,"x_min":78,"x_max":982,"o":"m 110 -19 q 372 856 232 371 q 382 910 382 894 q 378 925 382 921 q 364 929 375 929 q 292 891 326 929 q 235 799 257 853 q 214 704 214 746 q 228 639 214 671 q 143 663 169 639 q 117 729 117 688 q 165 853 117 789 q 283 958 214 917 q 404 1000 351 1000 q 500 943 464 1000 q 555 800 536 886 q 596 565 574 714 q 633 309 621 389 q 660 158 646 229 l 713 379 q 801 742 767 614 q 869 928 836 871 q 982 1001 911 1001 q 867 643 932 872 q 756 198 801 414 q 710 -121 710 -18 q 624 -95 656 -121 q 576 -1 592 -69 q 461 615 560 69 q 443 714 450 676 q 433 771 436 751 q 265 180 318 351 q 172 -56 213 8 q 78 -121 132 -121 l 110 -19 m 717 1039 q 692 1060 701 1046 q 683 1085 683 1075 q 708 1141 683 1101 q 767 1213 733 1181 q 826 1244 800 1244 q 868 1196 863 1244 q 846 1174 868 1196 q 774 1103 807 1138 q 717 1039 740 1069 z "},"Ň":{"ha":936,"x_min":78,"x_max":982,"o":"m 110 -19 q 372 856 232 371 q 382 910 382 894 q 378 925 382 921 q 364 929 375 929 q 292 891 326 929 q 235 799 257 853 q 214 704 214 746 q 228 639 214 671 q 143 663 169 639 q 117 729 117 688 q 165 853 117 789 q 283 958 214 917 q 404 1000 351 1000 q 500 943 464 1000 q 555 800 536 886 q 596 565 574 714 q 633 309 621 389 q 660 158 646 229 l 713 379 q 801 742 767 614 q 869 928 836 871 q 982 1001 911 1001 q 867 643 932 872 q 756 198 801 414 q 710 -121 710 -18 q 624 -95 656 -121 q 576 -1 592 -69 q 461 615 560 69 q 443 714 450 676 q 433 771 436 751 q 265 180 318 351 q 172 -56 213 8 q 78 -121 132 -121 l 110 -19 m 688 1047 q 629 1076 663 1047 q 572 1144 596 1104 q 547 1214 547 1183 q 581 1264 547 1249 q 688 1128 622 1186 q 829 1211 765 1160 q 846 1193 839 1204 q 853 1171 853 1182 q 822 1116 853 1144 q 749 1067 790 1088 q 688 1047 708 1047 z "},"Ņ":{"ha":936,"x_min":78,"x_max":982,"o":"m 110 -19 q 372 856 232 371 q 382 910 382 894 q 378 925 382 921 q 364 929 375 929 q 292 891 326 929 q 235 799 257 853 q 214 704 214 746 q 228 639 214 671 q 143 663 169 639 q 117 729 117 688 q 165 853 117 789 q 283 958 214 917 q 404 1000 351 1000 q 500 943 464 1000 q 555 800 536 886 q 596 565 574 714 q 633 309 621 389 q 660 158 646 229 l 713 379 q 801 742 767 614 q 869 928 836 871 q 982 1001 911 1001 q 867 643 932 872 q 756 198 801 414 q 710 -121 710 -18 q 624 -95 656 -121 q 576 -1 592 -69 q 461 615 560 69 q 443 714 450 676 q 433 771 436 751 q 265 180 318 351 q 172 -56 213 8 q 78 -121 132 -121 l 110 -19 m 326 -326 q 289 -265 289 -304 q 301 -203 289 -237 q 334 -146 314 -169 q 376 -122 354 -122 q 408 -136 394 -122 q 421 -168 421 -150 q 378 -225 394 -197 q 347 -283 363 -253 q 326 -326 332 -314 z "},"Ŋ":{"ha":969,"x_min":125,"x_max":953,"o":"m 347 -339 q 284 -329 308 -339 q 260 -307 260 -319 q 290 -292 260 -292 q 535 -172 438 -292 q 707 183 633 -53 q 801 535 772 411 q 829 757 829 658 q 801 867 829 826 q 714 908 774 908 q 542 799 613 908 q 429 546 471 689 q 251 -137 306 125 q 168 -116 201 -137 q 135 -56 135 -94 q 165 91 135 -17 q 261 411 196 199 q 346 686 322 606 q 378 819 367 758 q 389 914 389 879 q 368 942 389 942 q 301 901 335 942 q 244 802 267 860 q 221 701 221 744 q 235 639 221 679 q 152 663 179 639 q 125 731 125 688 q 173 853 125 790 q 290 958 221 917 q 417 1000 360 1000 q 476 978 458 1000 q 494 924 494 957 q 485 853 494 896 q 460 771 475 811 q 756 983 575 983 q 901 928 849 983 q 953 772 953 872 q 828 176 953 565 q 640 -203 751 -67 q 347 -339 528 -339 z "},"ǋ":{"ha":1236,"x_min":78,"x_max":1293,"o":"m 110 -19 q 372 856 232 371 q 382 910 382 894 q 378 925 382 921 q 364 929 375 929 q 292 891 326 929 q 235 799 257 853 q 214 704 214 746 q 228 639 214 671 q 143 663 169 639 q 117 729 117 688 q 165 853 117 789 q 283 958 214 917 q 404 1000 351 1000 q 500 943 464 1000 q 555 800 536 886 q 596 565 574 714 q 633 309 621 389 q 660 158 646 229 l 713 379 q 801 742 767 614 q 869 928 836 871 q 982 1001 911 1001 q 867 643 932 872 q 756 198 801 414 q 710 -121 710 -18 q 624 -95 656 -121 q 576 -1 592 -69 q 461 615 560 69 q 443 714 450 676 q 433 771 436 751 q 265 180 318 351 q 172 -56 213 8 q 78 -121 132 -121 l 110 -19 m 1114 589 q 1065 603 1086 589 q 1044 642 1044 617 q 1081 700 1044 675 q 1158 725 1118 725 q 1199 713 1183 725 q 1215 676 1215 700 q 1185 615 1215 642 q 1114 589 1154 589 m 735 -389 q 671 -367 694 -389 q 647 -307 647 -344 q 725 -166 647 -239 q 921 -46 803 -93 q 1000 236 971 78 q 978 201 981 206 l 951 157 l 928 194 q 965 274 947 231 q 988 331 983 318 q 1040 449 1018 411 q 1093 486 1063 486 q 1124 472 1111 486 q 1136 435 1136 457 q 1108 267 1136 397 q 1036 8 1079 136 q 1163 96 1111 50 q 1268 231 1215 142 l 1293 214 q 1220 99 1258 144 q 1146 27 1182 53 q 1058 -28 1110 1 l 1014 -54 q 888 -294 960 -199 q 735 -389 817 -389 m 719 -322 q 794 -268 747 -322 q 889 -118 842 -214 q 751 -212 799 -164 q 703 -299 703 -260 q 719 -322 703 -322 z "},"Ñ":{"ha":936,"x_min":78,"x_max":982,"o":"m 110 -19 q 372 856 232 371 q 382 910 382 894 q 378 925 382 921 q 364 929 375 929 q 292 891 326 929 q 235 799 257 853 q 214 704 214 746 q 228 639 214 671 q 143 663 169 639 q 117 729 117 688 q 165 853 117 789 q 283 958 214 917 q 404 1000 351 1000 q 500 943 464 1000 q 555 800 536 886 q 596 565 574 714 q 633 309 621 389 q 660 158 646 229 l 713 379 q 801 742 767 614 q 869 928 836 871 q 982 1001 911 1001 q 867 643 932 872 q 756 198 801 414 q 710 -121 710 -18 q 624 -95 656 -121 q 576 -1 592 -69 q 461 615 560 69 q 443 714 450 676 q 433 771 436 751 q 265 180 318 351 q 172 -56 213 8 q 78 -121 132 -121 l 110 -19 m 817 1049 q 760 1058 789 1049 q 692 1083 732 1067 q 660 1096 685 1086 q 614 1110 635 1106 q 576 1115 593 1115 q 486 1097 528 1115 q 611 1179 519 1179 q 665 1171 638 1179 q 732 1146 693 1163 q 801 1121 775 1129 q 851 1113 826 1113 q 933 1126 893 1113 q 885 1068 913 1088 q 817 1049 858 1049 z "},"O":{"ha":910,"x_min":44,"x_max":894,"o":"m 336 -121 q 188 -78 254 -121 q 83 43 121 -36 q 44 228 44 122 q 133 583 44 403 q 363 881 221 764 q 653 999 504 999 q 747 960 710 999 q 707 963 725 963 q 469 846 590 963 q 268 554 347 729 q 189 219 189 379 q 237 23 189 100 q 385 -54 285 -54 q 606 61 506 -54 q 765 348 707 176 q 822 675 822 519 q 808 813 822 751 q 760 875 793 875 q 692 826 731 875 q 622 707 654 776 q 579 582 590 638 q 492 663 492 600 q 538 775 492 711 q 647 885 583 839 q 763 932 711 932 q 865 839 836 932 q 894 625 894 746 q 807 233 894 403 q 590 -29 719 63 q 336 -121 460 -121 z "},"Ó":{"ha":910,"x_min":44,"x_max":917,"o":"m 336 -121 q 188 -78 254 -121 q 83 43 121 -36 q 44 228 44 122 q 133 583 44 403 q 363 881 221 764 q 653 999 504 999 q 747 960 710 999 q 707 963 725 963 q 469 846 590 963 q 268 554 347 729 q 189 219 189 379 q 237 23 189 100 q 385 -54 285 -54 q 606 61 506 -54 q 765 348 707 176 q 822 675 822 519 q 808 813 822 751 q 760 875 793 875 q 692 826 731 875 q 622 707 654 776 q 579 582 590 638 q 492 663 492 600 q 538 775 492 711 q 647 885 583 839 q 763 932 711 932 q 865 839 836 932 q 894 625 894 746 q 807 233 894 403 q 590 -29 719 63 q 336 -121 460 -121 m 765 1039 q 741 1060 750 1046 q 732 1085 732 1075 q 757 1141 732 1101 q 815 1213 782 1181 q 875 1244 849 1244 q 917 1196 911 1244 q 894 1174 917 1196 q 822 1103 856 1138 q 765 1039 789 1069 z "},"Ŏ":{"ha":910,"x_min":44,"x_max":949,"o":"m 336 -121 q 188 -78 254 -121 q 83 43 121 -36 q 44 228 44 122 q 133 583 44 403 q 363 881 221 764 q 653 999 504 999 q 747 960 710 999 q 707 963 725 963 q 469 846 590 963 q 268 554 347 729 q 189 219 189 379 q 237 23 189 100 q 385 -54 285 -54 q 606 61 506 -54 q 765 348 707 176 q 822 675 822 519 q 808 813 822 751 q 760 875 793 875 q 692 826 731 875 q 622 707 654 776 q 579 582 590 638 q 492 663 492 600 q 538 775 492 711 q 647 885 583 839 q 763 932 711 932 q 865 839 836 932 q 894 625 894 746 q 807 233 894 403 q 590 -29 719 63 q 336 -121 460 -121 m 800 1053 q 711 1074 746 1053 q 660 1125 676 1094 q 644 1185 644 1156 q 683 1253 644 1231 q 721 1174 692 1206 q 803 1142 750 1142 q 929 1210 885 1142 q 949 1164 949 1194 q 904 1085 949 1117 q 800 1053 860 1053 z "},"Ô":{"ha":910,"x_min":44,"x_max":924,"o":"m 336 -121 q 188 -78 254 -121 q 83 43 121 -36 q 44 228 44 122 q 133 583 44 403 q 363 881 221 764 q 653 999 504 999 q 747 960 710 999 q 707 963 725 963 q 469 846 590 963 q 268 554 347 729 q 189 219 189 379 q 237 23 189 100 q 385 -54 285 -54 q 606 61 506 -54 q 765 348 707 176 q 822 675 822 519 q 808 813 822 751 q 760 875 793 875 q 692 826 731 875 q 622 707 654 776 q 579 582 590 638 q 492 663 492 600 q 538 775 492 711 q 647 885 583 839 q 763 932 711 932 q 865 839 836 932 q 894 625 894 746 q 807 233 894 403 q 590 -29 719 63 q 336 -121 460 -121 m 889 1033 q 847 1093 869 1068 q 789 1149 824 1118 q 647 1076 725 1128 q 633 1094 638 1082 q 629 1115 629 1106 q 660 1168 629 1140 q 730 1215 690 1196 q 790 1235 769 1235 q 844 1210 813 1235 q 900 1150 876 1185 q 924 1088 924 1115 q 915 1057 924 1072 q 889 1033 907 1042 z "},"Ố":{"ha":910,"x_min":44,"x_max":1093,"o":"m 336 -121 q 188 -78 254 -121 q 83 43 121 -36 q 44 228 44 122 q 133 583 44 403 q 363 881 221 764 q 653 999 504 999 q 747 960 710 999 q 707 963 725 963 q 469 846 590 963 q 268 554 347 729 q 189 219 189 379 q 237 23 189 100 q 385 -54 285 -54 q 606 61 506 -54 q 765 348 707 176 q 822 675 822 519 q 808 813 822 751 q 760 875 793 875 q 692 826 731 875 q 622 707 654 776 q 579 582 590 638 q 492 663 492 600 q 538 775 492 711 q 647 885 583 839 q 763 932 711 932 q 865 839 836 932 q 894 625 894 746 q 807 233 894 403 q 590 -29 719 63 q 336 -121 460 -121 m 957 1169 q 924 1215 924 1183 q 945 1267 924 1233 q 997 1328 967 1301 q 1051 1354 1026 1354 q 1093 1306 1088 1354 q 1025 1242 1068 1285 q 957 1169 982 1200 m 889 1033 q 847 1093 869 1068 q 789 1149 824 1118 q 647 1076 725 1128 q 633 1094 638 1082 q 629 1115 629 1106 q 660 1168 629 1140 q 730 1215 690 1196 q 790 1235 769 1235 q 844 1210 813 1235 q 900 1150 876 1185 q 924 1088 924 1115 q 915 1057 924 1072 q 889 1033 907 1042 z "},"Ộ":{"ha":910,"x_min":44,"x_max":924,"o":"m 336 -121 q 188 -78 254 -121 q 83 43 121 -36 q 44 228 44 122 q 133 583 44 403 q 363 881 221 764 q 653 999 504 999 q 747 960 710 999 q 707 963 725 963 q 469 846 590 963 q 268 554 347 729 q 189 219 189 379 q 237 23 189 100 q 385 -54 285 -54 q 606 61 506 -54 q 765 348 707 176 q 822 675 822 519 q 808 813 822 751 q 760 875 793 875 q 692 826 731 875 q 622 707 654 776 q 579 582 590 638 q 492 663 492 600 q 538 775 492 711 q 647 885 583 839 q 763 932 711 932 q 865 839 836 932 q 894 625 894 746 q 807 233 894 403 q 590 -29 719 63 q 336 -121 460 -121 m 889 1033 q 847 1093 869 1068 q 789 1149 824 1118 q 647 1076 725 1128 q 633 1094 638 1082 q 629 1115 629 1106 q 660 1168 629 1140 q 730 1215 690 1196 q 790 1235 769 1235 q 844 1210 813 1235 q 900 1150 876 1185 q 924 1088 924 1115 q 915 1057 924 1072 q 889 1033 907 1042 m 265 -351 q 220 -337 238 -351 q 203 -296 203 -322 q 233 -246 203 -267 q 299 -225 264 -225 q 340 -238 326 -225 q 354 -275 354 -251 q 326 -328 354 -306 q 265 -351 299 -351 z "},"Ồ":{"ha":910,"x_min":44,"x_max":1000,"o":"m 336 -121 q 188 -78 254 -121 q 83 43 121 -36 q 44 228 44 122 q 133 583 44 403 q 363 881 221 764 q 653 999 504 999 q 747 960 710 999 q 707 963 725 963 q 469 846 590 963 q 268 554 347 729 q 189 219 189 379 q 237 23 189 100 q 385 -54 285 -54 q 606 61 506 -54 q 765 348 707 176 q 822 675 822 519 q 808 813 822 751 q 760 875 793 875 q 692 826 731 875 q 622 707 654 776 q 579 582 590 638 q 492 663 492 600 q 538 775 492 711 q 647 885 583 839 q 763 932 711 932 q 865 839 836 932 q 894 625 894 746 q 807 233 894 403 q 590 -29 719 63 q 336 -121 460 -121 m 968 1165 q 910 1244 947 1197 q 849 1317 872 1292 q 890 1356 858 1356 q 940 1327 915 1356 q 983 1261 965 1299 q 1000 1206 1000 1224 q 968 1165 1000 1176 m 889 1033 q 847 1093 869 1068 q 789 1149 824 1118 q 647 1076 725 1128 q 633 1094 638 1082 q 629 1115 629 1106 q 660 1168 629 1140 q 730 1215 690 1196 q 790 1235 769 1235 q 844 1210 813 1235 q 900 1150 876 1185 q 924 1088 924 1115 q 915 1057 924 1072 q 889 1033 907 1042 z "},"Ổ":{"ha":910,"x_min":44,"x_max":1067,"o":"m 336 -121 q 188 -78 254 -121 q 83 43 121 -36 q 44 228 44 122 q 133 583 44 403 q 363 881 221 764 q 653 999 504 999 q 747 960 710 999 q 707 963 725 963 q 469 846 590 963 q 268 554 347 729 q 189 219 189 379 q 237 23 189 100 q 385 -54 285 -54 q 606 61 506 -54 q 765 348 707 176 q 822 675 822 519 q 808 813 822 751 q 760 875 793 875 q 692 826 731 875 q 622 707 654 776 q 579 582 590 638 q 492 663 492 600 q 538 775 492 711 q 647 885 583 839 q 763 932 711 932 q 865 839 836 932 q 894 625 894 746 q 807 233 894 403 q 590 -29 719 63 q 336 -121 460 -121 m 986 1158 q 940 1169 963 1158 q 1007 1226 1007 1185 q 879 1286 1007 1286 q 899 1339 879 1318 q 958 1360 919 1360 q 1036 1327 1006 1360 q 1067 1246 1067 1294 q 1044 1183 1067 1207 q 986 1158 1022 1158 m 889 1033 q 847 1093 869 1068 q 789 1149 824 1118 q 647 1076 725 1128 q 633 1094 638 1082 q 629 1115 629 1106 q 660 1168 629 1140 q 730 1215 690 1196 q 790 1235 769 1235 q 844 1210 813 1235 q 900 1150 876 1185 q 924 1088 924 1115 q 915 1057 924 1072 q 889 1033 907 1042 z "},"Ỗ":{"ha":910,"x_min":44,"x_max":1054,"o":"m 336 -121 q 188 -78 254 -121 q 83 43 121 -36 q 44 228 44 122 q 133 583 44 403 q 363 881 221 764 q 653 999 504 999 q 747 960 710 999 q 707 963 725 963 q 469 846 590 963 q 268 554 347 729 q 189 219 189 379 q 237 23 189 100 q 385 -54 285 -54 q 606 61 506 -54 q 765 348 707 176 q 822 675 822 519 q 808 813 822 751 q 760 875 793 875 q 692 826 731 875 q 622 707 654 776 q 579 582 590 638 q 492 663 492 600 q 538 775 492 711 q 647 885 583 839 q 763 932 711 932 q 865 839 836 932 q 894 625 894 746 q 807 233 894 403 q 590 -29 719 63 q 336 -121 460 -121 m 800 1053 q 711 1074 746 1053 q 660 1125 676 1094 q 644 1185 644 1156 q 683 1253 644 1231 q 721 1174 692 1206 q 803 1142 750 1142 q 929 1210 885 1142 q 949 1164 949 1194 q 904 1085 949 1117 q 800 1053 860 1053 m 938 1238 q 881 1247 910 1238 q 813 1272 853 1256 q 781 1285 806 1275 q 735 1299 756 1294 q 697 1304 714 1304 q 607 1286 649 1304 q 732 1368 640 1368 q 786 1360 758 1368 q 853 1335 814 1351 q 922 1310 896 1318 q 972 1301 947 1301 q 1054 1315 1014 1301 q 1006 1257 1033 1276 q 938 1238 979 1238 z "},"Ȍ":{"ha":910,"x_min":44,"x_max":894,"o":"m 336 -121 q 188 -78 254 -121 q 83 43 121 -36 q 44 228 44 122 q 133 583 44 403 q 363 881 221 764 q 653 999 504 999 q 747 960 710 999 q 707 963 725 963 q 469 846 590 963 q 268 554 347 729 q 189 219 189 379 q 237 23 189 100 q 385 -54 285 -54 q 606 61 506 -54 q 765 348 707 176 q 822 675 822 519 q 808 813 822 751 q 760 875 793 875 q 692 826 731 875 q 622 707 654 776 q 579 582 590 638 q 492 663 492 600 q 538 775 492 711 q 647 885 583 839 q 763 932 711 932 q 865 839 836 932 q 894 625 894 746 q 807 233 894 403 q 590 -29 719 63 q 336 -121 460 -121 m 707 1046 q 564 1219 640 1135 q 590 1239 578 1232 q 617 1246 601 1246 q 666 1215 639 1246 q 713 1144 693 1183 q 732 1088 732 1104 q 726 1063 732 1075 q 707 1046 719 1051 m 807 1047 q 704 1206 758 1138 q 751 1242 721 1242 q 797 1215 776 1242 q 829 1153 817 1189 q 842 1096 842 1118 q 832 1062 842 1074 q 807 1047 822 1050 z "},"Ö":{"ha":910,"x_min":44,"x_max":951,"o":"m 336 -121 q 188 -78 254 -121 q 83 43 121 -36 q 44 228 44 122 q 133 583 44 403 q 363 881 221 764 q 653 999 504 999 q 747 960 710 999 q 707 963 725 963 q 469 846 590 963 q 268 554 347 729 q 189 219 189 379 q 237 23 189 100 q 385 -54 285 -54 q 606 61 506 -54 q 765 348 707 176 q 822 675 822 519 q 808 813 822 751 q 760 875 793 875 q 692 826 731 875 q 622 707 654 776 q 579 582 590 638 q 492 663 492 600 q 538 775 492 711 q 647 885 583 839 q 763 932 711 932 q 865 839 836 932 q 894 625 894 746 q 807 233 894 403 q 590 -29 719 63 q 336 -121 460 -121 m 665 1074 q 623 1085 640 1074 q 606 1121 606 1097 q 636 1167 606 1146 q 699 1188 667 1188 q 749 1143 749 1188 q 722 1096 749 1118 q 665 1074 696 1074 m 865 1046 q 824 1058 842 1046 q 807 1093 807 1071 q 837 1140 807 1119 q 900 1160 867 1160 q 951 1114 951 1160 q 924 1068 951 1090 q 865 1046 897 1046 z "},"Ȫ":{"ha":910,"x_min":44,"x_max":1064,"o":"m 336 -121 q 188 -78 254 -121 q 83 43 121 -36 q 44 228 44 122 q 133 583 44 403 q 363 881 221 764 q 653 999 504 999 q 747 960 710 999 q 707 963 725 963 q 469 846 590 963 q 268 554 347 729 q 189 219 189 379 q 237 23 189 100 q 385 -54 285 -54 q 606 61 506 -54 q 765 348 707 176 q 822 675 822 519 q 808 813 822 751 q 760 875 793 875 q 692 826 731 875 q 622 707 654 776 q 579 582 590 638 q 492 663 492 600 q 538 775 492 711 q 647 885 583 839 q 763 932 711 932 q 865 839 836 932 q 894 625 894 746 q 807 233 894 403 q 590 -29 719 63 q 336 -121 460 -121 m 665 1074 q 623 1085 640 1074 q 606 1121 606 1097 q 636 1167 606 1146 q 699 1188 667 1188 q 749 1143 749 1188 q 722 1096 749 1118 q 665 1074 696 1074 m 865 1046 q 824 1058 842 1046 q 807 1093 807 1071 q 837 1140 807 1119 q 900 1160 867 1160 q 951 1114 951 1160 q 924 1068 951 1090 q 865 1046 897 1046 m 1007 1238 q 917 1247 971 1238 q 775 1276 864 1257 q 657 1300 678 1297 q 726 1342 672 1342 q 889 1322 796 1342 q 1064 1272 982 1301 q 1007 1238 1047 1238 z "},"Ȱ":{"ha":910,"x_min":44,"x_max":1035,"o":"m 336 -121 q 188 -78 254 -121 q 83 43 121 -36 q 44 228 44 122 q 133 583 44 403 q 363 881 221 764 q 653 999 504 999 q 747 960 710 999 q 707 963 725 963 q 469 846 590 963 q 268 554 347 729 q 189 219 189 379 q 237 23 189 100 q 385 -54 285 -54 q 606 61 506 -54 q 765 348 707 176 q 822 675 822 519 q 808 813 822 751 q 760 875 793 875 q 692 826 731 875 q 622 707 654 776 q 579 582 590 638 q 492 663 492 600 q 538 775 492 711 q 647 885 583 839 q 763 932 711 932 q 865 839 836 932 q 894 625 894 746 q 807 233 894 403 q 590 -29 719 63 q 336 -121 460 -121 m 749 1064 q 703 1078 721 1064 q 686 1119 686 1093 q 717 1169 686 1149 q 782 1190 747 1190 q 824 1177 810 1190 q 838 1140 838 1164 q 810 1088 838 1111 q 749 1064 782 1064 m 978 1232 q 888 1242 942 1232 q 746 1271 835 1251 q 628 1294 649 1292 q 697 1336 643 1336 q 860 1316 767 1336 q 1035 1267 953 1296 q 978 1232 1018 1232 z "},"Ọ":{"ha":910,"x_min":44,"x_max":894,"o":"m 336 -121 q 188 -78 254 -121 q 83 43 121 -36 q 44 228 44 122 q 133 583 44 403 q 363 881 221 764 q 653 999 504 999 q 747 960 710 999 q 707 963 725 963 q 469 846 590 963 q 268 554 347 729 q 189 219 189 379 q 237 23 189 100 q 385 -54 285 -54 q 606 61 506 -54 q 765 348 707 176 q 822 675 822 519 q 808 813 822 751 q 760 875 793 875 q 692 826 731 875 q 622 707 654 776 q 579 582 590 638 q 492 663 492 600 q 538 775 492 711 q 647 885 583 839 q 763 932 711 932 q 865 839 836 932 q 894 625 894 746 q 807 233 894 403 q 590 -29 719 63 q 336 -121 460 -121 m 265 -351 q 220 -337 238 -351 q 203 -296 203 -322 q 233 -246 203 -267 q 299 -225 264 -225 q 340 -238 326 -225 q 354 -275 354 -251 q 326 -328 354 -306 q 265 -351 299 -351 z "},"Ò":{"ha":910,"x_min":44,"x_max":894,"o":"m 336 -121 q 188 -78 254 -121 q 83 43 121 -36 q 44 228 44 122 q 133 583 44 403 q 363 881 221 764 q 653 999 504 999 q 747 960 710 999 q 707 963 725 963 q 469 846 590 963 q 268 554 347 729 q 189 219 189 379 q 237 23 189 100 q 385 -54 285 -54 q 606 61 506 -54 q 765 348 707 176 q 822 675 822 519 q 808 813 822 751 q 760 875 793 875 q 692 826 731 875 q 622 707 654 776 q 579 582 590 638 q 492 663 492 600 q 538 775 492 711 q 647 885 583 839 q 763 932 711 932 q 865 839 836 932 q 894 625 894 746 q 807 233 894 403 q 590 -29 719 63 q 336 -121 460 -121 m 754 1039 q 592 1192 686 1119 q 606 1232 593 1218 q 636 1246 619 1246 q 699 1215 663 1246 q 762 1146 735 1185 q 789 1089 789 1107 q 779 1061 789 1076 q 754 1039 769 1046 z "},"Ỏ":{"ha":910,"x_min":44,"x_max":894,"o":"m 336 -121 q 188 -78 254 -121 q 83 43 121 -36 q 44 228 44 122 q 133 583 44 403 q 363 881 221 764 q 653 999 504 999 q 747 960 710 999 q 707 963 725 963 q 469 846 590 963 q 268 554 347 729 q 189 219 189 379 q 237 23 189 100 q 385 -54 285 -54 q 606 61 506 -54 q 765 348 707 176 q 822 675 822 519 q 808 813 822 751 q 760 875 793 875 q 692 826 731 875 q 622 707 654 776 q 579 582 590 638 q 492 663 492 600 q 538 775 492 711 q 647 885 583 839 q 763 932 711 932 q 865 839 836 932 q 894 625 894 746 q 807 233 894 403 q 590 -29 719 63 q 336 -121 460 -121 m 768 1050 q 719 1065 740 1050 q 811 1131 811 1081 q 781 1169 811 1157 q 683 1182 750 1182 q 703 1235 683 1214 q 763 1256 724 1256 q 840 1225 810 1256 q 871 1149 871 1194 q 842 1077 871 1104 q 768 1050 814 1050 z "},"Ơ":{"ha":910,"x_min":44,"x_max":1010,"o":"m 936 1043 q 989 1017 968 1043 q 1010 950 1010 990 q 983 877 1010 907 q 913 847 956 847 q 854 864 883 847 q 894 625 894 783 q 807 233 894 403 q 590 -29 719 63 q 336 -121 460 -121 q 188 -78 254 -121 q 83 43 121 -36 q 44 228 44 122 q 133 583 44 403 q 363 881 221 764 q 653 999 504 999 q 747 960 710 999 q 707 963 725 963 q 469 846 590 963 q 268 554 347 729 q 189 219 189 379 q 237 23 189 100 q 385 -54 285 -54 q 606 61 506 -54 q 765 348 707 176 q 822 675 822 519 q 808 813 822 751 q 760 875 793 875 q 692 826 731 875 q 622 707 654 776 q 579 582 590 638 q 492 663 492 600 q 538 775 492 711 q 647 885 583 839 q 763 932 711 932 q 798 928 783 932 q 831 915 813 924 q 883 901 861 901 q 913 911 901 901 q 924 936 924 921 q 871 1010 924 976 q 936 1043 896 1043 z "},"Ớ":{"ha":910,"x_min":44,"x_max":1010,"o":"m 936 1043 q 989 1017 968 1043 q 1010 950 1010 990 q 983 877 1010 907 q 913 847 956 847 q 854 864 883 847 q 894 625 894 783 q 807 233 894 403 q 590 -29 719 63 q 336 -121 460 -121 q 188 -78 254 -121 q 83 43 121 -36 q 44 228 44 122 q 133 583 44 403 q 363 881 221 764 q 653 999 504 999 q 747 960 710 999 q 707 963 725 963 q 469 846 590 963 q 268 554 347 729 q 189 219 189 379 q 237 23 189 100 q 385 -54 285 -54 q 606 61 506 -54 q 765 348 707 176 q 822 675 822 519 q 808 813 822 751 q 760 875 793 875 q 692 826 731 875 q 622 707 654 776 q 579 582 590 638 q 492 663 492 600 q 538 775 492 711 q 647 885 583 839 q 763 932 711 932 q 798 928 783 932 q 831 915 813 924 q 883 901 861 901 q 913 911 901 901 q 924 936 924 921 q 871 1010 924 976 q 936 1043 896 1043 m 765 1039 q 741 1060 750 1046 q 732 1085 732 1075 q 757 1141 732 1101 q 815 1213 782 1181 q 875 1244 849 1244 q 917 1196 911 1244 q 894 1174 917 1196 q 822 1103 856 1138 q 765 1039 789 1069 z "},"Ợ":{"ha":910,"x_min":44,"x_max":1010,"o":"m 936 1043 q 989 1017 968 1043 q 1010 950 1010 990 q 983 877 1010 907 q 913 847 956 847 q 854 864 883 847 q 894 625 894 783 q 807 233 894 403 q 590 -29 719 63 q 336 -121 460 -121 q 188 -78 254 -121 q 83 43 121 -36 q 44 228 44 122 q 133 583 44 403 q 363 881 221 764 q 653 999 504 999 q 747 960 710 999 q 707 963 725 963 q 469 846 590 963 q 268 554 347 729 q 189 219 189 379 q 237 23 189 100 q 385 -54 285 -54 q 606 61 506 -54 q 765 348 707 176 q 822 675 822 519 q 808 813 822 751 q 760 875 793 875 q 692 826 731 875 q 622 707 654 776 q 579 582 590 638 q 492 663 492 600 q 538 775 492 711 q 647 885 583 839 q 763 932 711 932 q 798 928 783 932 q 831 915 813 924 q 883 901 861 901 q 913 911 901 901 q 924 936 924 921 q 871 1010 924 976 q 936 1043 896 1043 m 265 -351 q 220 -337 238 -351 q 203 -296 203 -322 q 233 -246 203 -267 q 299 -225 264 -225 q 340 -238 326 -225 q 354 -275 354 -251 q 326 -328 354 -306 q 265 -351 299 -351 z "},"Ờ":{"ha":910,"x_min":44,"x_max":1010,"o":"m 936 1043 q 989 1017 968 1043 q 1010 950 1010 990 q 983 877 1010 907 q 913 847 956 847 q 854 864 883 847 q 894 625 894 783 q 807 233 894 403 q 590 -29 719 63 q 336 -121 460 -121 q 188 -78 254 -121 q 83 43 121 -36 q 44 228 44 122 q 133 583 44 403 q 363 881 221 764 q 653 999 504 999 q 747 960 710 999 q 707 963 725 963 q 469 846 590 963 q 268 554 347 729 q 189 219 189 379 q 237 23 189 100 q 385 -54 285 -54 q 606 61 506 -54 q 765 348 707 176 q 822 675 822 519 q 808 813 822 751 q 760 875 793 875 q 692 826 731 875 q 622 707 654 776 q 579 582 590 638 q 492 663 492 600 q 538 775 492 711 q 647 885 583 839 q 763 932 711 932 q 798 928 783 932 q 831 915 813 924 q 883 901 861 901 q 913 911 901 901 q 924 936 924 921 q 871 1010 924 976 q 936 1043 896 1043 m 754 1039 q 592 1192 686 1119 q 606 1232 593 1218 q 636 1246 619 1246 q 699 1215 663 1246 q 762 1146 735 1185 q 789 1089 789 1107 q 779 1061 789 1076 q 754 1039 769 1046 z "},"Ở":{"ha":910,"x_min":44,"x_max":1010,"o":"m 936 1043 q 989 1017 968 1043 q 1010 950 1010 990 q 983 877 1010 907 q 913 847 956 847 q 854 864 883 847 q 894 625 894 783 q 807 233 894 403 q 590 -29 719 63 q 336 -121 460 -121 q 188 -78 254 -121 q 83 43 121 -36 q 44 228 44 122 q 133 583 44 403 q 363 881 221 764 q 653 999 504 999 q 747 960 710 999 q 707 963 725 963 q 469 846 590 963 q 268 554 347 729 q 189 219 189 379 q 237 23 189 100 q 385 -54 285 -54 q 606 61 506 -54 q 765 348 707 176 q 822 675 822 519 q 808 813 822 751 q 760 875 793 875 q 692 826 731 875 q 622 707 654 776 q 579 582 590 638 q 492 663 492 600 q 538 775 492 711 q 647 885 583 839 q 763 932 711 932 q 798 928 783 932 q 831 915 813 924 q 883 901 861 901 q 913 911 901 901 q 924 936 924 921 q 871 1010 924 976 q 936 1043 896 1043 m 768 1050 q 719 1065 740 1050 q 811 1131 811 1081 q 781 1169 811 1157 q 683 1182 750 1182 q 703 1235 683 1214 q 763 1256 724 1256 q 840 1225 810 1256 q 871 1149 871 1194 q 842 1077 871 1104 q 768 1050 814 1050 z "},"Ỡ":{"ha":910,"x_min":44,"x_max":1010,"o":"m 936 1043 q 989 1017 968 1043 q 1010 950 1010 990 q 983 877 1010 907 q 913 847 956 847 q 854 864 883 847 q 894 625 894 783 q 807 233 894 403 q 590 -29 719 63 q 336 -121 460 -121 q 188 -78 254 -121 q 83 43 121 -36 q 44 228 44 122 q 133 583 44 403 q 363 881 221 764 q 653 999 504 999 q 747 960 710 999 q 707 963 725 963 q 469 846 590 963 q 268 554 347 729 q 189 219 189 379 q 237 23 189 100 q 385 -54 285 -54 q 606 61 506 -54 q 765 348 707 176 q 822 675 822 519 q 808 813 822 751 q 760 875 793 875 q 692 826 731 875 q 622 707 654 776 q 579 582 590 638 q 492 663 492 600 q 538 775 492 711 q 647 885 583 839 q 763 932 711 932 q 798 928 783 932 q 831 915 813 924 q 883 901 861 901 q 913 911 901 901 q 924 936 924 921 q 871 1010 924 976 q 936 1043 896 1043 m 865 1049 q 809 1058 838 1049 q 740 1083 781 1067 q 708 1096 733 1086 q 663 1110 683 1106 q 625 1115 642 1115 q 535 1097 576 1115 q 660 1179 568 1179 q 714 1171 686 1179 q 781 1146 742 1163 q 849 1121 824 1129 q 900 1113 875 1113 q 982 1126 942 1113 q 934 1068 961 1088 q 865 1049 907 1049 z "},"Ő":{"ha":910,"x_min":44,"x_max":931,"o":"m 336 -121 q 188 -78 254 -121 q 83 43 121 -36 q 44 228 44 122 q 133 583 44 403 q 363 881 221 764 q 653 999 504 999 q 747 960 710 999 q 707 963 725 963 q 469 846 590 963 q 268 554 347 729 q 189 219 189 379 q 237 23 189 100 q 385 -54 285 -54 q 606 61 506 -54 q 765 348 707 176 q 822 675 822 519 q 808 813 822 751 q 760 875 793 875 q 692 826 731 875 q 622 707 654 776 q 579 582 590 638 q 492 663 492 600 q 538 775 492 711 q 647 885 583 839 q 763 932 711 932 q 865 839 836 932 q 894 625 894 746 q 807 233 894 403 q 590 -29 719 63 q 336 -121 460 -121 m 681 1061 q 650 1106 650 1071 q 666 1172 650 1131 q 706 1243 682 1213 q 754 1274 731 1274 q 799 1236 782 1274 q 681 1061 718 1138 m 775 1039 q 754 1078 754 1050 q 776 1141 754 1100 q 828 1213 797 1182 q 883 1244 858 1244 q 911 1235 900 1244 q 931 1207 922 1225 q 775 1039 850 1128 z "},"Ȏ":{"ha":910,"x_min":44,"x_max":924,"o":"m 336 -121 q 188 -78 254 -121 q 83 43 121 -36 q 44 228 44 122 q 133 583 44 403 q 363 881 221 764 q 653 999 504 999 q 747 960 710 999 q 707 963 725 963 q 469 846 590 963 q 268 554 347 729 q 189 219 189 379 q 237 23 189 100 q 385 -54 285 -54 q 606 61 506 -54 q 765 348 707 176 q 822 675 822 519 q 808 813 822 751 q 760 875 793 875 q 692 826 731 875 q 622 707 654 776 q 579 582 590 638 q 492 663 492 600 q 538 775 492 711 q 647 885 583 839 q 763 932 711 932 q 865 839 836 932 q 894 625 894 746 q 807 233 894 403 q 590 -29 719 63 q 336 -121 460 -121 m 885 1019 q 847 1099 876 1067 q 765 1131 818 1131 q 639 1063 683 1131 q 619 1108 619 1078 q 664 1188 619 1156 q 768 1219 708 1219 q 857 1199 822 1219 q 908 1147 892 1178 q 924 1088 924 1117 q 885 1019 924 1042 z "},"Ō":{"ha":910,"x_min":44,"x_max":942,"o":"m 336 -121 q 188 -78 254 -121 q 83 43 121 -36 q 44 228 44 122 q 133 583 44 403 q 363 881 221 764 q 653 999 504 999 q 747 960 710 999 q 707 963 725 963 q 469 846 590 963 q 268 554 347 729 q 189 219 189 379 q 237 23 189 100 q 385 -54 285 -54 q 606 61 506 -54 q 765 348 707 176 q 822 675 822 519 q 808 813 822 751 q 760 875 793 875 q 692 826 731 875 q 622 707 654 776 q 579 582 590 638 q 492 663 492 600 q 538 775 492 711 q 647 885 583 839 q 763 932 711 932 q 865 839 836 932 q 894 625 894 746 q 807 233 894 403 q 590 -29 719 63 q 336 -121 460 -121 m 885 1053 q 795 1063 849 1053 q 653 1092 742 1072 q 535 1115 556 1113 q 604 1157 550 1157 q 767 1137 674 1157 q 942 1088 860 1117 q 885 1053 925 1053 z "},"Ǫ":{"ha":910,"x_min":44,"x_max":894,"o":"m 465 -96 q 425 -175 425 -128 q 440 -217 425 -200 q 483 -233 456 -233 q 564 -204 525 -233 q 535 -281 563 -253 q 461 -308 507 -308 q 386 -280 415 -308 q 357 -206 357 -251 q 372 -151 357 -175 q 414 -111 388 -126 q 336 -121 376 -121 q 188 -78 254 -121 q 83 43 121 -36 q 44 228 44 122 q 133 583 44 403 q 363 881 221 764 q 653 999 504 999 q 747 960 710 999 q 707 963 725 963 q 469 846 590 963 q 268 554 347 729 q 189 219 189 379 q 237 23 189 100 q 385 -54 285 -54 q 606 61 506 -54 q 765 348 707 176 q 822 675 822 519 q 808 813 822 751 q 760 875 793 875 q 692 826 731 875 q 622 707 654 776 q 579 582 590 638 q 492 663 492 600 q 538 775 492 711 q 647 885 583 839 q 763 932 711 932 q 865 839 836 932 q 894 625 894 746 q 833 290 894 440 q 673 42 771 140 q 465 -96 575 -56 z "},"Ø":{"ha":908,"x_min":42,"x_max":986,"o":"m 97 -140 q 44 -133 79 -140 q 144 -47 97 -99 q 42 231 42 51 q 131 583 42 403 q 359 880 219 763 q 639 997 499 997 q 690 990 668 997 q 726 961 711 982 l 707 961 q 467 844 589 961 q 267 553 346 728 q 188 219 188 379 q 224 39 188 110 q 794 838 435 294 q 778 865 786 856 q 758 874 771 874 q 690 824 728 874 q 619 703 651 774 q 576 581 588 633 q 490 661 490 600 q 536 773 490 708 q 645 884 582 838 q 757 931 708 931 q 833 892 801 931 q 879 919 844 907 q 946 932 914 932 q 986 928 963 932 q 921 835 963 896 l 881 776 q 894 633 894 715 q 807 233 894 406 q 590 -31 719 61 q 338 -122 460 -122 q 218 -97 278 -122 q 154 -129 186 -118 q 97 -140 122 -140 m 379 -56 q 606 60 504 -56 q 764 351 707 176 q 821 690 821 526 q 376 64 515 256 q 293 -35 328 -1 q 379 -56 332 -56 z "},"Ǿ":{"ha":908,"x_min":42,"x_max":986,"o":"m 97 -140 q 44 -133 79 -140 q 144 -47 97 -99 q 42 231 42 51 q 131 583 42 403 q 359 880 219 763 q 639 997 499 997 q 690 990 668 997 q 726 961 711 982 l 707 961 q 467 844 589 961 q 267 553 346 728 q 188 219 188 379 q 224 39 188 110 q 794 838 435 294 q 778 865 786 856 q 758 874 771 874 q 690 824 728 874 q 619 703 651 774 q 576 581 588 633 q 490 661 490 600 q 536 773 490 708 q 645 884 582 838 q 757 931 708 931 q 833 892 801 931 q 879 919 844 907 q 946 932 914 932 q 986 928 963 932 q 921 835 963 896 l 881 776 q 894 633 894 715 q 807 233 894 406 q 590 -31 719 61 q 338 -122 460 -122 q 218 -97 278 -122 q 154 -129 186 -118 q 97 -140 122 -140 m 379 -56 q 606 60 504 -56 q 764 351 707 176 q 821 690 821 526 q 376 64 515 256 q 293 -35 328 -1 q 379 -56 332 -56 m 765 1039 q 741 1060 750 1046 q 732 1085 732 1075 q 757 1141 732 1101 q 815 1213 782 1181 q 875 1244 849 1244 q 917 1196 911 1244 q 894 1174 917 1196 q 822 1103 856 1138 q 765 1039 789 1069 z "},"Õ":{"ha":910,"x_min":44,"x_max":982,"o":"m 336 -121 q 188 -78 254 -121 q 83 43 121 -36 q 44 228 44 122 q 133 583 44 403 q 363 881 221 764 q 653 999 504 999 q 747 960 710 999 q 707 963 725 963 q 469 846 590 963 q 268 554 347 729 q 189 219 189 379 q 237 23 189 100 q 385 -54 285 -54 q 606 61 506 -54 q 765 348 707 176 q 822 675 822 519 q 808 813 822 751 q 760 875 793 875 q 692 826 731 875 q 622 707 654 776 q 579 582 590 638 q 492 663 492 600 q 538 775 492 711 q 647 885 583 839 q 763 932 711 932 q 865 839 836 932 q 894 625 894 746 q 807 233 894 403 q 590 -29 719 63 q 336 -121 460 -121 m 865 1049 q 809 1058 838 1049 q 740 1083 781 1067 q 708 1096 733 1086 q 663 1110 683 1106 q 625 1115 642 1115 q 535 1097 576 1115 q 660 1179 568 1179 q 714 1171 686 1179 q 781 1146 742 1163 q 849 1121 824 1129 q 900 1113 875 1113 q 982 1126 942 1113 q 934 1068 961 1088 q 865 1049 907 1049 z "},"Ȭ":{"ha":910,"x_min":44,"x_max":1047,"o":"m 336 -121 q 188 -78 254 -121 q 83 43 121 -36 q 44 228 44 122 q 133 583 44 403 q 363 881 221 764 q 653 999 504 999 q 747 960 710 999 q 707 963 725 963 q 469 846 590 963 q 268 554 347 729 q 189 219 189 379 q 237 23 189 100 q 385 -54 285 -54 q 606 61 506 -54 q 765 348 707 176 q 822 675 822 519 q 808 813 822 751 q 760 875 793 875 q 692 826 731 875 q 622 707 654 776 q 579 582 590 638 q 492 663 492 600 q 538 775 492 711 q 647 885 583 839 q 763 932 711 932 q 865 839 836 932 q 894 625 894 746 q 807 233 894 403 q 590 -29 719 63 q 336 -121 460 -121 m 865 1049 q 809 1058 838 1049 q 740 1083 781 1067 q 708 1096 733 1086 q 663 1110 683 1106 q 625 1115 642 1115 q 535 1097 576 1115 q 660 1179 568 1179 q 714 1171 686 1179 q 781 1146 742 1163 q 849 1121 824 1129 q 900 1113 875 1113 q 982 1126 942 1113 q 934 1068 961 1088 q 865 1049 907 1049 m 990 1218 q 901 1228 954 1218 q 758 1257 847 1238 q 640 1281 661 1278 q 710 1322 656 1322 q 872 1302 779 1322 q 1047 1253 965 1282 q 990 1218 1031 1218 z "},"Œ":{"ha":1178,"x_min":44,"x_max":1219,"o":"m 371 -121 q 133 -33 222 -121 q 44 228 44 56 q 133 583 44 403 q 360 881 221 764 q 638 999 499 999 q 692 991 669 999 q 729 963 714 983 q 476 847 603 963 q 269 556 350 731 q 189 219 189 381 q 237 24 189 101 q 381 -54 285 -54 q 579 61 488 -54 q 724 351 671 176 q 778 686 778 525 q 766 817 778 774 q 738 860 754 860 q 578 582 688 860 q 513 613 535 592 q 492 660 492 633 q 535 772 492 708 q 642 883 579 836 q 754 933 704 931 q 925 938 825 938 q 1219 911 1136 938 q 1138 860 1206 874 q 963 846 1069 846 q 921 847 936 846 l 858 849 q 868 793 864 828 q 872 731 872 758 q 869 615 872 676 q 861 517 865 553 q 1157 501 1060 514 q 1088 438 1142 461 q 944 415 1035 415 q 844 418 900 415 q 792 208 815 288 q 733 65 769 129 q 640 -40 696 0 q 851 -42 707 -42 l 932 -39 q 1024 -36 999 -36 q 1065 -40 1049 -36 q 915 -101 1050 -81 q 621 -122 779 -122 l 371 -121 z "},"P":{"ha":776,"x_min":47,"x_max":872,"o":"m 163 -121 q 83 -98 119 -121 q 47 -42 47 -75 q 65 36 47 -18 q 238 547 172 364 q 397 940 303 731 q 251 885 326 924 q 211 868 218 868 q 178 888 199 868 q 158 922 158 908 q 485 1000 344 1000 q 666 968 576 1000 q 814 874 756 936 q 872 728 872 813 q 765 522 872 594 q 531 426 658 450 q 317 401 404 401 l 308 401 l 231 122 q 163 -121 201 11 m 321 444 q 531 488 432 451 q 694 590 631 524 q 757 750 757 657 q 683 897 757 846 q 504 951 610 949 q 321 444 421 790 z "},"Þ":{"ha":754,"x_min":68,"x_max":796,"o":"m 185 -121 q 104 -98 140 -121 q 68 -42 68 -75 q 86 36 68 -18 q 336 753 228 478 q 256 731 290 744 q 176 694 222 717 q 138 678 143 678 q 103 697 125 678 q 82 732 82 717 q 360 807 244 796 l 376 850 q 427 957 403 919 q 490 994 451 994 q 535 969 513 994 q 464 807 494 889 q 698 719 600 789 q 796 529 796 649 q 705 343 796 413 q 495 244 614 274 q 276 211 376 215 q 226 29 256 142 q 185 -121 201 -65 m 289 258 q 567 356 453 279 q 682 558 682 433 q 613 705 682 656 q 444 758 544 754 q 289 258 375 569 z "},"Q":{"ha":1011,"x_min":61,"x_max":940,"o":"m 776 -165 q 663 -136 717 -165 q 542 -54 608 -107 q 393 -89 469 -89 q 291 -67 328 -89 q 241 -16 254 -44 q 228 36 228 13 q 256 96 228 69 q 342 122 283 122 q 444 101 394 122 q 571 36 493 81 q 703 220 646 104 q 790 463 760 336 q 821 689 821 589 q 774 875 821 807 q 631 943 728 943 q 401 830 504 943 q 239 547 297 717 q 181 218 181 378 q 197 79 181 143 q 92 135 124 79 q 61 279 61 190 q 137 620 61 453 q 343 894 213 788 q 631 1000 474 1000 q 857 908 774 1000 q 940 656 940 817 q 900 419 940 543 q 790 184 860 294 q 632 3 719 74 q 831 -51 740 -51 q 878 -47 861 -51 q 899 -40 896 -42 q 929 -31 913 -35 q 776 -165 889 -165 m 368 -47 q 492 -14 422 -47 q 404 48 443 26 q 326 69 365 69 q 284 58 299 69 q 269 26 269 47 q 294 -24 269 -1 q 368 -47 318 -47 z "},"R":{"ha":856,"x_min":43,"x_max":864,"o":"m 701 -168 q 574 -81 650 -168 q 421 128 497 6 q 290 360 344 250 q 207 65 265 274 l 154 -122 q 77 -99 111 -122 q 43 -42 43 -76 q 51 1 43 -25 q 63 35 60 28 q 230 523 169 360 q 403 943 290 686 q 244 883 328 928 q 224 874 236 881 q 206 868 211 868 q 172 888 193 868 q 150 922 150 907 q 315 978 233 956 q 485 1000 397 1000 q 663 972 576 1000 q 807 883 750 943 q 864 732 864 822 q 769 546 864 613 q 555 456 674 479 q 338 429 436 432 l 374 372 q 490 194 440 265 q 613 47 540 124 q 786 -107 686 -31 q 753 -151 781 -133 q 701 -168 726 -168 m 322 471 q 624 556 499 483 q 749 760 749 629 q 678 903 749 858 q 500 951 607 949 q 322 471 422 796 z "},"Ŕ":{"ha":856,"x_min":43,"x_max":864,"o":"m 701 -168 q 574 -81 650 -168 q 421 128 497 6 q 290 360 344 250 q 207 65 265 274 l 154 -122 q 77 -99 111 -122 q 43 -42 43 -76 q 51 1 43 -25 q 63 35 60 28 q 230 523 169 360 q 403 943 290 686 q 244 883 328 928 q 224 874 236 881 q 206 868 211 868 q 172 888 193 868 q 150 922 150 907 q 315 978 233 956 q 485 1000 397 1000 q 663 972 576 1000 q 807 883 750 943 q 864 732 864 822 q 769 546 864 613 q 555 456 674 479 q 338 429 436 432 l 374 372 q 490 194 440 265 q 613 47 540 124 q 786 -107 686 -31 q 753 -151 781 -133 q 701 -168 726 -168 m 322 471 q 624 556 499 483 q 749 760 749 629 q 678 903 749 858 q 500 951 607 949 q 322 471 422 796 m 697 1039 q 673 1060 682 1046 q 664 1085 664 1075 q 689 1141 664 1101 q 747 1213 714 1181 q 807 1244 781 1244 q 849 1196 843 1244 q 826 1174 849 1196 q 754 1103 788 1138 q 697 1039 721 1069 z "},"Ř":{"ha":856,"x_min":43,"x_max":864,"o":"m 701 -168 q 574 -81 650 -168 q 421 128 497 6 q 290 360 344 250 q 207 65 265 274 l 154 -122 q 77 -99 111 -122 q 43 -42 43 -76 q 51 1 43 -25 q 63 35 60 28 q 230 523 169 360 q 403 943 290 686 q 244 883 328 928 q 224 874 236 881 q 206 868 211 868 q 172 888 193 868 q 150 922 150 907 q 315 978 233 956 q 485 1000 397 1000 q 663 972 576 1000 q 807 883 750 943 q 864 732 864 822 q 769 546 864 613 q 555 456 674 479 q 338 429 436 432 l 374 372 q 490 194 440 265 q 613 47 540 124 q 786 -107 686 -31 q 753 -151 781 -133 q 701 -168 726 -168 m 322 471 q 624 556 499 483 q 749 760 749 629 q 678 903 749 858 q 500 951 607 949 q 322 471 422 796 m 668 1047 q 610 1076 643 1047 q 552 1144 576 1104 q 528 1214 528 1183 q 561 1264 528 1249 q 668 1128 603 1186 q 810 1211 746 1160 q 826 1193 819 1204 q 833 1171 833 1182 q 802 1116 833 1144 q 730 1067 771 1088 q 668 1047 689 1047 z "},"Ŗ":{"ha":856,"x_min":43,"x_max":864,"o":"m 701 -168 q 574 -81 650 -168 q 421 128 497 6 q 290 360 344 250 q 207 65 265 274 l 154 -122 q 77 -99 111 -122 q 43 -42 43 -76 q 51 1 43 -25 q 63 35 60 28 q 230 523 169 360 q 403 943 290 686 q 244 883 328 928 q 224 874 236 881 q 206 868 211 868 q 172 888 193 868 q 150 922 150 907 q 315 978 233 956 q 485 1000 397 1000 q 663 972 576 1000 q 807 883 750 943 q 864 732 864 822 q 769 546 864 613 q 555 456 674 479 q 338 429 436 432 l 374 372 q 490 194 440 265 q 613 47 540 124 q 786 -107 686 -31 q 753 -151 781 -133 q 701 -168 726 -168 m 322 471 q 624 556 499 483 q 749 760 749 629 q 678 903 749 858 q 500 951 607 949 q 322 471 422 796 m 310 -360 q 272 -299 272 -337 q 285 -237 272 -271 q 317 -179 297 -203 q 360 -156 338 -156 q 391 -169 378 -156 q 404 -201 404 -183 q 362 -258 378 -231 q 331 -317 346 -286 q 310 -360 315 -347 z "},"Ȑ":{"ha":856,"x_min":43,"x_max":864,"o":"m 701 -168 q 574 -81 650 -168 q 421 128 497 6 q 290 360 344 250 q 207 65 265 274 l 154 -122 q 77 -99 111 -122 q 43 -42 43 -76 q 51 1 43 -25 q 63 35 60 28 q 230 523 169 360 q 403 943 290 686 q 244 883 328 928 q 224 874 236 881 q 206 868 211 868 q 172 888 193 868 q 150 922 150 907 q 315 978 233 956 q 485 1000 397 1000 q 663 972 576 1000 q 807 883 750 943 q 864 732 864 822 q 769 546 864 613 q 555 456 674 479 q 338 429 436 432 l 374 372 q 490 194 440 265 q 613 47 540 124 q 786 -107 686 -31 q 753 -151 781 -133 q 701 -168 726 -168 m 322 471 q 624 556 499 483 q 749 760 749 629 q 678 903 749 858 q 500 951 607 949 q 322 471 422 796 m 639 1046 q 496 1219 572 1135 q 522 1239 510 1232 q 549 1246 533 1246 q 598 1215 571 1246 q 644 1144 625 1183 q 664 1088 664 1104 q 658 1063 664 1075 q 639 1046 651 1051 m 739 1047 q 636 1206 690 1138 q 683 1242 653 1242 q 728 1215 708 1242 q 761 1153 749 1189 q 774 1096 774 1118 q 764 1062 774 1074 q 739 1047 754 1050 z "},"Ȓ":{"ha":856,"x_min":43,"x_max":864,"o":"m 701 -168 q 574 -81 650 -168 q 421 128 497 6 q 290 360 344 250 q 207 65 265 274 l 154 -122 q 77 -99 111 -122 q 43 -42 43 -76 q 51 1 43 -25 q 63 35 60 28 q 230 523 169 360 q 403 943 290 686 q 244 883 328 928 q 224 874 236 881 q 206 868 211 868 q 172 888 193 868 q 150 922 150 907 q 315 978 233 956 q 485 1000 397 1000 q 663 972 576 1000 q 807 883 750 943 q 864 732 864 822 q 769 546 864 613 q 555 456 674 479 q 338 429 436 432 l 374 372 q 490 194 440 265 q 613 47 540 124 q 786 -107 686 -31 q 753 -151 781 -133 q 701 -168 726 -168 m 322 471 q 624 556 499 483 q 749 760 749 629 q 678 903 749 858 q 500 951 607 949 q 322 471 422 796 m 817 1019 q 779 1099 808 1067 q 697 1131 750 1131 q 571 1063 615 1131 q 551 1108 551 1078 q 596 1188 551 1156 q 700 1219 640 1219 q 789 1199 754 1219 q 840 1147 824 1178 q 856 1088 856 1117 q 817 1019 856 1042 z "},"S":{"ha":788,"x_min":6,"x_max":732,"o":"m 324 -121 q 167 -92 239 -121 q 50 -6 94 -64 q 6 133 6 51 q 69 281 6 236 q 219 326 133 326 q 152 231 175 281 q 129 133 129 181 q 187 6 129 58 q 347 -47 244 -47 q 472 -26 413 -47 q 567 39 531 -4 q 604 140 604 82 q 575 232 604 192 q 503 301 546 272 q 389 369 461 331 q 265 443 313 411 q 186 522 218 475 q 154 629 154 568 q 206 796 154 708 q 350 942 257 883 q 558 1000 443 1000 q 732 854 732 1000 q 698 697 732 783 q 621 543 664 610 q 560 614 560 556 q 570 674 560 640 q 600 756 581 708 q 629 839 619 808 q 639 894 639 869 q 623 934 639 921 q 565 947 607 947 q 413 900 482 947 q 302 785 343 853 q 261 661 261 718 q 286 586 261 619 q 349 528 311 553 q 453 469 388 504 q 584 392 535 425 q 669 306 633 358 q 704 179 704 253 q 649 19 704 88 q 506 -85 594 -49 q 324 -121 418 -121 z "},"Ś":{"ha":788,"x_min":6,"x_max":814,"o":"m 324 -121 q 167 -92 239 -121 q 50 -6 94 -64 q 6 133 6 51 q 69 281 6 236 q 219 326 133 326 q 152 231 175 281 q 129 133 129 181 q 187 6 129 58 q 347 -47 244 -47 q 472 -26 413 -47 q 567 39 531 -4 q 604 140 604 82 q 575 232 604 192 q 503 301 546 272 q 389 369 461 331 q 265 443 313 411 q 186 522 218 475 q 154 629 154 568 q 206 796 154 708 q 350 942 257 883 q 558 1000 443 1000 q 732 854 732 1000 q 698 697 732 783 q 621 543 664 610 q 560 614 560 556 q 570 674 560 640 q 600 756 581 708 q 629 839 619 808 q 639 894 639 869 q 623 934 639 921 q 565 947 607 947 q 413 900 482 947 q 302 785 343 853 q 261 661 261 718 q 286 586 261 619 q 349 528 311 553 q 453 469 388 504 q 584 392 535 425 q 669 306 633 358 q 704 179 704 253 q 649 19 704 88 q 506 -85 594 -49 q 324 -121 418 -121 m 663 1025 q 638 1047 647 1032 q 629 1071 629 1061 q 654 1127 629 1088 q 713 1199 679 1167 q 772 1231 746 1231 q 814 1182 808 1231 q 792 1160 814 1182 q 719 1090 753 1124 q 663 1025 686 1056 z "},"Š":{"ha":788,"x_min":6,"x_max":799,"o":"m 324 -121 q 167 -92 239 -121 q 50 -6 94 -64 q 6 133 6 51 q 69 281 6 236 q 219 326 133 326 q 152 231 175 281 q 129 133 129 181 q 187 6 129 58 q 347 -47 244 -47 q 472 -26 413 -47 q 567 39 531 -4 q 604 140 604 82 q 575 232 604 192 q 503 301 546 272 q 389 369 461 331 q 265 443 313 411 q 186 522 218 475 q 154 629 154 568 q 206 796 154 708 q 350 942 257 883 q 558 1000 443 1000 q 732 854 732 1000 q 698 697 732 783 q 621 543 664 610 q 560 614 560 556 q 570 674 560 640 q 600 756 581 708 q 629 839 619 808 q 639 894 639 869 q 623 934 639 921 q 565 947 607 947 q 413 900 482 947 q 302 785 343 853 q 261 661 261 718 q 286 586 261 619 q 349 528 311 553 q 453 469 388 504 q 584 392 535 425 q 669 306 633 358 q 704 179 704 253 q 649 19 704 88 q 506 -85 594 -49 q 324 -121 418 -121 m 633 1033 q 575 1062 608 1033 q 517 1130 542 1090 q 493 1200 493 1169 q 526 1250 493 1235 q 633 1114 568 1172 q 775 1197 711 1146 q 792 1179 785 1190 q 799 1157 799 1168 q 767 1102 799 1131 q 695 1053 736 1074 q 633 1033 654 1033 z "},"Ş":{"ha":788,"x_min":6,"x_max":732,"o":"m 261 661 q 286 586 261 619 q 349 528 311 553 q 453 469 388 504 q 584 392 535 425 q 669 306 633 358 q 704 179 704 253 q 649 19 704 88 q 506 -85 594 -49 q 324 -121 418 -121 l 318 -121 l 265 -206 q 340 -189 311 -189 q 394 -207 374 -189 q 415 -258 415 -225 q 390 -335 415 -296 q 322 -399 364 -374 q 232 -425 279 -425 q 167 -407 193 -425 q 140 -368 140 -389 q 151 -340 140 -356 q 185 -308 163 -324 q 240 -371 203 -371 q 289 -351 263 -371 q 334 -303 315 -331 q 353 -256 353 -276 q 331 -233 353 -233 q 301 -242 318 -233 q 267 -262 283 -251 q 247 -274 264 -264 q 221 -285 231 -285 q 201 -273 210 -285 q 192 -250 192 -261 q 228 -197 192 -246 q 290 -119 264 -149 q 88 -45 169 -111 q 6 133 6 21 q 69 281 6 236 q 219 326 133 326 q 152 231 175 281 q 129 133 129 181 q 187 6 129 58 q 347 -47 244 -47 q 472 -26 413 -47 q 567 39 531 -4 q 604 140 604 82 q 575 232 604 192 q 503 301 546 272 q 389 369 461 331 q 265 443 313 411 q 186 522 218 475 q 154 629 154 568 q 206 796 154 708 q 350 942 257 883 q 558 1000 443 1000 q 732 854 732 1000 q 698 697 732 783 q 621 543 664 610 q 560 614 560 556 q 570 674 560 640 q 600 756 581 708 q 629 839 619 808 q 639 894 639 869 q 623 934 639 921 q 565 947 607 947 q 413 900 482 947 q 302 785 343 853 q 261 661 261 718 z "},"Ŝ":{"ha":788,"x_min":6,"x_max":821,"o":"m 324 -121 q 167 -92 239 -121 q 50 -6 94 -64 q 6 133 6 51 q 69 281 6 236 q 219 326 133 326 q 152 231 175 281 q 129 133 129 181 q 187 6 129 58 q 347 -47 244 -47 q 472 -26 413 -47 q 567 39 531 -4 q 604 140 604 82 q 575 232 604 192 q 503 301 546 272 q 389 369 461 331 q 265 443 313 411 q 186 522 218 475 q 154 629 154 568 q 206 796 154 708 q 350 942 257 883 q 558 1000 443 1000 q 732 854 732 1000 q 698 697 732 783 q 621 543 664 610 q 560 614 560 556 q 570 674 560 640 q 600 756 581 708 q 629 839 619 808 q 639 894 639 869 q 623 934 639 921 q 565 947 607 947 q 413 900 482 947 q 302 785 343 853 q 261 661 261 718 q 286 586 261 619 q 349 528 311 553 q 453 469 388 504 q 584 392 535 425 q 669 306 633 358 q 704 179 704 253 q 649 19 704 88 q 506 -85 594 -49 q 324 -121 418 -121 m 786 1019 q 744 1079 767 1054 q 686 1135 721 1104 q 544 1063 622 1114 q 531 1080 535 1068 q 526 1101 526 1092 q 557 1154 526 1126 q 627 1201 588 1182 q 688 1221 667 1221 q 742 1196 710 1221 q 797 1136 774 1171 q 821 1074 821 1101 q 813 1043 821 1058 q 786 1019 804 1028 z "},"Ș":{"ha":788,"x_min":6,"x_max":732,"o":"m 324 -121 q 167 -92 239 -121 q 50 -6 94 -64 q 6 133 6 51 q 69 281 6 236 q 219 326 133 326 q 152 231 175 281 q 129 133 129 181 q 187 6 129 58 q 347 -47 244 -47 q 472 -26 413 -47 q 567 39 531 -4 q 604 140 604 82 q 575 232 604 192 q 503 301 546 272 q 389 369 461 331 q 265 443 313 411 q 186 522 218 475 q 154 629 154 568 q 206 796 154 708 q 350 942 257 883 q 558 1000 443 1000 q 732 854 732 1000 q 698 697 732 783 q 621 543 664 610 q 560 614 560 556 q 570 674 560 640 q 600 756 581 708 q 629 839 619 808 q 639 894 639 869 q 623 934 639 921 q 565 947 607 947 q 413 900 482 947 q 302 785 343 853 q 261 661 261 718 q 286 586 261 619 q 349 528 311 553 q 453 469 388 504 q 584 392 535 425 q 669 306 633 358 q 704 179 704 253 q 649 19 704 88 q 506 -85 594 -49 q 324 -121 418 -121 m 272 -383 q 235 -322 235 -361 q 247 -260 235 -294 q 280 -203 260 -226 q 322 -179 300 -179 q 353 -193 340 -179 q 367 -225 367 -207 q 324 -282 340 -254 q 293 -340 308 -310 q 272 -383 278 -371 z "},"ẞ":{"ha":833,"x_min":13,"x_max":792,"o":"m 185 -121 q 56 -92 99 -121 q 13 -1 13 -64 q 28 13 13 13 q 66 6 36 13 q 164 0 96 0 q 438 45 314 0 q 632 164 561 90 q 703 318 703 238 q 639 446 703 407 q 474 485 575 485 q 421 514 421 485 q 439 544 421 528 q 675 801 592 679 q 708 890 708 849 q 674 935 708 918 q 590 951 639 951 q 364 760 436 951 q 276 492 322 650 q 144 33 226 329 q 72 53 101 33 q 42 103 42 74 q 50 147 42 121 q 61 182 58 174 q 145 422 88 264 q 263 722 203 581 q 405 940 329 879 q 590 1000 481 1000 q 692 983 646 1000 q 765 938 738 967 q 792 876 792 910 q 744 767 792 826 q 504 525 647 638 q 789 285 789 511 q 687 67 789 160 q 442 -73 585 -25 q 185 -121 300 -121 z "},"Ə":{"ha":793,"x_min":13,"x_max":801,"o":"m 492 999 q 662 952 592 999 q 767 827 732 906 q 801 656 801 749 q 713 295 801 476 q 488 -3 625 114 q 211 -121 350 -121 q 65 -69 118 -121 q 13 68 13 -17 q 102 299 13 189 q 341 487 192 408 q 663 597 490 565 q 667 668 667 635 q 624 859 667 786 q 486 932 582 932 q 339 890 407 932 q 222 772 271 847 q 153 601 174 697 q 92 617 115 601 q 68 668 68 633 q 131 812 68 733 q 291 944 193 890 q 492 999 389 999 m 219 -60 q 397 34 304 -60 q 562 273 490 128 q 657 560 633 418 q 290 324 432 465 q 147 24 147 183 q 166 -37 147 -15 q 219 -60 185 -60 z "},"T":{"ha":750,"x_min":106,"x_max":967,"o":"m 324 -121 q 188 -14 190 -121 q 201 72 188 22 q 236 190 214 121 q 334 459 282 329 q 463 769 386 589 l 513 888 q 288 878 375 886 q 106 854 201 871 q 208 968 114 936 q 474 1000 303 1000 q 753 983 586 1000 q 967 969 899 969 q 819 902 911 917 q 597 888 726 888 q 372 199 483 607 q 330 29 340 81 q 319 -81 319 -22 q 324 -121 319 -100 z "},"Ŧ":{"ha":751,"x_min":86,"x_max":967,"o":"m 597 888 q 490 594 549 769 q 790 583 671 592 q 750 539 785 554 q 649 519 715 524 q 464 513 583 514 q 372 199 419 375 q 330 29 340 81 q 319 -81 319 -22 q 324 -121 319 -100 q 188 -14 190 -121 q 201 72 188 22 q 236 190 214 121 q 356 513 292 356 q 194 506 256 511 q 86 490 133 501 q 179 566 89 538 q 389 594 269 594 l 494 844 q 504 869 500 858 q 513 888 508 879 q 288 878 375 886 q 106 854 201 871 q 208 968 114 936 q 474 1000 303 1000 q 753 983 586 1000 q 967 969 899 969 q 819 902 911 917 q 597 888 726 888 z "},"Ť":{"ha":750,"x_min":106,"x_max":967,"o":"m 324 -121 q 188 -14 190 -121 q 201 72 188 22 q 236 190 214 121 q 334 459 282 329 q 463 769 386 589 l 513 888 q 288 878 375 886 q 106 854 201 871 q 208 968 114 936 q 474 1000 303 1000 q 753 983 586 1000 q 967 969 899 969 q 819 902 911 917 q 597 888 726 888 q 372 199 483 607 q 330 29 340 81 q 319 -81 319 -22 q 324 -121 319 -100 m 629 1047 q 571 1076 604 1047 q 513 1144 538 1104 q 489 1214 489 1183 q 522 1264 489 1249 q 629 1128 564 1186 q 771 1211 707 1160 q 788 1193 781 1204 q 794 1171 794 1182 q 763 1116 794 1144 q 691 1067 732 1088 q 629 1047 650 1047 z "},"Ţ":{"ha":750,"x_min":76,"x_max":967,"o":"m 753 983 q 967 969 899 969 q 819 902 911 917 q 597 888 726 888 q 372 199 483 607 q 330 29 340 81 q 319 -81 319 -22 q 324 -121 319 -100 q 260 -112 285 -121 l 201 -206 q 276 -189 247 -189 q 331 -207 310 -189 q 351 -258 351 -225 q 326 -335 351 -296 q 258 -399 300 -374 q 168 -425 215 -425 q 103 -407 129 -425 q 76 -368 76 -389 q 88 -340 76 -356 q 121 -308 99 -324 q 176 -371 139 -371 q 225 -351 199 -371 q 270 -303 251 -331 q 289 -256 289 -276 q 267 -233 289 -233 q 237 -242 254 -233 q 203 -262 219 -251 q 183 -274 200 -264 q 157 -285 167 -285 q 137 -273 146 -285 q 128 -250 128 -261 q 172 -187 128 -244 q 240 -106 215 -129 q 188 -14 190 -82 q 201 72 188 22 q 236 190 214 121 q 334 459 282 329 q 463 769 386 589 l 513 888 q 288 878 375 886 q 106 854 201 871 q 208 968 114 936 q 474 1000 303 1000 q 753 983 586 1000 z "},"Ț":{"ha":750,"x_min":106,"x_max":967,"o":"m 324 -121 q 188 -14 190 -121 q 201 72 188 22 q 236 190 214 121 q 334 459 282 329 q 463 769 386 589 l 513 888 q 288 878 375 886 q 106 854 201 871 q 208 968 114 936 q 474 1000 303 1000 q 753 983 586 1000 q 967 969 899 969 q 819 902 911 917 q 597 888 726 888 q 372 199 483 607 q 330 29 340 81 q 319 -81 319 -22 q 324 -121 319 -100 m 208 -383 q 171 -322 171 -361 q 183 -260 171 -294 q 216 -203 196 -226 q 258 -179 236 -179 q 290 -193 276 -179 q 303 -225 303 -207 q 260 -282 276 -254 q 229 -340 244 -310 q 208 -383 214 -371 z "},"U":{"ha":1042,"x_min":46,"x_max":1061,"o":"m 817 -137 q 728 -92 765 -137 q 692 18 692 -47 l 694 90 q 399 -122 579 -122 q 253 -67 306 -122 q 201 89 201 -11 q 221 232 201 156 q 282 436 240 308 q 346 653 324 565 q 368 817 368 740 q 293 942 368 942 q 215 904 247 942 q 167 815 183 867 q 151 726 151 764 q 169 638 151 683 q 76 667 106 638 q 46 744 46 696 q 83 861 46 801 q 185 960 121 921 q 326 999 250 999 q 448 951 408 999 q 488 819 488 904 q 466 663 488 751 q 404 447 444 575 q 344 238 363 314 q 325 104 325 163 q 353 -6 325 35 q 440 -47 381 -47 q 569 10 511 -47 q 667 150 628 67 q 725 315 706 233 q 860 813 801 628 q 972 999 918 999 q 1010 984 986 999 q 1061 944 1035 969 q 970 757 1035 925 q 855 389 906 589 q 804 61 804 189 q 817 -27 804 3 q 857 -69 829 -57 q 935 -81 885 -81 q 884 -122 919 -106 q 817 -137 849 -137 z "},"Ú":{"ha":1042,"x_min":46,"x_max":1061,"o":"m 817 -137 q 728 -92 765 -137 q 692 18 692 -47 l 694 90 q 399 -122 579 -122 q 253 -67 306 -122 q 201 89 201 -11 q 221 232 201 156 q 282 436 240 308 q 346 653 324 565 q 368 817 368 740 q 293 942 368 942 q 215 904 247 942 q 167 815 183 867 q 151 726 151 764 q 169 638 151 683 q 76 667 106 638 q 46 744 46 696 q 83 861 46 801 q 185 960 121 921 q 326 999 250 999 q 448 951 408 999 q 488 819 488 904 q 466 663 488 751 q 404 447 444 575 q 344 238 363 314 q 325 104 325 163 q 353 -6 325 35 q 440 -47 381 -47 q 569 10 511 -47 q 667 150 628 67 q 725 315 706 233 q 860 813 801 628 q 972 999 918 999 q 1010 984 986 999 q 1061 944 1035 969 q 970 757 1035 925 q 855 389 906 589 q 804 61 804 189 q 817 -27 804 3 q 857 -69 829 -57 q 935 -81 885 -81 q 884 -122 919 -106 q 817 -137 849 -137 m 725 1039 q 701 1060 710 1046 q 692 1085 692 1075 q 717 1141 692 1101 q 775 1213 742 1181 q 835 1244 808 1244 q 876 1196 871 1244 q 854 1174 876 1196 q 782 1103 815 1138 q 725 1039 749 1069 z "},"Ŭ":{"ha":1042,"x_min":46,"x_max":1061,"o":"m 817 -137 q 728 -92 765 -137 q 692 18 692 -47 l 694 90 q 399 -122 579 -122 q 253 -67 306 -122 q 201 89 201 -11 q 221 232 201 156 q 282 436 240 308 q 346 653 324 565 q 368 817 368 740 q 293 942 368 942 q 215 904 247 942 q 167 815 183 867 q 151 726 151 764 q 169 638 151 683 q 76 667 106 638 q 46 744 46 696 q 83 861 46 801 q 185 960 121 921 q 326 999 250 999 q 448 951 408 999 q 488 819 488 904 q 466 663 488 751 q 404 447 444 575 q 344 238 363 314 q 325 104 325 163 q 353 -6 325 35 q 440 -47 381 -47 q 569 10 511 -47 q 667 150 628 67 q 725 315 706 233 q 860 813 801 628 q 972 999 918 999 q 1010 984 986 999 q 1061 944 1035 969 q 970 757 1035 925 q 855 389 906 589 q 804 61 804 189 q 817 -27 804 3 q 857 -69 829 -57 q 935 -81 885 -81 q 884 -122 919 -106 q 817 -137 849 -137 m 760 1053 q 671 1074 706 1053 q 620 1125 636 1094 q 604 1185 604 1156 q 643 1253 604 1231 q 681 1174 651 1206 q 763 1142 710 1142 q 889 1210 844 1142 q 908 1164 908 1194 q 864 1085 908 1117 q 760 1053 819 1053 z "},"Û":{"ha":1042,"x_min":46,"x_max":1061,"o":"m 817 -137 q 728 -92 765 -137 q 692 18 692 -47 l 694 90 q 399 -122 579 -122 q 253 -67 306 -122 q 201 89 201 -11 q 221 232 201 156 q 282 436 240 308 q 346 653 324 565 q 368 817 368 740 q 293 942 368 942 q 215 904 247 942 q 167 815 183 867 q 151 726 151 764 q 169 638 151 683 q 76 667 106 638 q 46 744 46 696 q 83 861 46 801 q 185 960 121 921 q 326 999 250 999 q 448 951 408 999 q 488 819 488 904 q 466 663 488 751 q 404 447 444 575 q 344 238 363 314 q 325 104 325 163 q 353 -6 325 35 q 440 -47 381 -47 q 569 10 511 -47 q 667 150 628 67 q 725 315 706 233 q 860 813 801 628 q 972 999 918 999 q 1010 984 986 999 q 1061 944 1035 969 q 970 757 1035 925 q 855 389 906 589 q 804 61 804 189 q 817 -27 804 3 q 857 -69 829 -57 q 935 -81 885 -81 q 884 -122 919 -106 q 817 -137 849 -137 m 849 1033 q 806 1093 829 1068 q 749 1149 783 1118 q 607 1076 685 1128 q 593 1094 597 1082 q 589 1115 589 1106 q 619 1168 589 1140 q 690 1215 650 1196 q 750 1235 729 1235 q 804 1210 772 1235 q 860 1150 836 1185 q 883 1088 883 1115 q 875 1057 883 1072 q 849 1033 867 1042 z "},"Ȕ":{"ha":1042,"x_min":46,"x_max":1061,"o":"m 817 -137 q 728 -92 765 -137 q 692 18 692 -47 l 694 90 q 399 -122 579 -122 q 253 -67 306 -122 q 201 89 201 -11 q 221 232 201 156 q 282 436 240 308 q 346 653 324 565 q 368 817 368 740 q 293 942 368 942 q 215 904 247 942 q 167 815 183 867 q 151 726 151 764 q 169 638 151 683 q 76 667 106 638 q 46 744 46 696 q 83 861 46 801 q 185 960 121 921 q 326 999 250 999 q 448 951 408 999 q 488 819 488 904 q 466 663 488 751 q 404 447 444 575 q 344 238 363 314 q 325 104 325 163 q 353 -6 325 35 q 440 -47 381 -47 q 569 10 511 -47 q 667 150 628 67 q 725 315 706 233 q 860 813 801 628 q 972 999 918 999 q 1010 984 986 999 q 1061 944 1035 969 q 970 757 1035 925 q 855 389 906 589 q 804 61 804 189 q 817 -27 804 3 q 857 -69 829 -57 q 935 -81 885 -81 q 884 -122 919 -106 q 817 -137 849 -137 m 667 1046 q 524 1219 600 1135 q 549 1239 538 1232 q 576 1246 561 1246 q 626 1215 599 1246 q 672 1144 653 1183 q 692 1088 692 1104 q 685 1063 692 1075 q 667 1046 679 1051 m 767 1047 q 664 1206 718 1138 q 711 1242 681 1242 q 756 1215 736 1242 q 789 1153 776 1189 q 801 1096 801 1118 q 792 1062 801 1074 q 767 1047 782 1050 z "},"Ü":{"ha":1042,"x_min":46,"x_max":1061,"o":"m 817 -137 q 728 -92 765 -137 q 692 18 692 -47 l 694 90 q 399 -122 579 -122 q 253 -67 306 -122 q 201 89 201 -11 q 221 232 201 156 q 282 436 240 308 q 346 653 324 565 q 368 817 368 740 q 293 942 368 942 q 215 904 247 942 q 167 815 183 867 q 151 726 151 764 q 169 638 151 683 q 76 667 106 638 q 46 744 46 696 q 83 861 46 801 q 185 960 121 921 q 326 999 250 999 q 448 951 408 999 q 488 819 488 904 q 466 663 488 751 q 404 447 444 575 q 344 238 363 314 q 325 104 325 163 q 353 -6 325 35 q 440 -47 381 -47 q 569 10 511 -47 q 667 150 628 67 q 725 315 706 233 q 860 813 801 628 q 972 999 918 999 q 1010 984 986 999 q 1061 944 1035 969 q 970 757 1035 925 q 855 389 906 589 q 804 61 804 189 q 817 -27 804 3 q 857 -69 829 -57 q 935 -81 885 -81 q 884 -122 919 -106 q 817 -137 849 -137 m 625 1074 q 583 1085 600 1074 q 565 1121 565 1097 q 596 1167 565 1146 q 658 1188 626 1188 q 708 1143 708 1188 q 682 1096 708 1118 q 625 1074 656 1074 m 825 1046 q 784 1058 801 1046 q 767 1093 767 1071 q 797 1140 767 1119 q 860 1160 826 1160 q 911 1114 911 1160 q 884 1068 911 1090 q 825 1046 857 1046 z "},"Ụ":{"ha":1042,"x_min":46,"x_max":1061,"o":"m 817 -137 q 728 -92 765 -137 q 692 18 692 -47 l 694 90 q 399 -122 579 -122 q 253 -67 306 -122 q 201 89 201 -11 q 221 232 201 156 q 282 436 240 308 q 346 653 324 565 q 368 817 368 740 q 293 942 368 942 q 215 904 247 942 q 167 815 183 867 q 151 726 151 764 q 169 638 151 683 q 76 667 106 638 q 46 744 46 696 q 83 861 46 801 q 185 960 121 921 q 326 999 250 999 q 448 951 408 999 q 488 819 488 904 q 466 663 488 751 q 404 447 444 575 q 344 238 363 314 q 325 104 325 163 q 353 -6 325 35 q 440 -47 381 -47 q 569 10 511 -47 q 667 150 628 67 q 725 315 706 233 q 860 813 801 628 q 972 999 918 999 q 1010 984 986 999 q 1061 944 1035 969 q 970 757 1035 925 q 855 389 906 589 q 804 61 804 189 q 817 -27 804 3 q 857 -69 829 -57 q 935 -81 885 -81 q 884 -122 919 -106 q 817 -137 849 -137 m 367 -349 q 322 -334 339 -349 q 304 -293 304 -319 q 335 -243 304 -264 q 400 -222 365 -222 q 442 -235 428 -222 q 456 -272 456 -249 q 428 -326 456 -303 q 367 -349 400 -349 z "},"Ù":{"ha":1042,"x_min":46,"x_max":1061,"o":"m 817 -137 q 728 -92 765 -137 q 692 18 692 -47 l 694 90 q 399 -122 579 -122 q 253 -67 306 -122 q 201 89 201 -11 q 221 232 201 156 q 282 436 240 308 q 346 653 324 565 q 368 817 368 740 q 293 942 368 942 q 215 904 247 942 q 167 815 183 867 q 151 726 151 764 q 169 638 151 683 q 76 667 106 638 q 46 744 46 696 q 83 861 46 801 q 185 960 121 921 q 326 999 250 999 q 448 951 408 999 q 488 819 488 904 q 466 663 488 751 q 404 447 444 575 q 344 238 363 314 q 325 104 325 163 q 353 -6 325 35 q 440 -47 381 -47 q 569 10 511 -47 q 667 150 628 67 q 725 315 706 233 q 860 813 801 628 q 972 999 918 999 q 1010 984 986 999 q 1061 944 1035 969 q 970 757 1035 925 q 855 389 906 589 q 804 61 804 189 q 817 -27 804 3 q 857 -69 829 -57 q 935 -81 885 -81 q 884 -122 919 -106 q 817 -137 849 -137 m 714 1039 q 551 1192 646 1119 q 566 1232 553 1218 q 596 1246 579 1246 q 658 1215 622 1246 q 722 1146 694 1185 q 749 1089 749 1107 q 739 1061 749 1076 q 714 1039 729 1046 z "},"Ủ":{"ha":1042,"x_min":46,"x_max":1061,"o":"m 817 -137 q 728 -92 765 -137 q 692 18 692 -47 l 694 90 q 399 -122 579 -122 q 253 -67 306 -122 q 201 89 201 -11 q 221 232 201 156 q 282 436 240 308 q 346 653 324 565 q 368 817 368 740 q 293 942 368 942 q 215 904 247 942 q 167 815 183 867 q 151 726 151 764 q 169 638 151 683 q 76 667 106 638 q 46 744 46 696 q 83 861 46 801 q 185 960 121 921 q 326 999 250 999 q 448 951 408 999 q 488 819 488 904 q 466 663 488 751 q 404 447 444 575 q 344 238 363 314 q 325 104 325 163 q 353 -6 325 35 q 440 -47 381 -47 q 569 10 511 -47 q 667 150 628 67 q 725 315 706 233 q 860 813 801 628 q 972 999 918 999 q 1010 984 986 999 q 1061 944 1035 969 q 970 757 1035 925 q 855 389 906 589 q 804 61 804 189 q 817 -27 804 3 q 857 -69 829 -57 q 935 -81 885 -81 q 884 -122 919 -106 q 817 -137 849 -137 m 728 1050 q 679 1065 700 1050 q 771 1131 771 1081 q 740 1169 771 1157 q 643 1182 710 1182 q 663 1235 643 1214 q 722 1256 683 1256 q 800 1225 769 1256 q 831 1149 831 1194 q 802 1077 831 1104 q 728 1050 774 1050 z "},"Ư":{"ha":1042,"x_min":46,"x_max":1210,"o":"m 1136 1103 q 1189 1076 1168 1103 q 1210 1010 1210 1050 q 1183 937 1210 967 q 1113 907 1156 907 q 1047 928 1083 907 q 952 709 1011 874 q 849 363 893 544 q 804 61 804 181 q 817 -27 804 3 q 857 -69 829 -57 q 935 -81 885 -81 q 884 -122 919 -106 q 817 -137 849 -137 q 728 -92 765 -137 q 692 18 692 -47 l 694 90 q 399 -122 579 -122 q 253 -67 306 -122 q 201 89 201 -11 q 221 232 201 156 q 282 436 240 308 q 346 653 324 565 q 368 817 368 740 q 293 942 368 942 q 215 904 247 942 q 167 815 183 867 q 151 726 151 764 q 169 638 151 683 q 76 667 106 638 q 46 744 46 696 q 83 861 46 801 q 185 960 121 921 q 326 999 250 999 q 448 951 408 999 q 488 819 488 904 q 466 663 488 751 q 404 447 444 575 q 344 238 363 314 q 325 104 325 163 q 353 -6 325 35 q 440 -47 381 -47 q 569 10 511 -47 q 667 150 628 67 q 725 315 706 233 q 860 813 801 628 q 972 999 918 999 q 1011 983 985 999 q 1041 970 1021 979 q 1083 961 1061 961 q 1113 971 1101 961 q 1124 996 1124 981 q 1071 1069 1124 1036 q 1136 1103 1096 1103 z "},"Ứ":{"ha":1042,"x_min":46,"x_max":1210,"o":"m 1136 1103 q 1189 1076 1168 1103 q 1210 1010 1210 1050 q 1183 937 1210 967 q 1113 907 1156 907 q 1047 928 1083 907 q 952 709 1011 874 q 849 363 893 544 q 804 61 804 181 q 817 -27 804 3 q 857 -69 829 -57 q 935 -81 885 -81 q 884 -122 919 -106 q 817 -137 849 -137 q 728 -92 765 -137 q 692 18 692 -47 l 694 90 q 399 -122 579 -122 q 253 -67 306 -122 q 201 89 201 -11 q 221 232 201 156 q 282 436 240 308 q 346 653 324 565 q 368 817 368 740 q 293 942 368 942 q 215 904 247 942 q 167 815 183 867 q 151 726 151 764 q 169 638 151 683 q 76 667 106 638 q 46 744 46 696 q 83 861 46 801 q 185 960 121 921 q 326 999 250 999 q 448 951 408 999 q 488 819 488 904 q 466 663 488 751 q 404 447 444 575 q 344 238 363 314 q 325 104 325 163 q 353 -6 325 35 q 440 -47 381 -47 q 569 10 511 -47 q 667 150 628 67 q 725 315 706 233 q 860 813 801 628 q 972 999 918 999 q 1011 983 985 999 q 1041 970 1021 979 q 1083 961 1061 961 q 1113 971 1101 961 q 1124 996 1124 981 q 1071 1069 1124 1036 q 1136 1103 1096 1103 m 725 1039 q 701 1060 710 1046 q 692 1085 692 1075 q 717 1141 692 1101 q 775 1213 742 1181 q 835 1244 808 1244 q 876 1196 871 1244 q 854 1174 876 1196 q 782 1103 815 1138 q 725 1039 749 1069 z "},"Ự":{"ha":1042,"x_min":46,"x_max":1210,"o":"m 1136 1103 q 1189 1076 1168 1103 q 1210 1010 1210 1050 q 1183 937 1210 967 q 1113 907 1156 907 q 1047 928 1083 907 q 952 709 1011 874 q 849 363 893 544 q 804 61 804 181 q 817 -27 804 3 q 857 -69 829 -57 q 935 -81 885 -81 q 884 -122 919 -106 q 817 -137 849 -137 q 728 -92 765 -137 q 692 18 692 -47 l 694 90 q 399 -122 579 -122 q 253 -67 306 -122 q 201 89 201 -11 q 221 232 201 156 q 282 436 240 308 q 346 653 324 565 q 368 817 368 740 q 293 942 368 942 q 215 904 247 942 q 167 815 183 867 q 151 726 151 764 q 169 638 151 683 q 76 667 106 638 q 46 744 46 696 q 83 861 46 801 q 185 960 121 921 q 326 999 250 999 q 448 951 408 999 q 488 819 488 904 q 466 663 488 751 q 404 447 444 575 q 344 238 363 314 q 325 104 325 163 q 353 -6 325 35 q 440 -47 381 -47 q 569 10 511 -47 q 667 150 628 67 q 725 315 706 233 q 860 813 801 628 q 972 999 918 999 q 1011 983 985 999 q 1041 970 1021 979 q 1083 961 1061 961 q 1113 971 1101 961 q 1124 996 1124 981 q 1071 1069 1124 1036 q 1136 1103 1096 1103 m 367 -349 q 322 -334 339 -349 q 304 -293 304 -319 q 335 -243 304 -264 q 400 -222 365 -222 q 442 -235 428 -222 q 456 -272 456 -249 q 428 -326 456 -303 q 367 -349 400 -349 z "},"Ừ":{"ha":1042,"x_min":46,"x_max":1210,"o":"m 1136 1103 q 1189 1076 1168 1103 q 1210 1010 1210 1050 q 1183 937 1210 967 q 1113 907 1156 907 q 1047 928 1083 907 q 952 709 1011 874 q 849 363 893 544 q 804 61 804 181 q 817 -27 804 3 q 857 -69 829 -57 q 935 -81 885 -81 q 884 -122 919 -106 q 817 -137 849 -137 q 728 -92 765 -137 q 692 18 692 -47 l 694 90 q 399 -122 579 -122 q 253 -67 306 -122 q 201 89 201 -11 q 221 232 201 156 q 282 436 240 308 q 346 653 324 565 q 368 817 368 740 q 293 942 368 942 q 215 904 247 942 q 167 815 183 867 q 151 726 151 764 q 169 638 151 683 q 76 667 106 638 q 46 744 46 696 q 83 861 46 801 q 185 960 121 921 q 326 999 250 999 q 448 951 408 999 q 488 819 488 904 q 466 663 488 751 q 404 447 444 575 q 344 238 363 314 q 325 104 325 163 q 353 -6 325 35 q 440 -47 381 -47 q 569 10 511 -47 q 667 150 628 67 q 725 315 706 233 q 860 813 801 628 q 972 999 918 999 q 1011 983 985 999 q 1041 970 1021 979 q 1083 961 1061 961 q 1113 971 1101 961 q 1124 996 1124 981 q 1071 1069 1124 1036 q 1136 1103 1096 1103 m 714 1039 q 551 1192 646 1119 q 566 1232 553 1218 q 596 1246 579 1246 q 658 1215 622 1246 q 722 1146 694 1185 q 749 1089 749 1107 q 739 1061 749 1076 q 714 1039 729 1046 z "},"Ử":{"ha":1042,"x_min":46,"x_max":1210,"o":"m 1136 1103 q 1189 1076 1168 1103 q 1210 1010 1210 1050 q 1183 937 1210 967 q 1113 907 1156 907 q 1047 928 1083 907 q 952 709 1011 874 q 849 363 893 544 q 804 61 804 181 q 817 -27 804 3 q 857 -69 829 -57 q 935 -81 885 -81 q 884 -122 919 -106 q 817 -137 849 -137 q 728 -92 765 -137 q 692 18 692 -47 l 694 90 q 399 -122 579 -122 q 253 -67 306 -122 q 201 89 201 -11 q 221 232 201 156 q 282 436 240 308 q 346 653 324 565 q 368 817 368 740 q 293 942 368 942 q 215 904 247 942 q 167 815 183 867 q 151 726 151 764 q 169 638 151 683 q 76 667 106 638 q 46 744 46 696 q 83 861 46 801 q 185 960 121 921 q 326 999 250 999 q 448 951 408 999 q 488 819 488 904 q 466 663 488 751 q 404 447 444 575 q 344 238 363 314 q 325 104 325 163 q 353 -6 325 35 q 440 -47 381 -47 q 569 10 511 -47 q 667 150 628 67 q 725 315 706 233 q 860 813 801 628 q 972 999 918 999 q 1011 983 985 999 q 1041 970 1021 979 q 1083 961 1061 961 q 1113 971 1101 961 q 1124 996 1124 981 q 1071 1069 1124 1036 q 1136 1103 1096 1103 m 728 1050 q 679 1065 700 1050 q 771 1131 771 1081 q 740 1169 771 1157 q 643 1182 710 1182 q 663 1235 643 1214 q 722 1256 683 1256 q 800 1225 769 1256 q 831 1149 831 1194 q 802 1077 831 1104 q 728 1050 774 1050 z "},"Ữ":{"ha":1042,"x_min":46,"x_max":1210,"o":"m 1136 1103 q 1189 1076 1168 1103 q 1210 1010 1210 1050 q 1183 937 1210 967 q 1113 907 1156 907 q 1047 928 1083 907 q 952 709 1011 874 q 849 363 893 544 q 804 61 804 181 q 817 -27 804 3 q 857 -69 829 -57 q 935 -81 885 -81 q 884 -122 919 -106 q 817 -137 849 -137 q 728 -92 765 -137 q 692 18 692 -47 l 694 90 q 399 -122 579 -122 q 253 -67 306 -122 q 201 89 201 -11 q 221 232 201 156 q 282 436 240 308 q 346 653 324 565 q 368 817 368 740 q 293 942 368 942 q 215 904 247 942 q 167 815 183 867 q 151 726 151 764 q 169 638 151 683 q 76 667 106 638 q 46 744 46 696 q 83 861 46 801 q 185 960 121 921 q 326 999 250 999 q 448 951 408 999 q 488 819 488 904 q 466 663 488 751 q 404 447 444 575 q 344 238 363 314 q 325 104 325 163 q 353 -6 325 35 q 440 -47 381 -47 q 569 10 511 -47 q 667 150 628 67 q 725 315 706 233 q 860 813 801 628 q 972 999 918 999 q 1011 983 985 999 q 1041 970 1021 979 q 1083 961 1061 961 q 1113 971 1101 961 q 1124 996 1124 981 q 1071 1069 1124 1036 q 1136 1103 1096 1103 m 825 1049 q 769 1058 797 1049 q 700 1083 740 1067 q 668 1096 693 1086 q 622 1110 643 1106 q 585 1115 601 1115 q 494 1097 536 1115 q 619 1179 528 1179 q 674 1171 646 1179 q 740 1146 701 1163 q 809 1121 783 1129 q 860 1113 835 1113 q 942 1126 901 1113 q 894 1068 921 1088 q 825 1049 867 1049 z "},"Ű":{"ha":1042,"x_min":46,"x_max":1061,"o":"m 817 -137 q 728 -92 765 -137 q 692 18 692 -47 l 694 90 q 399 -122 579 -122 q 253 -67 306 -122 q 201 89 201 -11 q 221 232 201 156 q 282 436 240 308 q 346 653 324 565 q 368 817 368 740 q 293 942 368 942 q 215 904 247 942 q 167 815 183 867 q 151 726 151 764 q 169 638 151 683 q 76 667 106 638 q 46 744 46 696 q 83 861 46 801 q 185 960 121 921 q 326 999 250 999 q 448 951 408 999 q 488 819 488 904 q 466 663 488 751 q 404 447 444 575 q 344 238 363 314 q 325 104 325 163 q 353 -6 325 35 q 440 -47 381 -47 q 569 10 511 -47 q 667 150 628 67 q 725 315 706 233 q 860 813 801 628 q 972 999 918 999 q 1010 984 986 999 q 1061 944 1035 969 q 970 757 1035 925 q 855 389 906 589 q 804 61 804 189 q 817 -27 804 3 q 857 -69 829 -57 q 935 -81 885 -81 q 884 -122 919 -106 q 817 -137 849 -137 m 640 1061 q 610 1106 610 1071 q 626 1172 610 1131 q 666 1243 642 1213 q 714 1274 690 1274 q 758 1236 742 1274 q 640 1061 678 1138 m 735 1039 q 714 1078 714 1050 q 735 1141 714 1100 q 788 1213 757 1182 q 843 1244 818 1244 q 871 1235 860 1244 q 890 1207 882 1225 q 735 1039 810 1128 z "},"Ȗ":{"ha":1042,"x_min":46,"x_max":1061,"o":"m 817 -137 q 728 -92 765 -137 q 692 18 692 -47 l 694 90 q 399 -122 579 -122 q 253 -67 306 -122 q 201 89 201 -11 q 221 232 201 156 q 282 436 240 308 q 346 653 324 565 q 368 817 368 740 q 293 942 368 942 q 215 904 247 942 q 167 815 183 867 q 151 726 151 764 q 169 638 151 683 q 76 667 106 638 q 46 744 46 696 q 83 861 46 801 q 185 960 121 921 q 326 999 250 999 q 448 951 408 999 q 488 819 488 904 q 466 663 488 751 q 404 447 444 575 q 344 238 363 314 q 325 104 325 163 q 353 -6 325 35 q 440 -47 381 -47 q 569 10 511 -47 q 667 150 628 67 q 725 315 706 233 q 860 813 801 628 q 972 999 918 999 q 1010 984 986 999 q 1061 944 1035 969 q 970 757 1035 925 q 855 389 906 589 q 804 61 804 189 q 817 -27 804 3 q 857 -69 829 -57 q 935 -81 885 -81 q 884 -122 919 -106 q 817 -137 849 -137 m 844 1019 q 807 1099 836 1067 q 725 1131 778 1131 q 599 1063 643 1131 q 579 1108 579 1078 q 624 1188 579 1156 q 728 1219 668 1219 q 817 1199 782 1219 q 867 1147 851 1178 q 883 1088 883 1117 q 844 1019 883 1042 z "},"Ū":{"ha":1042,"x_min":46,"x_max":1061,"o":"m 817 -137 q 728 -92 765 -137 q 692 18 692 -47 l 694 90 q 399 -122 579 -122 q 253 -67 306 -122 q 201 89 201 -11 q 221 232 201 156 q 282 436 240 308 q 346 653 324 565 q 368 817 368 740 q 293 942 368 942 q 215 904 247 942 q 167 815 183 867 q 151 726 151 764 q 169 638 151 683 q 76 667 106 638 q 46 744 46 696 q 83 861 46 801 q 185 960 121 921 q 326 999 250 999 q 448 951 408 999 q 488 819 488 904 q 466 663 488 751 q 404 447 444 575 q 344 238 363 314 q 325 104 325 163 q 353 -6 325 35 q 440 -47 381 -47 q 569 10 511 -47 q 667 150 628 67 q 725 315 706 233 q 860 813 801 628 q 972 999 918 999 q 1010 984 986 999 q 1061 944 1035 969 q 970 757 1035 925 q 855 389 906 589 q 804 61 804 189 q 817 -27 804 3 q 857 -69 829 -57 q 935 -81 885 -81 q 884 -122 919 -106 q 817 -137 849 -137 m 844 1053 q 755 1063 808 1053 q 613 1092 701 1072 q 494 1115 515 1113 q 564 1157 510 1157 q 726 1137 633 1157 q 901 1088 819 1117 q 844 1053 885 1053 z "},"Ų":{"ha":1042,"x_min":46,"x_max":1061,"o":"m 1061 944 q 970 757 1035 925 q 855 389 906 589 q 804 61 804 189 q 817 -27 804 3 q 857 -69 829 -57 q 935 -81 885 -81 q 884 -122 919 -106 q 817 -137 849 -137 q 728 -92 765 -137 q 692 18 692 -47 l 694 90 q 549 -78 631 -26 q 510 -157 510 -110 q 525 -199 510 -182 q 568 -215 540 -215 q 649 -186 610 -215 q 619 -262 647 -235 q 546 -290 592 -290 q 471 -262 500 -290 q 442 -187 442 -233 q 474 -112 442 -144 q 399 -122 440 -122 q 253 -67 306 -122 q 201 89 201 -11 q 221 232 201 156 q 282 436 240 308 q 346 653 324 565 q 368 817 368 740 q 293 942 368 942 q 215 904 247 942 q 167 815 183 867 q 151 726 151 764 q 169 638 151 683 q 76 667 106 638 q 46 744 46 696 q 83 861 46 801 q 185 960 121 921 q 326 999 250 999 q 448 951 408 999 q 488 819 488 904 q 466 663 488 751 q 404 447 444 575 q 344 238 363 314 q 325 104 325 163 q 353 -6 325 35 q 440 -47 381 -47 q 569 10 511 -47 q 667 150 628 67 q 725 315 706 233 q 860 813 801 628 q 972 999 918 999 q 1010 984 986 999 q 1061 944 1035 969 z "},"Ů":{"ha":1042,"x_min":46,"x_max":1061,"o":"m 817 -137 q 728 -92 765 -137 q 692 18 692 -47 l 694 90 q 399 -122 579 -122 q 253 -67 306 -122 q 201 89 201 -11 q 221 232 201 156 q 282 436 240 308 q 346 653 324 565 q 368 817 368 740 q 293 942 368 942 q 215 904 247 942 q 167 815 183 867 q 151 726 151 764 q 169 638 151 683 q 76 667 106 638 q 46 744 46 696 q 83 861 46 801 q 185 960 121 921 q 326 999 250 999 q 448 951 408 999 q 488 819 488 904 q 466 663 488 751 q 404 447 444 575 q 344 238 363 314 q 325 104 325 163 q 353 -6 325 35 q 440 -47 381 -47 q 569 10 511 -47 q 667 150 628 67 q 725 315 706 233 q 860 813 801 628 q 972 999 918 999 q 1010 984 986 999 q 1061 944 1035 969 q 970 757 1035 925 q 855 389 906 589 q 804 61 804 189 q 817 -27 804 3 q 857 -69 829 -57 q 935 -81 885 -81 q 884 -122 919 -106 q 817 -137 849 -137 m 711 1047 q 630 1069 657 1047 q 603 1126 603 1092 q 626 1194 603 1158 q 688 1254 649 1231 q 775 1278 728 1278 q 860 1256 832 1278 q 889 1199 889 1233 q 865 1130 889 1165 q 799 1071 840 1094 q 711 1047 758 1047 m 722 1096 q 788 1127 757 1096 q 818 1189 818 1158 q 806 1215 818 1204 q 769 1225 794 1225 q 705 1195 735 1225 q 675 1135 675 1165 q 688 1108 676 1119 q 722 1096 700 1096 z "},"Ũ":{"ha":1042,"x_min":46,"x_max":1061,"o":"m 817 -137 q 728 -92 765 -137 q 692 18 692 -47 l 694 90 q 399 -122 579 -122 q 253 -67 306 -122 q 201 89 201 -11 q 221 232 201 156 q 282 436 240 308 q 346 653 324 565 q 368 817 368 740 q 293 942 368 942 q 215 904 247 942 q 167 815 183 867 q 151 726 151 764 q 169 638 151 683 q 76 667 106 638 q 46 744 46 696 q 83 861 46 801 q 185 960 121 921 q 326 999 250 999 q 448 951 408 999 q 488 819 488 904 q 466 663 488 751 q 404 447 444 575 q 344 238 363 314 q 325 104 325 163 q 353 -6 325 35 q 440 -47 381 -47 q 569 10 511 -47 q 667 150 628 67 q 725 315 706 233 q 860 813 801 628 q 972 999 918 999 q 1010 984 986 999 q 1061 944 1035 969 q 970 757 1035 925 q 855 389 906 589 q 804 61 804 189 q 817 -27 804 3 q 857 -69 829 -57 q 935 -81 885 -81 q 884 -122 919 -106 q 817 -137 849 -137 m 825 1049 q 769 1058 797 1049 q 700 1083 740 1067 q 668 1096 693 1086 q 622 1110 643 1106 q 585 1115 601 1115 q 494 1097 536 1115 q 619 1179 528 1179 q 674 1171 646 1179 q 740 1146 701 1163 q 809 1121 783 1129 q 860 1113 835 1113 q 942 1126 901 1113 q 894 1068 921 1088 q 825 1049 867 1049 z "},"V":{"ha":929,"x_min":47,"x_max":965,"o":"m 340 -121 q 249 -93 292 -121 q 207 3 207 -65 q 221 94 207 42 q 265 242 235 146 q 345 524 317 400 q 374 776 374 647 q 356 899 374 857 q 289 942 338 942 q 215 908 244 942 q 170 824 185 874 q 156 729 156 775 q 176 639 156 679 q 79 669 111 639 q 47 750 47 700 q 84 865 47 807 q 183 962 121 924 q 317 1000 244 1000 q 459 932 410 1000 q 508 743 508 864 q 483 549 508 650 q 410 290 458 447 q 354 103 371 168 q 338 -11 338 39 q 344 -47 338 -36 q 371 -58 351 -58 q 565 79 449 -58 q 769 406 682 217 q 856 736 856 594 q 763 901 856 871 q 808 960 781 940 q 861 981 836 981 q 910 958 886 981 q 950 895 935 936 q 965 800 965 854 q 859 431 965 653 q 605 44 753 208 q 340 -121 457 -121 z "},"W":{"ha":1324,"x_min":47,"x_max":1361,"o":"m 342 -121 q 251 -95 296 -121 q 207 3 207 -69 q 220 92 207 36 q 268 258 233 147 l 286 317 q 352 557 331 460 q 374 769 374 654 q 355 901 374 858 q 289 944 336 944 q 191 882 226 944 q 156 740 156 819 q 176 639 156 679 q 79 669 111 639 q 47 750 47 700 q 84 865 47 807 q 183 962 121 924 q 315 1000 244 1000 q 458 931 408 1000 q 508 733 508 861 q 486 549 508 646 q 418 308 464 453 q 408 278 414 293 q 397 244 403 263 q 353 106 369 165 q 338 -11 338 46 q 344 -48 338 -37 q 368 -58 350 -58 q 527 53 438 -58 q 688 315 617 165 q 774 561 760 465 q 853 533 822 561 q 885 476 885 506 q 833 331 885 450 q 759 140 786 219 q 732 -6 732 60 q 740 -47 732 -35 q 768 -58 747 -58 q 960 81 844 -58 q 1164 410 1076 221 q 1251 736 1251 600 q 1226 841 1251 807 q 1157 890 1201 875 q 1209 949 1181 929 q 1261 968 1238 968 q 1308 949 1285 968 q 1346 892 1331 931 q 1361 799 1361 853 q 1256 430 1361 651 q 1000 44 1150 208 q 726 -121 850 -121 q 637 -88 672 -121 q 601 -1 601 -56 q 615 69 601 28 q 342 -121 464 -121 z "},"Ẃ":{"ha":1324,"x_min":47,"x_max":1361,"o":"m 342 -121 q 251 -95 296 -121 q 207 3 207 -69 q 220 92 207 36 q 268 258 233 147 l 286 317 q 352 557 331 460 q 374 769 374 654 q 355 901 374 858 q 289 944 336 944 q 191 882 226 944 q 156 740 156 819 q 176 639 156 679 q 79 669 111 639 q 47 750 47 700 q 84 865 47 807 q 183 962 121 924 q 315 1000 244 1000 q 458 931 408 1000 q 508 733 508 861 q 486 549 508 646 q 418 308 464 453 q 408 278 414 293 q 397 244 403 263 q 353 106 369 165 q 338 -11 338 46 q 344 -48 338 -37 q 368 -58 350 -58 q 527 53 438 -58 q 688 315 617 165 q 774 561 760 465 q 853 533 822 561 q 885 476 885 506 q 833 331 885 450 q 759 140 786 219 q 732 -6 732 60 q 740 -47 732 -35 q 768 -58 747 -58 q 960 81 844 -58 q 1164 410 1076 221 q 1251 736 1251 600 q 1226 841 1251 807 q 1157 890 1201 875 q 1209 949 1181 929 q 1261 968 1238 968 q 1308 949 1285 968 q 1346 892 1331 931 q 1361 799 1361 853 q 1256 430 1361 651 q 1000 44 1150 208 q 726 -121 850 -121 q 637 -88 672 -121 q 601 -1 601 -56 q 615 69 601 28 q 342 -121 464 -121 m 858 1039 q 834 1060 843 1046 q 825 1085 825 1075 q 850 1141 825 1101 q 908 1213 875 1181 q 968 1244 942 1244 q 1010 1196 1004 1244 q 988 1174 1010 1196 q 915 1103 949 1138 q 858 1039 882 1069 z "},"Ŵ":{"ha":1324,"x_min":47,"x_max":1361,"o":"m 342 -121 q 251 -95 296 -121 q 207 3 207 -69 q 220 92 207 36 q 268 258 233 147 l 286 317 q 352 557 331 460 q 374 769 374 654 q 355 901 374 858 q 289 944 336 944 q 191 882 226 944 q 156 740 156 819 q 176 639 156 679 q 79 669 111 639 q 47 750 47 700 q 84 865 47 807 q 183 962 121 924 q 315 1000 244 1000 q 458 931 408 1000 q 508 733 508 861 q 486 549 508 646 q 418 308 464 453 q 408 278 414 293 q 397 244 403 263 q 353 106 369 165 q 338 -11 338 46 q 344 -48 338 -37 q 368 -58 350 -58 q 527 53 438 -58 q 688 315 617 165 q 774 561 760 465 q 853 533 822 561 q 885 476 885 506 q 833 331 885 450 q 759 140 786 219 q 732 -6 732 60 q 740 -47 732 -35 q 768 -58 747 -58 q 960 81 844 -58 q 1164 410 1076 221 q 1251 736 1251 600 q 1226 841 1251 807 q 1157 890 1201 875 q 1209 949 1181 929 q 1261 968 1238 968 q 1308 949 1285 968 q 1346 892 1331 931 q 1361 799 1361 853 q 1256 430 1361 651 q 1000 44 1150 208 q 726 -121 850 -121 q 637 -88 672 -121 q 601 -1 601 -56 q 615 69 601 28 q 342 -121 464 -121 m 982 1033 q 940 1093 963 1068 q 882 1149 917 1118 q 740 1076 818 1128 q 726 1094 731 1082 q 722 1115 722 1106 q 753 1168 722 1140 q 823 1215 783 1196 q 883 1235 863 1235 q 938 1210 906 1235 q 993 1150 969 1185 q 1017 1088 1017 1115 q 1008 1057 1017 1072 q 982 1033 1000 1042 z "},"Ẅ":{"ha":1324,"x_min":47,"x_max":1361,"o":"m 342 -121 q 251 -95 296 -121 q 207 3 207 -69 q 220 92 207 36 q 268 258 233 147 l 286 317 q 352 557 331 460 q 374 769 374 654 q 355 901 374 858 q 289 944 336 944 q 191 882 226 944 q 156 740 156 819 q 176 639 156 679 q 79 669 111 639 q 47 750 47 700 q 84 865 47 807 q 183 962 121 924 q 315 1000 244 1000 q 458 931 408 1000 q 508 733 508 861 q 486 549 508 646 q 418 308 464 453 q 408 278 414 293 q 397 244 403 263 q 353 106 369 165 q 338 -11 338 46 q 344 -48 338 -37 q 368 -58 350 -58 q 527 53 438 -58 q 688 315 617 165 q 774 561 760 465 q 853 533 822 561 q 885 476 885 506 q 833 331 885 450 q 759 140 786 219 q 732 -6 732 60 q 740 -47 732 -35 q 768 -58 747 -58 q 960 81 844 -58 q 1164 410 1076 221 q 1251 736 1251 600 q 1226 841 1251 807 q 1157 890 1201 875 q 1209 949 1181 929 q 1261 968 1238 968 q 1308 949 1285 968 q 1346 892 1331 931 q 1361 799 1361 853 q 1256 430 1361 651 q 1000 44 1150 208 q 726 -121 850 -121 q 637 -88 672 -121 q 601 -1 601 -56 q 615 69 601 28 q 342 -121 464 -121 m 758 1074 q 716 1085 733 1074 q 699 1121 699 1097 q 729 1167 699 1146 q 792 1188 760 1188 q 842 1143 842 1188 q 815 1096 842 1118 q 758 1074 789 1074 m 958 1046 q 917 1058 935 1046 q 900 1093 900 1071 q 930 1140 900 1119 q 993 1160 960 1160 q 1044 1114 1044 1160 q 1017 1068 1044 1090 q 958 1046 990 1046 z "},"Ẁ":{"ha":1324,"x_min":47,"x_max":1361,"o":"m 342 -121 q 251 -95 296 -121 q 207 3 207 -69 q 220 92 207 36 q 268 258 233 147 l 286 317 q 352 557 331 460 q 374 769 374 654 q 355 901 374 858 q 289 944 336 944 q 191 882 226 944 q 156 740 156 819 q 176 639 156 679 q 79 669 111 639 q 47 750 47 700 q 84 865 47 807 q 183 962 121 924 q 315 1000 244 1000 q 458 931 408 1000 q 508 733 508 861 q 486 549 508 646 q 418 308 464 453 q 408 278 414 293 q 397 244 403 263 q 353 106 369 165 q 338 -11 338 46 q 344 -48 338 -37 q 368 -58 350 -58 q 527 53 438 -58 q 688 315 617 165 q 774 561 760 465 q 853 533 822 561 q 885 476 885 506 q 833 331 885 450 q 759 140 786 219 q 732 -6 732 60 q 740 -47 732 -35 q 768 -58 747 -58 q 960 81 844 -58 q 1164 410 1076 221 q 1251 736 1251 600 q 1226 841 1251 807 q 1157 890 1201 875 q 1209 949 1181 929 q 1261 968 1238 968 q 1308 949 1285 968 q 1346 892 1331 931 q 1361 799 1361 853 q 1256 430 1361 651 q 1000 44 1150 208 q 726 -121 850 -121 q 637 -88 672 -121 q 601 -1 601 -56 q 615 69 601 28 q 342 -121 464 -121 m 847 1039 q 685 1192 779 1119 q 699 1232 686 1218 q 729 1246 713 1246 q 792 1215 756 1246 q 855 1146 828 1185 q 882 1089 882 1107 q 872 1061 882 1076 q 847 1039 863 1046 z "},"X":{"ha":981,"x_min":63,"x_max":988,"o":"m 63 -156 q 83 -69 68 -97 q 135 -4 97 -42 q 292 165 232 97 q 454 357 351 232 q 429 711 435 528 q 420 856 425 811 q 399 926 415 901 q 349 950 383 950 q 275 917 306 950 q 229 835 244 885 q 214 739 214 786 q 232 650 214 690 q 138 678 168 650 q 108 756 108 707 q 147 872 108 814 q 247 967 185 929 q 379 1004 310 1004 q 509 943 467 1004 q 562 800 551 882 q 574 599 572 718 l 576 514 q 885 1011 764 767 q 910 980 897 1003 q 924 938 924 957 q 827 738 924 883 q 579 408 731 593 q 622 85 590 211 q 713 -40 654 -40 q 811 31 754 -40 q 957 253 868 103 l 988 228 q 878 34 925 106 q 783 -74 832 -37 q 678 -111 735 -111 q 525 -5 571 -111 q 463 265 479 101 q 231 7 344 126 q 63 -156 117 -112 z "},"Y":{"ha":981,"x_min":44,"x_max":1057,"o":"m 397 -260 q 253 -224 308 -260 q 197 -122 197 -187 q 225 -44 197 -78 q 303 1 253 -10 q 288 -93 288 -68 q 319 -181 288 -150 q 414 -211 350 -211 q 574 -140 514 -211 q 660 25 633 -69 q 713 260 688 119 q 742 399 732 365 q 613 253 683 304 q 451 201 542 201 q 322 250 364 201 q 281 379 281 299 q 292 478 281 425 q 326 621 303 532 q 358 751 347 700 q 369 842 369 801 q 294 942 369 942 q 215 906 247 942 q 167 819 183 871 q 151 715 151 767 q 155 679 151 694 q 168 638 158 664 q 74 667 104 638 q 44 744 44 696 q 82 861 44 801 q 184 960 119 921 q 325 1000 249 1000 q 446 957 404 1000 q 488 847 488 914 q 478 776 488 818 q 449 660 469 735 q 411 513 424 568 q 399 407 399 457 q 497 276 399 276 q 663 372 586 276 q 788 610 739 467 q 806 665 796 632 q 819 715 815 699 q 893 928 863 856 q 963 1000 924 1000 q 1006 985 979 1000 q 1057 947 1033 971 q 976 799 1006 868 q 918 625 947 731 q 828 268 889 519 q 744 5 790 117 q 613 -183 697 -107 q 397 -260 528 -260 z "},"Ý":{"ha":981,"x_min":44,"x_max":1057,"o":"m 397 -260 q 253 -224 308 -260 q 197 -122 197 -187 q 225 -44 197 -78 q 303 1 253 -10 q 288 -93 288 -68 q 319 -181 288 -150 q 414 -211 350 -211 q 574 -140 514 -211 q 660 25 633 -69 q 713 260 688 119 q 742 399 732 365 q 613 253 683 304 q 451 201 542 201 q 322 250 364 201 q 281 379 281 299 q 292 478 281 425 q 326 621 303 532 q 358 751 347 700 q 369 842 369 801 q 294 942 369 942 q 215 906 247 942 q 167 819 183 871 q 151 715 151 767 q 155 679 151 694 q 168 638 158 664 q 74 667 104 638 q 44 744 44 696 q 82 861 44 801 q 184 960 119 921 q 325 1000 249 1000 q 446 957 404 1000 q 488 847 488 914 q 478 776 488 818 q 449 660 469 735 q 411 513 424 568 q 399 407 399 457 q 497 276 399 276 q 663 372 586 276 q 788 610 739 467 q 806 665 796 632 q 819 715 815 699 q 893 928 863 856 q 963 1000 924 1000 q 1006 985 979 1000 q 1057 947 1033 971 q 976 799 1006 868 q 918 625 947 731 q 828 268 889 519 q 744 5 790 117 q 613 -183 697 -107 q 397 -260 528 -260 m 713 1039 q 688 1060 697 1046 q 679 1085 679 1075 q 704 1141 679 1101 q 763 1213 729 1181 q 822 1244 796 1244 q 864 1196 858 1244 q 842 1174 864 1196 q 769 1103 803 1138 q 713 1039 736 1069 z "},"Ŷ":{"ha":981,"x_min":44,"x_max":1057,"o":"m 397 -260 q 253 -224 308 -260 q 197 -122 197 -187 q 225 -44 197 -78 q 303 1 253 -10 q 288 -93 288 -68 q 319 -181 288 -150 q 414 -211 350 -211 q 574 -140 514 -211 q 660 25 633 -69 q 713 260 688 119 q 742 399 732 365 q 613 253 683 304 q 451 201 542 201 q 322 250 364 201 q 281 379 281 299 q 292 478 281 425 q 326 621 303 532 q 358 751 347 700 q 369 842 369 801 q 294 942 369 942 q 215 906 247 942 q 167 819 183 871 q 151 715 151 767 q 155 679 151 694 q 168 638 158 664 q 74 667 104 638 q 44 744 44 696 q 82 861 44 801 q 184 960 119 921 q 325 1000 249 1000 q 446 957 404 1000 q 488 847 488 914 q 478 776 488 818 q 449 660 469 735 q 411 513 424 568 q 399 407 399 457 q 497 276 399 276 q 663 372 586 276 q 788 610 739 467 q 806 665 796 632 q 819 715 815 699 q 893 928 863 856 q 963 1000 924 1000 q 1006 985 979 1000 q 1057 947 1033 971 q 976 799 1006 868 q 918 625 947 731 q 828 268 889 519 q 744 5 790 117 q 613 -183 697 -107 q 397 -260 528 -260 m 836 1033 q 794 1093 817 1068 q 736 1149 771 1118 q 594 1076 672 1128 q 581 1094 585 1082 q 576 1115 576 1106 q 607 1168 576 1140 q 677 1215 638 1196 q 738 1235 717 1235 q 792 1210 760 1235 q 847 1150 824 1185 q 871 1088 871 1115 q 863 1057 871 1072 q 836 1033 854 1042 z "},"Ÿ":{"ha":981,"x_min":44,"x_max":1057,"o":"m 397 -260 q 253 -224 308 -260 q 197 -122 197 -187 q 225 -44 197 -78 q 303 1 253 -10 q 288 -93 288 -68 q 319 -181 288 -150 q 414 -211 350 -211 q 574 -140 514 -211 q 660 25 633 -69 q 713 260 688 119 q 742 399 732 365 q 613 253 683 304 q 451 201 542 201 q 322 250 364 201 q 281 379 281 299 q 292 478 281 425 q 326 621 303 532 q 358 751 347 700 q 369 842 369 801 q 294 942 369 942 q 215 906 247 942 q 167 819 183 871 q 151 715 151 767 q 155 679 151 694 q 168 638 158 664 q 74 667 104 638 q 44 744 44 696 q 82 861 44 801 q 184 960 119 921 q 325 1000 249 1000 q 446 957 404 1000 q 488 847 488 914 q 478 776 488 818 q 449 660 469 735 q 411 513 424 568 q 399 407 399 457 q 497 276 399 276 q 663 372 586 276 q 788 610 739 467 q 806 665 796 632 q 819 715 815 699 q 893 928 863 856 q 963 1000 924 1000 q 1006 985 979 1000 q 1057 947 1033 971 q 976 799 1006 868 q 918 625 947 731 q 828 268 889 519 q 744 5 790 117 q 613 -183 697 -107 q 397 -260 528 -260 m 613 1074 q 570 1085 588 1074 q 553 1121 553 1097 q 583 1167 553 1146 q 646 1188 614 1188 q 696 1143 696 1188 q 669 1096 696 1118 q 613 1074 643 1074 m 813 1046 q 772 1058 789 1046 q 754 1093 754 1071 q 784 1140 754 1119 q 847 1160 814 1160 q 899 1114 899 1160 q 872 1068 899 1090 q 813 1046 844 1046 z "},"Ỵ":{"ha":981,"x_min":44,"x_max":1057,"o":"m 397 -260 q 253 -224 308 -260 q 197 -122 197 -187 q 225 -44 197 -78 q 303 1 253 -10 q 288 -93 288 -68 q 319 -181 288 -150 q 414 -211 350 -211 q 574 -140 514 -211 q 660 25 633 -69 q 713 260 688 119 q 742 399 732 365 q 613 253 683 304 q 451 201 542 201 q 322 250 364 201 q 281 379 281 299 q 292 478 281 425 q 326 621 303 532 q 358 751 347 700 q 369 842 369 801 q 294 942 369 942 q 215 906 247 942 q 167 819 183 871 q 151 715 151 767 q 155 679 151 694 q 168 638 158 664 q 74 667 104 638 q 44 744 44 696 q 82 861 44 801 q 184 960 119 921 q 325 1000 249 1000 q 446 957 404 1000 q 488 847 488 914 q 478 776 488 818 q 449 660 469 735 q 411 513 424 568 q 399 407 399 457 q 497 276 399 276 q 663 372 586 276 q 788 610 739 467 q 806 665 796 632 q 819 715 815 699 q 893 928 863 856 q 963 1000 924 1000 q 1006 985 979 1000 q 1057 947 1033 971 q 976 799 1006 868 q 918 625 947 731 q 828 268 889 519 q 744 5 790 117 q 613 -183 697 -107 q 397 -260 528 -260 m 781 -268 q 735 -253 753 -268 q 718 -212 718 -239 q 749 -162 718 -183 q 814 -142 779 -142 q 856 -155 842 -142 q 869 -192 869 -168 q 842 -245 869 -222 q 781 -268 814 -268 z "},"Ỳ":{"ha":981,"x_min":44,"x_max":1057,"o":"m 397 -260 q 253 -224 308 -260 q 197 -122 197 -187 q 225 -44 197 -78 q 303 1 253 -10 q 288 -93 288 -68 q 319 -181 288 -150 q 414 -211 350 -211 q 574 -140 514 -211 q 660 25 633 -69 q 713 260 688 119 q 742 399 732 365 q 613 253 683 304 q 451 201 542 201 q 322 250 364 201 q 281 379 281 299 q 292 478 281 425 q 326 621 303 532 q 358 751 347 700 q 369 842 369 801 q 294 942 369 942 q 215 906 247 942 q 167 819 183 871 q 151 715 151 767 q 155 679 151 694 q 168 638 158 664 q 74 667 104 638 q 44 744 44 696 q 82 861 44 801 q 184 960 119 921 q 325 1000 249 1000 q 446 957 404 1000 q 488 847 488 914 q 478 776 488 818 q 449 660 469 735 q 411 513 424 568 q 399 407 399 457 q 497 276 399 276 q 663 372 586 276 q 788 610 739 467 q 806 665 796 632 q 819 715 815 699 q 893 928 863 856 q 963 1000 924 1000 q 1006 985 979 1000 q 1057 947 1033 971 q 976 799 1006 868 q 918 625 947 731 q 828 268 889 519 q 744 5 790 117 q 613 -183 697 -107 q 397 -260 528 -260 m 701 1039 q 539 1192 633 1119 q 553 1232 540 1218 q 583 1246 567 1246 q 646 1215 610 1246 q 709 1146 682 1185 q 736 1089 736 1107 q 726 1061 736 1076 q 701 1039 717 1046 z "},"Ỷ":{"ha":981,"x_min":44,"x_max":1057,"o":"m 397 -260 q 253 -224 308 -260 q 197 -122 197 -187 q 225 -44 197 -78 q 303 1 253 -10 q 288 -93 288 -68 q 319 -181 288 -150 q 414 -211 350 -211 q 574 -140 514 -211 q 660 25 633 -69 q 713 260 688 119 q 742 399 732 365 q 613 253 683 304 q 451 201 542 201 q 322 250 364 201 q 281 379 281 299 q 292 478 281 425 q 326 621 303 532 q 358 751 347 700 q 369 842 369 801 q 294 942 369 942 q 215 906 247 942 q 167 819 183 871 q 151 715 151 767 q 155 679 151 694 q 168 638 158 664 q 74 667 104 638 q 44 744 44 696 q 82 861 44 801 q 184 960 119 921 q 325 1000 249 1000 q 446 957 404 1000 q 488 847 488 914 q 478 776 488 818 q 449 660 469 735 q 411 513 424 568 q 399 407 399 457 q 497 276 399 276 q 663 372 586 276 q 788 610 739 467 q 806 665 796 632 q 819 715 815 699 q 893 928 863 856 q 963 1000 924 1000 q 1006 985 979 1000 q 1057 947 1033 971 q 976 799 1006 868 q 918 625 947 731 q 828 268 889 519 q 744 5 790 117 q 613 -183 697 -107 q 397 -260 528 -260 m 715 1050 q 667 1065 688 1050 q 758 1131 758 1081 q 728 1169 758 1157 q 631 1182 697 1182 q 651 1235 631 1214 q 710 1256 671 1256 q 788 1225 757 1256 q 818 1149 818 1194 q 790 1077 818 1104 q 715 1050 761 1050 z "},"Ȳ":{"ha":981,"x_min":44,"x_max":1057,"o":"m 397 -260 q 253 -224 308 -260 q 197 -122 197 -187 q 225 -44 197 -78 q 303 1 253 -10 q 288 -93 288 -68 q 319 -181 288 -150 q 414 -211 350 -211 q 574 -140 514 -211 q 660 25 633 -69 q 713 260 688 119 q 742 399 732 365 q 613 253 683 304 q 451 201 542 201 q 322 250 364 201 q 281 379 281 299 q 292 478 281 425 q 326 621 303 532 q 358 751 347 700 q 369 842 369 801 q 294 942 369 942 q 215 906 247 942 q 167 819 183 871 q 151 715 151 767 q 155 679 151 694 q 168 638 158 664 q 74 667 104 638 q 44 744 44 696 q 82 861 44 801 q 184 960 119 921 q 325 1000 249 1000 q 446 957 404 1000 q 488 847 488 914 q 478 776 488 818 q 449 660 469 735 q 411 513 424 568 q 399 407 399 457 q 497 276 399 276 q 663 372 586 276 q 788 610 739 467 q 806 665 796 632 q 819 715 815 699 q 893 928 863 856 q 963 1000 924 1000 q 1006 985 979 1000 q 1057 947 1033 971 q 976 799 1006 868 q 918 625 947 731 q 828 268 889 519 q 744 5 790 117 q 613 -183 697 -107 q 397 -260 528 -260 m 832 1053 q 742 1063 796 1053 q 600 1092 689 1072 q 482 1115 503 1113 q 551 1157 497 1157 q 714 1137 621 1157 q 889 1088 807 1117 q 832 1053 872 1053 z "},"Ỹ":{"ha":981,"x_min":44,"x_max":1057,"o":"m 397 -260 q 253 -224 308 -260 q 197 -122 197 -187 q 225 -44 197 -78 q 303 1 253 -10 q 288 -93 288 -68 q 319 -181 288 -150 q 414 -211 350 -211 q 574 -140 514 -211 q 660 25 633 -69 q 713 260 688 119 q 742 399 732 365 q 613 253 683 304 q 451 201 542 201 q 322 250 364 201 q 281 379 281 299 q 292 478 281 425 q 326 621 303 532 q 358 751 347 700 q 369 842 369 801 q 294 942 369 942 q 215 906 247 942 q 167 819 183 871 q 151 715 151 767 q 155 679 151 694 q 168 638 158 664 q 74 667 104 638 q 44 744 44 696 q 82 861 44 801 q 184 960 119 921 q 325 1000 249 1000 q 446 957 404 1000 q 488 847 488 914 q 478 776 488 818 q 449 660 469 735 q 411 513 424 568 q 399 407 399 457 q 497 276 399 276 q 663 372 586 276 q 788 610 739 467 q 806 665 796 632 q 819 715 815 699 q 893 928 863 856 q 963 1000 924 1000 q 1006 985 979 1000 q 1057 947 1033 971 q 976 799 1006 868 q 918 625 947 731 q 828 268 889 519 q 744 5 790 117 q 613 -183 697 -107 q 397 -260 528 -260 m 813 1049 q 756 1058 785 1049 q 688 1083 728 1067 q 656 1096 681 1086 q 610 1110 631 1106 q 572 1115 589 1115 q 482 1097 524 1115 q 607 1179 515 1179 q 661 1171 633 1179 q 728 1146 689 1163 q 797 1121 771 1129 q 847 1113 822 1113 q 929 1126 889 1113 q 881 1068 908 1088 q 813 1049 854 1049 z "},"Z":{"ha":944,"x_min":-11,"x_max":996,"o":"m 681 -121 q 541 -94 614 -121 q 365 -21 468 -68 l 318 0 q 133 -75 214 -75 q 58 -57 90 -75 q 7 -10 25 -39 q -11 46 -11 18 q 17 103 -11 81 q 107 125 44 125 q 303 90 174 125 q 564 436 421 208 q 335 413 475 432 q 397 504 338 478 q 554 531 456 531 q 618 528 576 531 q 774 833 725 710 q 663 871 726 847 q 490 926 556 910 q 382 942 425 942 q 269 899 310 942 q 229 756 229 857 q 234 726 231 749 q 242 696 238 704 q 139 806 139 714 q 212 950 139 900 q 424 1000 285 1000 q 562 988 497 1000 q 713 951 626 975 q 831 922 782 932 q 926 913 879 913 q 996 918 972 913 q 908 850 947 869 q 736 518 842 694 q 792 513 774 515 q 894 507 867 507 q 849 462 871 475 q 795 444 828 449 q 689 439 763 440 q 396 65 539 203 q 588 13 506 32 q 728 -6 669 -6 q 853 25 790 -6 q 783 -88 822 -56 q 681 -121 743 -121 m 122 -29 q 170 -15 144 -29 q 238 32 196 0 q 150 63 183 53 q 90 74 117 74 q 49 63 63 74 q 35 38 35 53 q 60 -8 35 14 q 122 -29 86 -29 z "},"Ź":{"ha":944,"x_min":-11,"x_max":996,"o":"m 681 -121 q 541 -94 614 -121 q 365 -21 468 -68 l 318 0 q 133 -75 214 -75 q 58 -57 90 -75 q 7 -10 25 -39 q -11 46 -11 18 q 17 103 -11 81 q 107 125 44 125 q 303 90 174 125 q 564 436 421 208 q 335 413 475 432 q 397 504 338 478 q 554 531 456 531 q 618 528 576 531 q 774 833 725 710 q 663 871 726 847 q 490 926 556 910 q 382 942 425 942 q 269 899 310 942 q 229 756 229 857 q 234 726 231 749 q 242 696 238 704 q 139 806 139 714 q 212 950 139 900 q 424 1000 285 1000 q 562 988 497 1000 q 713 951 626 975 q 831 922 782 932 q 926 913 879 913 q 996 918 972 913 q 908 850 947 869 q 736 518 842 694 q 792 513 774 515 q 894 507 867 507 q 849 462 871 475 q 795 444 828 449 q 689 439 763 440 q 396 65 539 203 q 588 13 506 32 q 728 -6 669 -6 q 853 25 790 -6 q 783 -88 822 -56 q 681 -121 743 -121 m 122 -29 q 170 -15 144 -29 q 238 32 196 0 q 150 63 183 53 q 90 74 117 74 q 49 63 63 74 q 35 38 35 53 q 60 -8 35 14 q 122 -29 86 -29 m 682 1039 q 658 1060 667 1046 q 649 1085 649 1075 q 674 1141 649 1101 q 732 1213 699 1181 q 792 1244 765 1244 q 833 1196 828 1244 q 811 1174 833 1196 q 739 1103 772 1138 q 682 1039 706 1069 z "},"Ž":{"ha":944,"x_min":-11,"x_max":996,"o":"m 681 -121 q 541 -94 614 -121 q 365 -21 468 -68 l 318 0 q 133 -75 214 -75 q 58 -57 90 -75 q 7 -10 25 -39 q -11 46 -11 18 q 17 103 -11 81 q 107 125 44 125 q 303 90 174 125 q 564 436 421 208 q 335 413 475 432 q 397 504 338 478 q 554 531 456 531 q 618 528 576 531 q 774 833 725 710 q 663 871 726 847 q 490 926 556 910 q 382 942 425 942 q 269 899 310 942 q 229 756 229 857 q 234 726 231 749 q 242 696 238 704 q 139 806 139 714 q 212 950 139 900 q 424 1000 285 1000 q 562 988 497 1000 q 713 951 626 975 q 831 922 782 932 q 926 913 879 913 q 996 918 972 913 q 908 850 947 869 q 736 518 842 694 q 792 513 774 515 q 894 507 867 507 q 849 462 871 475 q 795 444 828 449 q 689 439 763 440 q 396 65 539 203 q 588 13 506 32 q 728 -6 669 -6 q 853 25 790 -6 q 783 -88 822 -56 q 681 -121 743 -121 m 122 -29 q 170 -15 144 -29 q 238 32 196 0 q 150 63 183 53 q 90 74 117 74 q 49 63 63 74 q 35 38 35 53 q 60 -8 35 14 q 122 -29 86 -29 m 653 1047 q 594 1076 628 1047 q 537 1144 561 1104 q 513 1214 513 1183 q 546 1264 513 1249 q 653 1128 588 1186 q 794 1211 731 1160 q 811 1193 804 1204 q 818 1171 818 1182 q 787 1116 818 1144 q 715 1067 756 1088 q 653 1047 674 1047 z "},"Ż":{"ha":944,"x_min":-11,"x_max":996,"o":"m 681 -121 q 541 -94 614 -121 q 365 -21 468 -68 l 318 0 q 133 -75 214 -75 q 58 -57 90 -75 q 7 -10 25 -39 q -11 46 -11 18 q 17 103 -11 81 q 107 125 44 125 q 303 90 174 125 q 564 436 421 208 q 335 413 475 432 q 397 504 338 478 q 554 531 456 531 q 618 528 576 531 q 774 833 725 710 q 663 871 726 847 q 490 926 556 910 q 382 942 425 942 q 269 899 310 942 q 229 756 229 857 q 234 726 231 749 q 242 696 238 704 q 139 806 139 714 q 212 950 139 900 q 424 1000 285 1000 q 562 988 497 1000 q 713 951 626 975 q 831 922 782 932 q 926 913 879 913 q 996 918 972 913 q 908 850 947 869 q 736 518 842 694 q 792 513 774 515 q 894 507 867 507 q 849 462 871 475 q 795 444 828 449 q 689 439 763 440 q 396 65 539 203 q 588 13 506 32 q 728 -6 669 -6 q 853 25 790 -6 q 783 -88 822 -56 q 681 -121 743 -121 m 122 -29 q 170 -15 144 -29 q 238 32 196 0 q 150 63 183 53 q 90 74 117 74 q 49 63 63 74 q 35 38 35 53 q 60 -8 35 14 q 122 -29 86 -29 m 665 1064 q 620 1078 638 1064 q 603 1119 603 1093 q 633 1169 603 1149 q 699 1190 664 1190 q 740 1177 726 1190 q 754 1140 754 1164 q 726 1088 754 1111 q 665 1064 699 1064 z "},"a":{"ha":617,"x_min":-36,"x_max":676,"o":"m 78 -65 q -3 -33 29 -65 q -36 57 -36 -1 q 23 238 -36 138 q 174 407 82 338 q 357 476 265 476 q 459 445 418 476 q 500 365 500 414 q 421 299 500 301 q 471 257 471 283 q 461 228 471 247 q 439 188 451 208 q 404 124 417 151 q 392 74 392 97 q 402 38 392 53 q 433 24 413 24 q 533 78 472 24 q 650 240 593 132 l 676 214 q 549 28 625 99 q 394 -42 472 -42 q 309 -5 339 -42 q 279 79 279 32 q 172 -31 217 4 q 78 -65 128 -65 m 107 6 q 220 76 156 6 q 367 258 285 146 l 394 296 q 406 303 399 303 l 411 301 q 418 353 418 324 q 360 425 418 425 q 232 360 299 425 q 120 204 165 294 q 75 50 75 114 q 83 16 75 26 q 107 6 90 6 z "},"á":{"ha":617,"x_min":-36,"x_max":676,"o":"m 78 -65 q -3 -33 29 -65 q -36 57 -36 -1 q 23 238 -36 138 q 174 407 82 338 q 357 476 265 476 q 459 445 418 476 q 500 365 500 414 q 421 299 500 301 q 471 257 471 283 q 461 228 471 247 q 439 188 451 208 q 404 124 417 151 q 392 74 392 97 q 402 38 392 53 q 433 24 413 24 q 533 78 472 24 q 650 240 593 132 l 676 214 q 549 28 625 99 q 394 -42 472 -42 q 309 -5 339 -42 q 279 79 279 32 q 172 -31 217 4 q 78 -65 128 -65 m 107 6 q 220 76 156 6 q 367 258 285 146 l 394 296 q 406 303 399 303 l 411 301 q 418 353 418 324 q 360 425 418 425 q 232 360 299 425 q 120 204 165 294 q 75 50 75 114 q 83 16 75 26 q 107 6 90 6 m 425 569 q 401 591 410 576 q 392 615 392 606 q 417 672 392 632 q 475 743 442 711 q 535 775 508 775 q 576 726 571 775 q 554 704 576 726 q 482 634 515 668 q 425 569 449 600 z "},"ă":{"ha":617,"x_min":-36,"x_max":676,"o":"m 78 -65 q -3 -33 29 -65 q -36 57 -36 -1 q 23 238 -36 138 q 174 407 82 338 q 357 476 265 476 q 459 445 418 476 q 500 365 500 414 q 421 299 500 301 q 471 257 471 283 q 461 228 471 247 q 439 188 451 208 q 404 124 417 151 q 392 74 392 97 q 402 38 392 53 q 433 24 413 24 q 533 78 472 24 q 650 240 593 132 l 676 214 q 549 28 625 99 q 394 -42 472 -42 q 309 -5 339 -42 q 279 79 279 32 q 172 -31 217 4 q 78 -65 128 -65 m 107 6 q 220 76 156 6 q 367 258 285 146 l 394 296 q 406 303 399 303 l 411 301 q 418 353 418 324 q 360 425 418 425 q 232 360 299 425 q 120 204 165 294 q 75 50 75 114 q 83 16 75 26 q 107 6 90 6 m 461 569 q 372 590 407 569 q 322 642 338 611 q 306 701 306 672 q 344 769 306 747 q 382 690 353 722 q 464 658 411 658 q 590 726 546 658 q 610 681 610 711 q 565 601 610 633 q 461 569 521 569 z "},"ắ":{"ha":617,"x_min":-36,"x_max":676,"o":"m 78 -65 q -3 -33 29 -65 q -36 57 -36 -1 q 23 238 -36 138 q 174 407 82 338 q 357 476 265 476 q 459 445 418 476 q 500 365 500 414 q 421 299 500 301 q 471 257 471 283 q 461 228 471 247 q 439 188 451 208 q 404 124 417 151 q 392 74 392 97 q 402 38 392 53 q 433 24 413 24 q 533 78 472 24 q 650 240 593 132 l 676 214 q 549 28 625 99 q 394 -42 472 -42 q 309 -5 339 -42 q 279 79 279 32 q 172 -31 217 4 q 78 -65 128 -65 m 107 6 q 220 76 156 6 q 367 258 285 146 l 394 296 q 406 303 399 303 l 411 301 q 418 353 418 324 q 360 425 418 425 q 232 360 299 425 q 120 204 165 294 q 75 50 75 114 q 83 16 75 26 q 107 6 90 6 m 474 667 q 440 713 440 681 q 462 765 440 731 q 513 825 483 799 q 568 851 543 851 q 610 803 604 851 q 542 740 585 782 q 474 667 499 697 m 465 522 q 376 543 411 522 q 326 594 342 564 q 310 654 310 625 q 349 722 310 700 q 386 643 357 675 q 468 611 415 611 q 594 679 550 611 q 614 633 614 664 q 569 554 614 586 q 465 522 525 522 z "},"ặ":{"ha":617,"x_min":-36,"x_max":676,"o":"m 78 -65 q -3 -33 29 -65 q -36 57 -36 -1 q 23 238 -36 138 q 174 407 82 338 q 357 476 265 476 q 459 445 418 476 q 500 365 500 414 q 421 299 500 301 q 471 257 471 283 q 461 228 471 247 q 439 188 451 208 q 404 124 417 151 q 392 74 392 97 q 402 38 392 53 q 433 24 413 24 q 533 78 472 24 q 650 240 593 132 l 676 214 q 549 28 625 99 q 394 -42 472 -42 q 309 -5 339 -42 q 279 79 279 32 q 172 -31 217 4 q 78 -65 128 -65 m 107 6 q 220 76 156 6 q 367 258 285 146 l 394 296 q 406 303 399 303 l 411 301 q 418 353 418 324 q 360 425 418 425 q 232 360 299 425 q 120 204 165 294 q 75 50 75 114 q 83 16 75 26 q 107 6 90 6 m 461 569 q 372 590 407 569 q 322 642 338 611 q 306 701 306 672 q 344 769 306 747 q 382 690 353 722 q 464 658 411 658 q 590 726 546 658 q 610 681 610 711 q 565 601 610 633 q 461 569 521 569 m 151 -297 q 106 -283 124 -297 q 89 -242 89 -268 q 119 -192 89 -212 q 185 -171 150 -171 q 226 -184 213 -171 q 240 -221 240 -197 q 213 -274 240 -251 q 151 -297 185 -297 z "},"ằ":{"ha":617,"x_min":-36,"x_max":676,"o":"m 78 -65 q -3 -33 29 -65 q -36 57 -36 -1 q 23 238 -36 138 q 174 407 82 338 q 357 476 265 476 q 459 445 418 476 q 500 365 500 414 q 421 299 500 301 q 471 257 471 283 q 461 228 471 247 q 439 188 451 208 q 404 124 417 151 q 392 74 392 97 q 402 38 392 53 q 433 24 413 24 q 533 78 472 24 q 650 240 593 132 l 676 214 q 549 28 625 99 q 394 -42 472 -42 q 309 -5 339 -42 q 279 79 279 32 q 172 -31 217 4 q 78 -65 128 -65 m 107 6 q 220 76 156 6 q 367 258 285 146 l 394 296 q 406 303 399 303 l 411 301 q 418 353 418 324 q 360 425 418 425 q 232 360 299 425 q 120 204 165 294 q 75 50 75 114 q 83 16 75 26 q 107 6 90 6 m 488 669 q 419 742 463 700 q 351 806 376 785 q 393 854 357 854 q 448 828 418 854 q 499 767 478 801 q 521 715 521 733 q 488 669 521 683 m 465 522 q 376 543 411 522 q 326 594 342 564 q 310 654 310 625 q 349 722 310 700 q 386 643 357 675 q 468 611 415 611 q 594 679 550 611 q 614 633 614 664 q 569 554 614 586 q 465 522 525 522 z "},"ẳ":{"ha":617,"x_min":-36,"x_max":676,"o":"m 78 -65 q -3 -33 29 -65 q -36 57 -36 -1 q 23 238 -36 138 q 174 407 82 338 q 357 476 265 476 q 459 445 418 476 q 500 365 500 414 q 421 299 500 301 q 471 257 471 283 q 461 228 471 247 q 439 188 451 208 q 404 124 417 151 q 392 74 392 97 q 402 38 392 53 q 433 24 413 24 q 533 78 472 24 q 650 240 593 132 l 676 214 q 549 28 625 99 q 394 -42 472 -42 q 309 -5 339 -42 q 279 79 279 32 q 172 -31 217 4 q 78 -65 128 -65 m 107 6 q 220 76 156 6 q 367 258 285 146 l 394 296 q 406 303 399 303 l 411 301 q 418 353 418 324 q 360 425 418 425 q 232 360 299 425 q 120 204 165 294 q 75 50 75 114 q 83 16 75 26 q 107 6 90 6 m 465 522 q 376 543 411 522 q 326 594 342 564 q 310 654 310 625 q 349 722 310 700 q 386 643 357 675 q 468 611 415 611 q 594 679 550 611 q 614 633 614 664 q 569 554 614 586 q 465 522 525 522 m 481 665 q 432 681 453 665 q 524 746 524 696 q 493 785 524 772 q 396 797 463 797 q 416 850 396 829 q 475 871 436 871 q 553 840 522 871 q 583 764 583 810 q 555 692 583 719 q 481 665 526 665 z "}}}
